<?xml version="1.0" encoding="UTF-8" standalone="no"?>
<!DOCTYPE svg PUBLIC "-//W3C//DTD SVG 1.1//EN"
 "http://www.w3.org/Graphics/SVG/1.1/DTD/svg11.dtd">
<!-- Generated by graphviz version 2.47.2 (20210527.1257)
 -->
<!-- Title: snakemake_dag Pages: 1 -->
<svg width="636pt" height="420pt"
 viewBox="0.00 0.00 636.19 420.00" xmlns="http://www.w3.org/2000/svg" xmlns:xlink="http://www.w3.org/1999/xlink">
<g id="graph0" class="graph" transform="scale(1 1) rotate(0) translate(4 416)">
<title>snakemake_dag</title>
<polygon fill="white" stroke="transparent" points="-4,4 -4,-416 632.19,-416 632.19,4 -4,4"/>
<!-- 0 -->
<g id="node1" class="node">
<title>0</title>
<path fill="none" stroke="#d6d856" stroke-width="2" d="M260.69,-36C260.69,-36 230.69,-36 230.69,-36 224.69,-36 218.69,-30 218.69,-24 218.69,-24 218.69,-12 218.69,-12 218.69,-6 224.69,0 230.69,0 230.69,0 260.69,0 260.69,0 266.69,0 272.69,-6 272.69,-12 272.69,-12 272.69,-24 272.69,-24 272.69,-30 266.69,-36 260.69,-36"/>
<text text-anchor="middle" x="245.69" y="-15.5" font-family="sans" font-size="10.00">all</text>
</g>
<!-- 1 -->
<g id="node2" class="node">
<title>1</title>
<path fill="none" stroke="#59d856" stroke-width="2" stroke-dasharray="5,2" d="M226.69,-108C226.69,-108 174.69,-108 174.69,-108 168.69,-108 162.69,-102 162.69,-96 162.69,-96 162.69,-84 162.69,-84 162.69,-78 168.69,-72 174.69,-72 174.69,-72 226.69,-72 226.69,-72 232.69,-72 238.69,-78 238.69,-84 238.69,-84 238.69,-96 238.69,-96 238.69,-102 232.69,-108 226.69,-108"/>
<text text-anchor="middle" x="200.69" y="-87.5" font-family="sans" font-size="10.00">dependency</text>
</g>
<!-- 1&#45;&gt;0 -->
<g id="edge1" class="edge">
<title>1&#45;&gt;0</title>
<path fill="none" stroke="grey" stroke-width="2" d="M211.81,-71.7C217.05,-63.56 223.39,-53.69 229.17,-44.7"/>
<polygon fill="grey" stroke="grey" stroke-width="2" points="232.23,-46.41 234.69,-36.1 226.34,-42.62 232.23,-46.41"/>
</g>
<!-- 2 -->
<g id="node3" class="node">
<title>2</title>
<path fill="none" stroke="#56d89a" stroke-width="2" d="M312.69,-108C312.69,-108 268.69,-108 268.69,-108 262.69,-108 256.69,-102 256.69,-96 256.69,-96 256.69,-84 256.69,-84 256.69,-78 262.69,-72 268.69,-72 268.69,-72 312.69,-72 312.69,-72 318.69,-72 324.69,-78 324.69,-84 324.69,-84 324.69,-96 324.69,-96 324.69,-102 318.69,-108 312.69,-108"/>
<text text-anchor="middle" x="290.69" y="-87.5" font-family="sans" font-size="10.00">evaluation</text>
</g>
<!-- 2&#45;&gt;0 -->
<g id="edge2" class="edge">
<title>2&#45;&gt;0</title>
<path fill="none" stroke="grey" stroke-width="2" d="M279.57,-71.7C274.34,-63.56 267.99,-53.69 262.21,-44.7"/>
<polygon fill="grey" stroke="grey" stroke-width="2" points="265.04,-42.62 256.69,-36.1 259.15,-46.41 265.04,-42.62"/>
</g>
<!-- 3 -->
<g id="node4" class="node">
<title>3</title>
<path fill="none" stroke="#97d856" stroke-width="2" d="M95.69,-180C95.69,-180 65.69,-180 65.69,-180 59.69,-180 53.69,-174 53.69,-168 53.69,-168 53.69,-156 53.69,-156 53.69,-150 59.69,-144 65.69,-144 65.69,-144 95.69,-144 95.69,-144 101.69,-144 107.69,-150 107.69,-156 107.69,-156 107.69,-168 107.69,-168 107.69,-174 101.69,-180 95.69,-180"/>
<text text-anchor="middle" x="80.69" y="-159.5" font-family="sans" font-size="10.00">predict</text>
</g>
<!-- 3&#45;&gt;2 -->
<g id="edge3" class="edge">
<title>3&#45;&gt;2</title>
<path fill="none" stroke="grey" stroke-width="2" d="M107.78,-153.03C139.16,-143.67 192.58,-127.3 247.04,-108.12"/>
<polygon fill="grey" stroke="grey" stroke-width="2" points="248.25,-111.41 256.5,-104.76 245.91,-104.81 248.25,-111.41"/>
</g>
<!-- 4 -->
<g id="node5" class="node">
<title>4</title>
<path fill="none" stroke="#d89556" stroke-width="2" d="M130.69,-268C130.69,-268 30.69,-268 30.69,-268 24.69,-268 18.69,-262 18.69,-256 18.69,-256 18.69,-228 18.69,-228 18.69,-222 24.69,-216 30.69,-216 30.69,-216 130.69,-216 130.69,-216 136.69,-216 142.69,-222 142.69,-228 142.69,-228 142.69,-256 142.69,-256 142.69,-262 136.69,-268 130.69,-268"/>
<text text-anchor="middle" x="80.69" y="-256" font-family="sans" font-size="10.00">train</text>
<text text-anchor="middle" x="80.69" y="-245" font-family="sans" font-size="10.00">language: R</text>
<text text-anchor="middle" x="80.69" y="-234" font-family="sans" font-size="10.00">method: DeepCirCode</text>
<text text-anchor="middle" x="80.69" y="-223" font-family="sans" font-size="10.00">suffix: RDS</text>
</g>
<!-- 4&#45;&gt;3 -->
<g id="edge7" class="edge">
<title>4&#45;&gt;3</title>
<path fill="none" stroke="grey" stroke-width="2" d="M80.69,-215.89C80.69,-207.84 80.69,-198.88 80.69,-190.66"/>
<polygon fill="grey" stroke="grey" stroke-width="2" points="84.19,-190.41 80.69,-180.41 77.19,-190.41 84.19,-190.41"/>
</g>
<!-- 5 -->
<g id="node6" class="node">
<title>5</title>
<path fill="none" stroke="#569ad8" stroke-width="2" d="M323.19,-340C323.19,-340 258.19,-340 258.19,-340 252.19,-340 246.19,-334 246.19,-328 246.19,-328 246.19,-316 246.19,-316 246.19,-310 252.19,-304 258.19,-304 258.19,-304 323.19,-304 323.19,-304 329.19,-304 335.19,-310 335.19,-316 335.19,-316 335.19,-328 335.19,-328 335.19,-334 329.19,-340 323.19,-340"/>
<text text-anchor="middle" x="290.69" y="-319.5" font-family="sans" font-size="10.00">split_train_test</text>
</g>
<!-- 5&#45;&gt;3 -->
<g id="edge8" class="edge">
<title>5&#45;&gt;3</title>
<path fill="none" stroke="grey" stroke-width="2" d="M246.05,-319.27C174.51,-315.45 39.2,-303.59 9.69,-268 -5.06,-250.21 -0.67,-236.66 9.69,-216 17.21,-201 31.22,-189.16 44.82,-180.51"/>
<polygon fill="grey" stroke="grey" stroke-width="2" points="46.81,-183.4 53.62,-175.28 43.23,-177.38 46.81,-183.4"/>
</g>
<!-- 5&#45;&gt;4 -->
<g id="edge9" class="edge">
<title>5&#45;&gt;4</title>
<path fill="none" stroke="grey" stroke-width="2" d="M246.15,-304.46C218.99,-294.37 183.62,-281.23 152.57,-269.7"/>
<polygon fill="grey" stroke="grey" stroke-width="2" points="153.68,-266.38 143.08,-266.17 151.24,-272.94 153.68,-266.38"/>
</g>
<!-- 7 -->
<g id="node8" class="node">
<title>7</title>
<path fill="none" stroke="#97d856" stroke-width="2" d="M265.69,-180C265.69,-180 235.69,-180 235.69,-180 229.69,-180 223.69,-174 223.69,-168 223.69,-168 223.69,-156 223.69,-156 223.69,-150 229.69,-144 235.69,-144 235.69,-144 265.69,-144 265.69,-144 271.69,-144 277.69,-150 277.69,-156 277.69,-156 277.69,-168 277.69,-168 277.69,-174 271.69,-180 265.69,-180"/>
<text text-anchor="middle" x="250.69" y="-159.5" font-family="sans" font-size="10.00">predict</text>
</g>
<!-- 5&#45;&gt;7 -->
<g id="edge12" class="edge">
<title>5&#45;&gt;7</title>
<path fill="none" stroke="grey" stroke-width="2" d="M246.13,-309.34C225.14,-301.36 202.04,-288.42 189.69,-268 177.73,-248.22 180.1,-237.03 189.69,-216 195.25,-203.81 205.14,-193.34 215.37,-185.01"/>
<polygon fill="grey" stroke="grey" stroke-width="2" points="217.72,-187.62 223.57,-178.79 213.48,-182.04 217.72,-187.62"/>
</g>
<!-- 8 -->
<g id="node9" class="node">
<title>8</title>
<path fill="none" stroke="#d89556" stroke-width="2" d="M290.19,-268C290.19,-268 211.19,-268 211.19,-268 205.19,-268 199.19,-262 199.19,-256 199.19,-256 199.19,-228 199.19,-228 199.19,-222 205.19,-216 211.19,-216 211.19,-216 290.19,-216 290.19,-216 296.19,-216 302.19,-222 302.19,-228 302.19,-228 302.19,-256 302.19,-256 302.19,-262 296.19,-268 290.19,-268"/>
<text text-anchor="middle" x="250.69" y="-256" font-family="sans" font-size="10.00">train</text>
<text text-anchor="middle" x="250.69" y="-245" font-family="sans" font-size="10.00">language: py</text>
<text text-anchor="middle" x="250.69" y="-234" font-family="sans" font-size="10.00">method: circDeep</text>
<text text-anchor="middle" x="250.69" y="-223" font-family="sans" font-size="10.00">suffix: hdf5</text>
</g>
<!-- 5&#45;&gt;8 -->
<g id="edge13" class="edge">
<title>5&#45;&gt;8</title>
<path fill="none" stroke="grey" stroke-width="2" d="M281.81,-303.69C277.81,-295.88 272.93,-286.37 268.24,-277.22"/>
<polygon fill="grey" stroke="grey" stroke-width="2" points="271.32,-275.56 263.64,-268.26 265.09,-278.75 271.32,-275.56"/>
</g>
<!-- 9 -->
<g id="node10" class="node">
<title>9</title>
<path fill="none" stroke="#97d856" stroke-width="2" d="M345.69,-180C345.69,-180 315.69,-180 315.69,-180 309.69,-180 303.69,-174 303.69,-168 303.69,-168 303.69,-156 303.69,-156 303.69,-150 309.69,-144 315.69,-144 315.69,-144 345.69,-144 345.69,-144 351.69,-144 357.69,-150 357.69,-156 357.69,-156 357.69,-168 357.69,-168 357.69,-174 351.69,-180 345.69,-180"/>
<text text-anchor="middle" x="330.69" y="-159.5" font-family="sans" font-size="10.00">predict</text>
</g>
<!-- 5&#45;&gt;9 -->
<g id="edge15" class="edge">
<title>5&#45;&gt;9</title>
<path fill="none" stroke="grey" stroke-width="2" d="M298.13,-303.59C302.28,-293.37 307.28,-280.12 310.69,-268 318.01,-242.02 323.46,-211.67 326.81,-190.31"/>
<polygon fill="grey" stroke="grey" stroke-width="2" points="330.29,-190.72 328.33,-180.31 323.37,-189.67 330.29,-190.72"/>
</g>
<!-- 10 -->
<g id="node11" class="node">
<title>10</title>
<path fill="none" stroke="#d89556" stroke-width="2" d="M428.69,-268C428.69,-268 370.69,-268 370.69,-268 364.69,-268 358.69,-262 358.69,-256 358.69,-256 358.69,-228 358.69,-228 358.69,-222 364.69,-216 370.69,-216 370.69,-216 428.69,-216 428.69,-216 434.69,-216 440.69,-222 440.69,-228 440.69,-228 440.69,-256 440.69,-256 440.69,-262 434.69,-268 428.69,-268"/>
<text text-anchor="middle" x="399.69" y="-256" font-family="sans" font-size="10.00">train</text>
<text text-anchor="middle" x="399.69" y="-245" font-family="sans" font-size="10.00">language: R</text>
<text text-anchor="middle" x="399.69" y="-234" font-family="sans" font-size="10.00">method: SVM</text>
<text text-anchor="middle" x="399.69" y="-223" font-family="sans" font-size="10.00">suffix: RDS</text>
</g>
<!-- 5&#45;&gt;10 -->
<g id="edge16" class="edge">
<title>5&#45;&gt;10</title>
<path fill="none" stroke="grey" stroke-width="2" d="M314.61,-303.88C326.87,-295.11 342.18,-284.15 356.42,-273.96"/>
<polygon fill="grey" stroke="grey" stroke-width="2" points="358.55,-276.74 364.65,-268.07 354.48,-271.05 358.55,-276.74"/>
</g>
<!-- 11 -->
<g id="node12" class="node">
<title>11</title>
<path fill="none" stroke="#97d856" stroke-width="2" d="M483.69,-180C483.69,-180 453.69,-180 453.69,-180 447.69,-180 441.69,-174 441.69,-168 441.69,-168 441.69,-156 441.69,-156 441.69,-150 447.69,-144 453.69,-144 453.69,-144 483.69,-144 483.69,-144 489.69,-144 495.69,-150 495.69,-156 495.69,-156 495.69,-168 495.69,-168 495.69,-174 489.69,-180 483.69,-180"/>
<text text-anchor="middle" x="468.69" y="-159.5" font-family="sans" font-size="10.00">predict</text>
</g>
<!-- 5&#45;&gt;11 -->
<g id="edge18" class="edge">
<title>5&#45;&gt;11</title>
<path fill="none" stroke="grey" stroke-width="2" d="M335.19,-318.23C371.43,-313.51 421.11,-300.98 449.69,-268 468.12,-246.73 471.37,-213.72 470.96,-190.4"/>
<polygon fill="grey" stroke="grey" stroke-width="2" points="474.45,-189.98 470.54,-180.13 467.45,-190.27 474.45,-189.98"/>
</g>
<!-- 12 -->
<g id="node13" class="node">
<title>12</title>
<path fill="none" stroke="#d89556" stroke-width="2" d="M616.19,-268C616.19,-268 509.19,-268 509.19,-268 503.19,-268 497.19,-262 497.19,-256 497.19,-256 497.19,-228 497.19,-228 497.19,-222 503.19,-216 509.19,-216 509.19,-216 616.19,-216 616.19,-216 622.19,-216 628.19,-222 628.19,-228 628.19,-228 628.19,-256 628.19,-256 628.19,-262 622.19,-268 616.19,-268"/>
<text text-anchor="middle" x="562.69" y="-256" font-family="sans" font-size="10.00">train</text>
<text text-anchor="middle" x="562.69" y="-245" font-family="sans" font-size="10.00">language: R</text>
<text text-anchor="middle" x="562.69" y="-234" font-family="sans" font-size="10.00">method: RandomForest</text>
<text text-anchor="middle" x="562.69" y="-223" font-family="sans" font-size="10.00">suffix: RDS</text>
</g>
<!-- 5&#45;&gt;12 -->
<g id="edge19" class="edge">
<title>5&#45;&gt;12</title>
<path fill="none" stroke="grey" stroke-width="2" d="M335.43,-309.11C374.42,-298.63 432.43,-282.79 482.69,-268 484.13,-267.58 485.58,-267.15 487.05,-266.71"/>
<polygon fill="grey" stroke="grey" stroke-width="2" points="488.25,-270 496.82,-263.78 486.24,-263.3 488.25,-270"/>
</g>
<!-- 6 -->
<g id="node7" class="node">
<title>6</title>
<path fill="none" stroke="#d85656" stroke-width="2" d="M327.69,-412C327.69,-412 253.69,-412 253.69,-412 247.69,-412 241.69,-406 241.69,-400 241.69,-400 241.69,-388 241.69,-388 241.69,-382 247.69,-376 253.69,-376 253.69,-376 327.69,-376 327.69,-376 333.69,-376 339.69,-382 339.69,-388 339.69,-388 339.69,-400 339.69,-400 339.69,-406 333.69,-412 327.69,-412"/>
<text text-anchor="middle" x="290.69" y="-391.5" font-family="sans" font-size="10.00">extract_circBase</text>
</g>
<!-- 6&#45;&gt;5 -->
<g id="edge10" class="edge">
<title>6&#45;&gt;5</title>
<path fill="none" stroke="grey" stroke-width="2" d="M290.69,-375.7C290.69,-367.98 290.69,-358.71 290.69,-350.11"/>
<polygon fill="grey" stroke="grey" stroke-width="2" points="294.19,-350.1 290.69,-340.1 287.19,-350.1 294.19,-350.1"/>
</g>
<!-- 7&#45;&gt;2 -->
<g id="edge4" class="edge">
<title>7&#45;&gt;2</title>
<path fill="none" stroke="grey" stroke-width="2" d="M260.58,-143.7C265.18,-135.64 270.75,-125.89 275.84,-116.98"/>
<polygon fill="grey" stroke="grey" stroke-width="2" points="278.99,-118.52 280.92,-108.1 272.92,-115.05 278.99,-118.52"/>
</g>
<!-- 8&#45;&gt;7 -->
<g id="edge11" class="edge">
<title>8&#45;&gt;7</title>
<path fill="none" stroke="grey" stroke-width="2" d="M250.69,-215.89C250.69,-207.84 250.69,-198.88 250.69,-190.66"/>
<polygon fill="grey" stroke="grey" stroke-width="2" points="254.19,-190.41 250.69,-180.41 247.19,-190.41 254.19,-190.41"/>
</g>
<!-- 9&#45;&gt;2 -->
<g id="edge5" class="edge">
<title>9&#45;&gt;2</title>
<path fill="none" stroke="grey" stroke-width="2" d="M320.8,-143.7C316.2,-135.64 310.63,-125.89 305.54,-116.98"/>
<polygon fill="grey" stroke="grey" stroke-width="2" points="308.46,-115.05 300.46,-108.1 302.39,-118.52 308.46,-115.05"/>
</g>
<!-- 10&#45;&gt;9 -->
<g id="edge14" class="edge">
<title>10&#45;&gt;9</title>
<path fill="none" stroke="grey" stroke-width="2" d="M377.48,-215.89C369.56,-206.94 360.64,-196.86 352.73,-187.92"/>
<polygon fill="grey" stroke="grey" stroke-width="2" points="355.34,-185.58 346.09,-180.41 350.1,-190.22 355.34,-185.58"/>
</g>
<!-- 11&#45;&gt;2 -->
<g id="edge6" class="edge">
<title>11&#45;&gt;2</title>
<path fill="none" stroke="grey" stroke-width="2" d="M441.66,-150.37C413.15,-139.16 367.82,-121.33 334.26,-108.13"/>
<polygon fill="grey" stroke="grey" stroke-width="2" points="335.28,-104.77 324.69,-104.37 332.72,-111.29 335.28,-104.77"/>
</g>
<!-- 12&#45;&gt;11 -->
<g id="edge17" class="edge">
<title>12&#45;&gt;11</title>
<path fill="none" stroke="grey" stroke-width="2" d="M532.43,-215.89C521.12,-206.5 508.31,-195.88 497.16,-186.63"/>
<polygon fill="grey" stroke="grey" stroke-width="2" points="499.31,-183.86 489.38,-180.17 494.84,-189.25 499.31,-183.86"/>
</g>
</g>
</svg>
