<?xml version="1.0" encoding="UTF-8" standalone="no"?>
<!DOCTYPE svg PUBLIC "-//W3C//DTD SVG 1.1//EN"
 "http://www.w3.org/Graphics/SVG/1.1/DTD/svg11.dtd">
<!-- Generated by graphviz version 2.47.2 (20210527.1257)
 -->
<!-- Title: snakemake_dag Pages: 1 -->
<svg width="406pt" height="404pt"
 viewBox="0.00 0.00 406.00 404.00" xmlns="http://www.w3.org/2000/svg" xmlns:xlink="http://www.w3.org/1999/xlink">
<g id="graph0" class="graph" transform="scale(1 1) rotate(0) translate(4 400)">
<title>snakemake_dag</title>
<polygon fill="white" stroke="transparent" points="-4,4 -4,-400 402,-400 402,4 -4,4"/>
<!-- 0 -->
<g id="node1" class="node">
<title>0</title>
<path fill="none" stroke="#97d856" stroke-width="2" d="M98,-36C98,-36 68,-36 68,-36 62,-36 56,-30 56,-24 56,-24 56,-12 56,-12 56,-6 62,0 68,0 68,0 98,0 98,0 104,0 110,-6 110,-12 110,-12 110,-24 110,-24 110,-30 104,-36 98,-36"/>
<text text-anchor="middle" x="83" y="-15.5" font-family="sans" font-size="10.00">all</text>
</g>
<!-- 1 -->
<g id="node2" class="node">
<title>1</title>
<path fill="none" stroke="#569ad8" stroke-width="2" stroke-dasharray="5,2" d="M64,-108C64,-108 12,-108 12,-108 6,-108 0,-102 0,-96 0,-96 0,-84 0,-84 0,-78 6,-72 12,-72 12,-72 64,-72 64,-72 70,-72 76,-78 76,-84 76,-84 76,-96 76,-96 76,-102 70,-108 64,-108"/>
<text text-anchor="middle" x="38" y="-87.5" font-family="sans" font-size="10.00">dependency</text>
</g>
<!-- 1&#45;&gt;0 -->
<g id="edge1" class="edge">
<title>1&#45;&gt;0</title>
<path fill="none" stroke="grey" stroke-width="2" d="M49.12,-71.7C54.36,-63.56 60.7,-53.69 66.48,-44.7"/>
<polygon fill="grey" stroke="grey" stroke-width="2" points="69.54,-46.41 72,-36.1 63.65,-42.62 69.54,-46.41"/>
</g>
<!-- 2 -->
<g id="node3" class="node">
<title>2</title>
<path fill="none" stroke="#d6d856" stroke-width="2" d="M150,-108C150,-108 106,-108 106,-108 100,-108 94,-102 94,-96 94,-96 94,-84 94,-84 94,-78 100,-72 106,-72 106,-72 150,-72 150,-72 156,-72 162,-78 162,-84 162,-84 162,-96 162,-96 162,-102 156,-108 150,-108"/>
<text text-anchor="middle" x="128" y="-87.5" font-family="sans" font-size="10.00">evaluation</text>
</g>
<!-- 2&#45;&gt;0 -->
<g id="edge2" class="edge">
<title>2&#45;&gt;0</title>
<path fill="none" stroke="grey" stroke-width="2" d="M116.88,-71.7C111.64,-63.56 105.3,-53.69 99.52,-44.7"/>
<polygon fill="grey" stroke="grey" stroke-width="2" points="102.35,-42.62 94,-36.1 96.46,-46.41 102.35,-42.62"/>
</g>
<!-- 3 -->
<g id="node4" class="node">
<title>3</title>
<path fill="none" stroke="#59d856" stroke-width="2" d="M165,-180C165,-180 91,-180 91,-180 85,-180 79,-174 79,-168 79,-168 79,-156 79,-156 79,-150 85,-144 91,-144 91,-144 165,-144 165,-144 171,-144 177,-150 177,-156 177,-156 177,-168 177,-168 177,-174 171,-180 165,-180"/>
<text text-anchor="middle" x="128" y="-159.5" font-family="sans" font-size="10.00">predict_circDeep</text>
</g>
<!-- 3&#45;&gt;2 -->
<g id="edge3" class="edge">
<title>3&#45;&gt;2</title>
<path fill="none" stroke="grey" stroke-width="2" d="M128,-143.7C128,-135.98 128,-126.71 128,-118.11"/>
<polygon fill="grey" stroke="grey" stroke-width="2" points="131.5,-118.1 128,-108.1 124.5,-118.1 131.5,-118.1"/>
</g>
<!-- 4 -->
<g id="node5" class="node">
<title>4</title>
<path fill="none" stroke="#b6d856" stroke-width="2" stroke-dasharray="5,2" d="M113.5,-324C113.5,-324 44.5,-324 44.5,-324 38.5,-324 32.5,-318 32.5,-312 32.5,-312 32.5,-300 32.5,-300 32.5,-294 38.5,-288 44.5,-288 44.5,-288 113.5,-288 113.5,-288 119.5,-288 125.5,-294 125.5,-300 125.5,-300 125.5,-312 125.5,-312 125.5,-318 119.5,-324 113.5,-324"/>
<text text-anchor="middle" x="79" y="-309" font-family="sans" font-size="10.00">get_phastCons</text>
<text text-anchor="middle" x="79" y="-298" font-family="sans" font-size="10.00">assembly: hg38</text>
</g>
<!-- 4&#45;&gt;3 -->
<g id="edge4" class="edge">
<title>4&#45;&gt;3</title>
<path fill="none" stroke="grey" stroke-width="2" d="M84.91,-287.87C93.3,-263.56 108.74,-218.82 118.68,-190.01"/>
<polygon fill="grey" stroke="grey" stroke-width="2" points="122.12,-190.78 122.07,-180.19 115.5,-188.5 122.12,-190.78"/>
</g>
<!-- 9 -->
<g id="node10" class="node">
<title>9</title>
<path fill="none" stroke="#d87556" stroke-width="2" d="M272,-252C272,-252 168,-252 168,-252 162,-252 156,-246 156,-240 156,-240 156,-228 156,-228 156,-222 162,-216 168,-216 168,-216 272,-216 272,-216 278,-216 284,-222 284,-228 284,-228 284,-240 284,-240 284,-246 278,-252 272,-252"/>
<text text-anchor="middle" x="220" y="-237" font-family="sans" font-size="10.00">train_circDeep</text>
<text text-anchor="middle" x="220" y="-226" font-family="sans" font-size="10.00">source: Chaabane2020</text>
</g>
<!-- 4&#45;&gt;9 -->
<g id="edge11" class="edge">
<title>4&#45;&gt;9</title>
<path fill="none" stroke="grey" stroke-width="2" d="M113.49,-287.88C132.44,-278.47 156.13,-266.71 176.36,-256.67"/>
<polygon fill="grey" stroke="grey" stroke-width="2" points="177.97,-259.77 185.37,-252.19 174.86,-253.5 177.97,-259.77"/>
</g>
<!-- 5 -->
<g id="node6" class="node">
<title>5</title>
<path fill="none" stroke="#d8b456" stroke-width="2" stroke-dasharray="5,2" d="M219.5,-396C219.5,-396 150.5,-396 150.5,-396 144.5,-396 138.5,-390 138.5,-384 138.5,-384 138.5,-372 138.5,-372 138.5,-366 144.5,-360 150.5,-360 150.5,-360 219.5,-360 219.5,-360 225.5,-360 231.5,-366 231.5,-372 231.5,-372 231.5,-384 231.5,-384 231.5,-390 225.5,-396 219.5,-396"/>
<text text-anchor="middle" x="185" y="-381" font-family="sans" font-size="10.00">genomepy</text>
<text text-anchor="middle" x="185" y="-370" font-family="sans" font-size="10.00">assembly: hg38</text>
</g>
<!-- 5&#45;&gt;3 -->
<g id="edge5" class="edge">
<title>5&#45;&gt;3</title>
<path fill="none" stroke="grey" stroke-width="2" d="M138.46,-375.79C100.54,-372.04 49.14,-360.06 23,-324 -11.61,-276.26 51.6,-217.71 94.07,-186.02"/>
<polygon fill="grey" stroke="grey" stroke-width="2" points="96.23,-188.78 102.25,-180.06 92.11,-183.12 96.23,-188.78"/>
</g>
<!-- 6 -->
<g id="node7" class="node">
<title>6</title>
<path fill="none" stroke="#567bd8" stroke-width="2" stroke-dasharray="5,2" d="M214,-324C214,-324 156,-324 156,-324 150,-324 144,-318 144,-312 144,-312 144,-300 144,-300 144,-294 150,-288 156,-288 156,-288 214,-288 214,-288 220,-288 226,-294 226,-300 226,-300 226,-312 226,-312 226,-318 220,-324 214,-324"/>
<text text-anchor="middle" x="185" y="-303.5" font-family="sans" font-size="10.00">canonical_gtf</text>
</g>
<!-- 5&#45;&gt;6 -->
<g id="edge9" class="edge">
<title>5&#45;&gt;6</title>
<path fill="none" stroke="grey" stroke-width="2" d="M185,-359.7C185,-351.98 185,-342.71 185,-334.11"/>
<polygon fill="grey" stroke="grey" stroke-width="2" points="188.5,-334.1 185,-324.1 181.5,-334.1 188.5,-334.1"/>
</g>
<!-- 5&#45;&gt;9 -->
<g id="edge12" class="edge">
<title>5&#45;&gt;9</title>
<path fill="none" stroke="grey" stroke-width="2" d="M207.6,-359.96C218.06,-350.63 229.4,-338.11 235,-324 242.96,-303.97 238.03,-279.78 231.78,-261.67"/>
<polygon fill="grey" stroke="grey" stroke-width="2" points="235.04,-260.42 228.23,-252.31 228.5,-262.9 235.04,-260.42"/>
</g>
<!-- 6&#45;&gt;3 -->
<g id="edge6" class="edge">
<title>6&#45;&gt;3</title>
<path fill="none" stroke="grey" stroke-width="2" d="M170.02,-287.97C162.06,-278.09 152.77,-265.05 147,-252 138.28,-232.28 133.46,-208.3 130.86,-190.2"/>
<polygon fill="grey" stroke="grey" stroke-width="2" points="134.3,-189.51 129.54,-180.04 127.36,-190.41 134.3,-189.51"/>
</g>
<!-- 6&#45;&gt;9 -->
<g id="edge13" class="edge">
<title>6&#45;&gt;9</title>
<path fill="none" stroke="grey" stroke-width="2" d="M193.65,-287.7C197.64,-279.73 202.45,-270.1 206.87,-261.26"/>
<polygon fill="grey" stroke="grey" stroke-width="2" points="210.11,-262.61 211.45,-252.1 203.85,-259.48 210.11,-262.61"/>
</g>
<!-- 7 -->
<g id="node8" class="node">
<title>7</title>
<path fill="none" stroke="#78d856" stroke-width="2" d="M356,-252C356,-252 318,-252 318,-252 312,-252 306,-246 306,-240 306,-240 306,-228 306,-228 306,-222 312,-216 318,-216 318,-216 356,-216 356,-216 362,-216 368,-222 368,-228 368,-228 368,-240 368,-240 368,-246 362,-252 356,-252"/>
<text text-anchor="middle" x="337" y="-231.5" font-family="sans" font-size="10.00">data_dev</text>
</g>
<!-- 7&#45;&gt;3 -->
<g id="edge7" class="edge">
<title>7&#45;&gt;3</title>
<path fill="none" stroke="grey" stroke-width="2" d="M305.84,-220.7C301.54,-219.08 297.17,-217.47 293,-216 258.19,-203.7 218.84,-191.01 187.29,-181.13"/>
<polygon fill="grey" stroke="grey" stroke-width="2" points="187.93,-177.67 177.34,-178.03 185.85,-184.35 187.93,-177.67"/>
</g>
<!-- 8 -->
<g id="node9" class="node">
<title>8</title>
<path fill="none" stroke="#d85656" stroke-width="2" d="M386,-324C386,-324 294,-324 294,-324 288,-324 282,-318 282,-312 282,-312 282,-300 282,-300 282,-294 288,-288 294,-288 294,-288 386,-288 386,-288 392,-288 398,-294 398,-300 398,-300 398,-312 398,-312 398,-318 392,-324 386,-324"/>
<text text-anchor="middle" x="340" y="-303.5" font-family="sans" font-size="10.00">data_Chaabane2020</text>
</g>
<!-- 8&#45;&gt;7 -->
<g id="edge10" class="edge">
<title>8&#45;&gt;7</title>
<path fill="none" stroke="grey" stroke-width="2" d="M339.26,-287.7C338.93,-279.98 338.53,-270.71 338.16,-262.11"/>
<polygon fill="grey" stroke="grey" stroke-width="2" points="341.66,-261.95 337.73,-252.1 334.66,-262.25 341.66,-261.95"/>
</g>
<!-- 8&#45;&gt;9 -->
<g id="edge14" class="edge">
<title>8&#45;&gt;9</title>
<path fill="none" stroke="grey" stroke-width="2" d="M310.64,-287.88C294.95,-278.72 275.44,-267.34 258.55,-257.48"/>
<polygon fill="grey" stroke="grey" stroke-width="2" points="259.87,-254.21 249.47,-252.19 256.34,-260.25 259.87,-254.21"/>
</g>
<!-- 9&#45;&gt;3 -->
<g id="edge8" class="edge">
<title>9&#45;&gt;3</title>
<path fill="none" stroke="grey" stroke-width="2" d="M197.26,-215.7C185.56,-206.8 171.14,-195.82 158.49,-186.2"/>
<polygon fill="grey" stroke="grey" stroke-width="2" points="160.56,-183.37 150.48,-180.1 156.32,-188.94 160.56,-183.37"/>
</g>
</g>
</svg>
