<?xml version="1.0" encoding="UTF-8" standalone="no"?>
<!DOCTYPE svg PUBLIC "-//W3C//DTD SVG 1.1//EN"
 "http://www.w3.org/Graphics/SVG/1.1/DTD/svg11.dtd">
<!-- Generated by graphviz version 2.47.2 (20210527.1257)
 -->
<!-- Title: snakemake_dag Pages: 1 -->
<svg width="191pt" height="404pt"
 viewBox="0.00 0.00 191.00 404.00" xmlns="http://www.w3.org/2000/svg" xmlns:xlink="http://www.w3.org/1999/xlink">
<g id="graph0" class="graph" transform="scale(1 1) rotate(0) translate(4 400)">
<title>snakemake_dag</title>
<polygon fill="white" stroke="transparent" points="-4,4 -4,-400 187,-400 187,4 -4,4"/>
<!-- 0 -->
<g id="node1" class="node">
<title>0</title>
<path fill="none" stroke="#d85656" stroke-width="2" d="M98,-36C98,-36 68,-36 68,-36 62,-36 56,-30 56,-24 56,-24 56,-12 56,-12 56,-6 62,0 68,0 68,0 98,0 98,0 104,0 110,-6 110,-12 110,-12 110,-24 110,-24 110,-30 104,-36 98,-36"/>
<text text-anchor="middle" x="83" y="-15.5" font-family="sans" font-size="10.00">all</text>
</g>
<!-- 1 -->
<g id="node2" class="node">
<title>1</title>
<path fill="none" stroke="#569ad8" stroke-width="2" d="M64,-108C64,-108 12,-108 12,-108 6,-108 0,-102 0,-96 0,-96 0,-84 0,-84 0,-78 6,-72 12,-72 12,-72 64,-72 64,-72 70,-72 76,-78 76,-84 76,-84 76,-96 76,-96 76,-102 70,-108 64,-108"/>
<text text-anchor="middle" x="38" y="-87.5" font-family="sans" font-size="10.00">dependency</text>
</g>
<!-- 1&#45;&gt;0 -->
<g id="edge1" class="edge">
<title>1&#45;&gt;0</title>
<path fill="none" stroke="grey" stroke-width="2" d="M49.12,-71.7C54.36,-63.56 60.7,-53.69 66.48,-44.7"/>
<polygon fill="grey" stroke="grey" stroke-width="2" points="69.54,-46.41 72,-36.1 63.65,-42.62 69.54,-46.41"/>
</g>
<!-- 2 -->
<g id="node3" class="node">
<title>2</title>
<path fill="none" stroke="#59d856" stroke-width="2" d="M150,-108C150,-108 106,-108 106,-108 100,-108 94,-102 94,-96 94,-96 94,-84 94,-84 94,-78 100,-72 106,-72 106,-72 150,-72 150,-72 156,-72 162,-78 162,-84 162,-84 162,-96 162,-96 162,-102 156,-108 150,-108"/>
<text text-anchor="middle" x="128" y="-87.5" font-family="sans" font-size="10.00">evaluation</text>
</g>
<!-- 2&#45;&gt;0 -->
<g id="edge2" class="edge">
<title>2&#45;&gt;0</title>
<path fill="none" stroke="grey" stroke-width="2" d="M116.88,-71.7C111.64,-63.56 105.3,-53.69 99.52,-44.7"/>
<polygon fill="grey" stroke="grey" stroke-width="2" points="102.35,-42.62 94,-36.1 96.46,-46.41 102.35,-42.62"/>
</g>
<!-- 3 -->
<g id="node4" class="node">
<title>3</title>
<path fill="none" stroke="#97d856" stroke-width="2" d="M143,-180C143,-180 113,-180 113,-180 107,-180 101,-174 101,-168 101,-168 101,-156 101,-156 101,-150 107,-144 113,-144 113,-144 143,-144 143,-144 149,-144 155,-150 155,-156 155,-156 155,-168 155,-168 155,-174 149,-180 143,-180"/>
<text text-anchor="middle" x="128" y="-159.5" font-family="sans" font-size="10.00">predict</text>
</g>
<!-- 3&#45;&gt;2 -->
<g id="edge3" class="edge">
<title>3&#45;&gt;2</title>
<path fill="none" stroke="grey" stroke-width="2" d="M128,-143.7C128,-135.98 128,-126.71 128,-118.11"/>
<polygon fill="grey" stroke="grey" stroke-width="2" points="131.5,-118.1 128,-108.1 124.5,-118.1 131.5,-118.1"/>
</g>
<!-- 4 -->
<g id="node5" class="node">
<title>4</title>
<path fill="none" stroke="#d89556" stroke-width="2" d="M171,-252C171,-252 141,-252 141,-252 135,-252 129,-246 129,-240 129,-240 129,-228 129,-228 129,-222 135,-216 141,-216 141,-216 171,-216 171,-216 177,-216 183,-222 183,-228 183,-228 183,-240 183,-240 183,-246 177,-252 171,-252"/>
<text text-anchor="middle" x="156" y="-231.5" font-family="sans" font-size="10.00">train</text>
</g>
<!-- 4&#45;&gt;3 -->
<g id="edge4" class="edge">
<title>4&#45;&gt;3</title>
<path fill="none" stroke="grey" stroke-width="2" d="M149.08,-215.7C145.93,-207.81 142.12,-198.3 138.62,-189.55"/>
<polygon fill="grey" stroke="grey" stroke-width="2" points="141.81,-188.09 134.84,-180.1 135.31,-190.69 141.81,-188.09"/>
</g>
<!-- 5 -->
<g id="node6" class="node">
<title>5</title>
<path fill="none" stroke="#56d8d8" stroke-width="2" d="M160.5,-324C160.5,-324 95.5,-324 95.5,-324 89.5,-324 83.5,-318 83.5,-312 83.5,-312 83.5,-300 83.5,-300 83.5,-294 89.5,-288 95.5,-288 95.5,-288 160.5,-288 160.5,-288 166.5,-288 172.5,-294 172.5,-300 172.5,-300 172.5,-312 172.5,-312 172.5,-318 166.5,-324 160.5,-324"/>
<text text-anchor="middle" x="128" y="-303.5" font-family="sans" font-size="10.00">split_train_test</text>
</g>
<!-- 5&#45;&gt;3 -->
<g id="edge5" class="edge">
<title>5&#45;&gt;3</title>
<path fill="none" stroke="grey" stroke-width="2" d="M124.75,-287.89C122.95,-277.54 120.91,-264.06 120,-252 118.8,-236.04 118.8,-231.96 120,-216 120.64,-207.52 121.84,-198.34 123.12,-190.04"/>
<polygon fill="grey" stroke="grey" stroke-width="2" points="126.58,-190.55 124.75,-180.11 119.68,-189.41 126.58,-190.55"/>
</g>
<!-- 5&#45;&gt;4 -->
<g id="edge6" class="edge">
<title>5&#45;&gt;4</title>
<path fill="none" stroke="grey" stroke-width="2" d="M134.92,-287.7C138.07,-279.81 141.88,-270.3 145.38,-261.55"/>
<polygon fill="grey" stroke="grey" stroke-width="2" points="148.69,-262.69 149.16,-252.1 142.19,-260.09 148.69,-262.69"/>
</g>
<!-- 6 -->
<g id="node7" class="node">
<title>6</title>
<path fill="none" stroke="#d6d856" stroke-width="2" d="M165,-396C165,-396 91,-396 91,-396 85,-396 79,-390 79,-384 79,-384 79,-372 79,-372 79,-366 85,-360 91,-360 91,-360 165,-360 165,-360 171,-360 177,-366 177,-372 177,-372 177,-384 177,-384 177,-390 171,-396 165,-396"/>
<text text-anchor="middle" x="128" y="-375.5" font-family="sans" font-size="10.00">extract_circBase</text>
</g>
<!-- 6&#45;&gt;5 -->
<g id="edge7" class="edge">
<title>6&#45;&gt;5</title>
<path fill="none" stroke="grey" stroke-width="2" d="M128,-359.7C128,-351.98 128,-342.71 128,-334.11"/>
<polygon fill="grey" stroke="grey" stroke-width="2" points="131.5,-334.1 128,-324.1 124.5,-334.1 131.5,-334.1"/>
</g>
</g>
</svg>
