<?xml version="1.0" encoding="UTF-8" standalone="no"?>
<!DOCTYPE svg PUBLIC "-//W3C//DTD SVG 1.1//EN"
 "http://www.w3.org/Graphics/SVG/1.1/DTD/svg11.dtd">
<!-- Generated by graphviz version 2.47.2 (20210527.1257)
 -->
<!-- Title: snakemake_dag Pages: 1 -->
<svg width="629pt" height="647pt"
 viewBox="0.00 0.00 628.62 647.00" xmlns="http://www.w3.org/2000/svg" xmlns:xlink="http://www.w3.org/1999/xlink">
<g id="graph0" class="graph" transform="scale(1 1) rotate(0) translate(4 643)">
<title>snakemake_dag</title>
<polygon fill="white" stroke="transparent" points="-4,4 -4,-643 624.62,-643 624.62,4 -4,4"/>
<!-- 0 -->
<g id="node1" class="node">
<title>0</title>
<path fill="none" stroke="#c6d856" stroke-width="2" d="M331.91,-36C331.91,-36 301.91,-36 301.91,-36 295.91,-36 289.91,-30 289.91,-24 289.91,-24 289.91,-12 289.91,-12 289.91,-6 295.91,0 301.91,0 301.91,0 331.91,0 331.91,0 337.91,0 343.91,-6 343.91,-12 343.91,-12 343.91,-24 343.91,-24 343.91,-30 337.91,-36 331.91,-36"/>
<text text-anchor="middle" x="316.91" y="-15.5" font-family="sans" font-size="10.00">all</text>
</g>
<!-- 1 -->
<g id="node2" class="node">
<title>1</title>
<path fill="none" stroke="#56d86b" stroke-width="2" stroke-dasharray="5,2" d="M297.91,-108C297.91,-108 245.91,-108 245.91,-108 239.91,-108 233.91,-102 233.91,-96 233.91,-96 233.91,-84 233.91,-84 233.91,-78 239.91,-72 245.91,-72 245.91,-72 297.91,-72 297.91,-72 303.91,-72 309.91,-78 309.91,-84 309.91,-84 309.91,-96 309.91,-96 309.91,-102 303.91,-108 297.91,-108"/>
<text text-anchor="middle" x="271.91" y="-87.5" font-family="sans" font-size="10.00">dependency</text>
</g>
<!-- 1&#45;&gt;0 -->
<g id="edge1" class="edge">
<title>1&#45;&gt;0</title>
<path fill="none" stroke="grey" stroke-width="2" d="M283.04,-71.7C288.27,-63.56 294.61,-53.69 300.39,-44.7"/>
<polygon fill="grey" stroke="grey" stroke-width="2" points="303.45,-46.41 305.92,-36.1 297.57,-42.62 303.45,-46.41"/>
</g>
<!-- 2 -->
<g id="node3" class="node">
<title>2</title>
<path fill="none" stroke="#78d856" stroke-width="2" d="M383.91,-108C383.91,-108 339.91,-108 339.91,-108 333.91,-108 327.91,-102 327.91,-96 327.91,-96 327.91,-84 327.91,-84 327.91,-78 333.91,-72 339.91,-72 339.91,-72 383.91,-72 383.91,-72 389.91,-72 395.91,-78 395.91,-84 395.91,-84 395.91,-96 395.91,-96 395.91,-102 389.91,-108 383.91,-108"/>
<text text-anchor="middle" x="361.91" y="-87.5" font-family="sans" font-size="10.00">evaluation</text>
</g>
<!-- 2&#45;&gt;0 -->
<g id="edge2" class="edge">
<title>2&#45;&gt;0</title>
<path fill="none" stroke="grey" stroke-width="2" d="M350.79,-71.7C345.56,-63.56 339.21,-53.69 333.44,-44.7"/>
<polygon fill="grey" stroke="grey" stroke-width="2" points="336.26,-42.62 327.91,-36.1 330.37,-46.41 336.26,-42.62"/>
</g>
<!-- 3 -->
<g id="node4" class="node">
<title>3</title>
<path fill="none" stroke="#68d856" stroke-width="2" d="M409.91,-180C409.91,-180 379.91,-180 379.91,-180 373.91,-180 367.91,-174 367.91,-168 367.91,-168 367.91,-156 367.91,-156 367.91,-150 373.91,-144 379.91,-144 379.91,-144 409.91,-144 409.91,-144 415.91,-144 421.91,-150 421.91,-156 421.91,-156 421.91,-168 421.91,-168 421.91,-174 415.91,-180 409.91,-180"/>
<text text-anchor="middle" x="394.91" y="-159.5" font-family="sans" font-size="10.00">test_RF</text>
</g>
<!-- 3&#45;&gt;2 -->
<g id="edge3" class="edge">
<title>3&#45;&gt;2</title>
<path fill="none" stroke="grey" stroke-width="2" d="M386.76,-143.7C383,-135.73 378.46,-126.1 374.29,-117.26"/>
<polygon fill="grey" stroke="grey" stroke-width="2" points="377.41,-115.66 369.98,-108.1 371.08,-118.64 377.41,-115.66"/>
</g>
<!-- 4 -->
<g id="node5" class="node">
<title>4</title>
<path fill="none" stroke="#56d8a2" stroke-width="2" d="M492.41,-252C492.41,-252 459.41,-252 459.41,-252 453.41,-252 447.41,-246 447.41,-240 447.41,-240 447.41,-228 447.41,-228 447.41,-222 453.41,-216 459.41,-216 459.41,-216 492.41,-216 492.41,-216 498.41,-216 504.41,-222 504.41,-228 504.41,-228 504.41,-240 504.41,-240 504.41,-246 498.41,-252 492.41,-252"/>
<text text-anchor="middle" x="475.91" y="-231.5" font-family="sans" font-size="10.00">train_RF</text>
</g>
<!-- 4&#45;&gt;3 -->
<g id="edge5" class="edge">
<title>4&#45;&gt;3</title>
<path fill="none" stroke="grey" stroke-width="2" d="M455.89,-215.7C445.79,-206.97 433.38,-196.24 422.4,-186.75"/>
<polygon fill="grey" stroke="grey" stroke-width="2" points="424.56,-183.99 414.71,-180.1 419.98,-189.29 424.56,-183.99"/>
</g>
<!-- 5 -->
<g id="node6" class="node">
<title>5</title>
<path fill="none" stroke="#566bd8" stroke-width="2" d="M500.91,-324C500.91,-324 422.91,-324 422.91,-324 416.91,-324 410.91,-318 410.91,-312 410.91,-312 410.91,-300 410.91,-300 410.91,-294 416.91,-288 422.91,-288 422.91,-288 500.91,-288 500.91,-288 506.91,-288 512.91,-294 512.91,-300 512.91,-300 512.91,-312 512.91,-312 512.91,-318 506.91,-324 500.91,-324"/>
<text text-anchor="middle" x="461.91" y="-303.5" font-family="sans" font-size="10.00">SVM_RF_features</text>
</g>
<!-- 5&#45;&gt;3 -->
<g id="edge6" class="edge">
<title>5&#45;&gt;3</title>
<path fill="none" stroke="grey" stroke-width="2" d="M453.83,-287.87C442.26,-263.35 420.88,-218.03 407.3,-189.26"/>
<polygon fill="grey" stroke="grey" stroke-width="2" points="410.46,-187.74 403.02,-180.19 404.13,-190.73 410.46,-187.74"/>
</g>
<!-- 5&#45;&gt;4 -->
<g id="edge8" class="edge">
<title>5&#45;&gt;4</title>
<path fill="none" stroke="grey" stroke-width="2" d="M465.37,-287.7C466.92,-279.98 468.77,-270.71 470.49,-262.11"/>
<polygon fill="grey" stroke="grey" stroke-width="2" points="473.96,-262.6 472.49,-252.1 467.1,-261.22 473.96,-262.6"/>
</g>
<!-- 6 -->
<g id="node7" class="node">
<title>6</title>
<path fill="none" stroke="#d6d856" stroke-width="2" stroke-dasharray="5,2" d="M442.41,-409.5C442.41,-409.5 319.41,-409.5 319.41,-409.5 313.41,-409.5 307.41,-403.5 307.41,-397.5 307.41,-397.5 307.41,-385.5 307.41,-385.5 307.41,-379.5 313.41,-373.5 319.41,-373.5 319.41,-373.5 442.41,-373.5 442.41,-373.5 448.41,-373.5 454.41,-379.5 454.41,-385.5 454.41,-385.5 454.41,-397.5 454.41,-397.5 454.41,-403.5 448.41,-409.5 442.41,-409.5"/>
<text text-anchor="middle" x="380.91" y="-389" font-family="sans" font-size="10.00">extract_DeepCirCode_data</text>
</g>
<!-- 6&#45;&gt;3 -->
<g id="edge7" class="edge">
<title>6&#45;&gt;3</title>
<path fill="none" stroke="grey" stroke-width="2" d="M381.97,-373.4C384.37,-334.29 390.3,-238.01 393.22,-190.47"/>
<polygon fill="grey" stroke="grey" stroke-width="2" points="396.73,-190.49 393.85,-180.3 389.74,-190.06 396.73,-190.49"/>
</g>
<!-- 6&#45;&gt;5 -->
<g id="edge10" class="edge">
<title>6&#45;&gt;5</title>
<path fill="none" stroke="grey" stroke-width="2" d="M397.7,-373.2C409.32,-361.22 424.96,-345.09 437.9,-331.76"/>
<polygon fill="grey" stroke="grey" stroke-width="2" points="440.7,-333.89 445.15,-324.28 435.68,-329.02 440.7,-333.89"/>
</g>
<!-- 7 -->
<g id="node8" class="node">
<title>7</title>
<path fill="none" stroke="#d86656" stroke-width="2" stroke-dasharray="5,2" d="M278.91,-639C278.91,-639 198.91,-639 198.91,-639 192.91,-639 186.91,-633 186.91,-627 186.91,-627 186.91,-615 186.91,-615 186.91,-609 192.91,-603 198.91,-603 198.91,-603 278.91,-603 278.91,-603 284.91,-603 290.91,-609 290.91,-615 290.91,-615 290.91,-627 290.91,-627 290.91,-633 284.91,-639 278.91,-639"/>
<text text-anchor="middle" x="238.91" y="-618.5" font-family="sans" font-size="10.00">data_DiLiddo2019</text>
</g>
<!-- 7&#45;&gt;6 -->
<g id="edge12" class="edge">
<title>7&#45;&gt;6</title>
<path fill="none" stroke="grey" stroke-width="2" d="M186.75,-606.2C103.14,-581.67 -45.71,-526.66 13.91,-459 55.97,-411.27 236.11,-438.07 297.91,-423 308.65,-420.38 319.91,-416.83 330.55,-413.07"/>
<polygon fill="grey" stroke="grey" stroke-width="2" points="331.92,-416.29 340.11,-409.58 329.52,-409.72 331.92,-416.29"/>
</g>
<!-- 8 -->
<g id="node9" class="node">
<title>8</title>
<path fill="none" stroke="#d8a456" stroke-width="2" stroke-dasharray="5,2" d="M460.91,-495C460.91,-495 368.91,-495 368.91,-495 362.91,-495 356.91,-489 356.91,-483 356.91,-483 356.91,-471 356.91,-471 356.91,-465 362.91,-459 368.91,-459 368.91,-459 460.91,-459 460.91,-459 466.91,-459 472.91,-465 472.91,-471 472.91,-471 472.91,-483 472.91,-483 472.91,-489 466.91,-495 460.91,-495"/>
<text text-anchor="middle" x="414.91" y="-480" font-family="sans" font-size="10.00">get_linear_junctions</text>
<text text-anchor="middle" x="414.91" y="-469" font-family="sans" font-size="10.00">source: DiLiddo2019</text>
</g>
<!-- 7&#45;&gt;8 -->
<g id="edge16" class="edge">
<title>7&#45;&gt;8</title>
<path fill="none" stroke="grey" stroke-width="2" d="M288.35,-602.96C309.08,-594.28 332.57,-582.29 350.91,-567 372.02,-549.41 389.68,-523.35 401.06,-503.97"/>
<polygon fill="grey" stroke="grey" stroke-width="2" points="404.23,-505.49 406.13,-495.06 398.14,-502.02 404.23,-505.49"/>
</g>
<!-- 12 -->
<g id="node13" class="node">
<title>12</title>
<path fill="none" stroke="#56d88a" stroke-width="2" stroke-dasharray="5,2" d="M535.41,-567C535.41,-567 464.41,-567 464.41,-567 458.41,-567 452.41,-561 452.41,-555 452.41,-555 452.41,-543 452.41,-543 452.41,-537 458.41,-531 464.41,-531 464.41,-531 535.41,-531 535.41,-531 541.41,-531 547.41,-537 547.41,-543 547.41,-543 547.41,-555 547.41,-555 547.41,-561 541.41,-567 535.41,-567"/>
<text text-anchor="middle" x="499.91" y="-546.5" font-family="sans" font-size="10.00">data_Wang2019</text>
</g>
<!-- 7&#45;&gt;12 -->
<g id="edge20" class="edge">
<title>7&#45;&gt;12</title>
<path fill="none" stroke="grey" stroke-width="2" d="M291.1,-606C334.81,-594.28 397.1,-577.57 442.27,-565.46"/>
<polygon fill="grey" stroke="grey" stroke-width="2" points="443.46,-568.77 452.21,-562.79 441.64,-562 443.46,-568.77"/>
</g>
<!-- 19 -->
<g id="node20" class="node">
<title>19</title>
<path fill="none" stroke="#d88d56" stroke-width="2" stroke-dasharray="5,2" d="M126.91,-495C126.91,-495 34.91,-495 34.91,-495 28.91,-495 22.91,-489 22.91,-483 22.91,-483 22.91,-471 22.91,-471 22.91,-465 28.91,-459 34.91,-459 34.91,-459 126.91,-459 126.91,-459 132.91,-459 138.91,-465 138.91,-471 138.91,-471 138.91,-483 138.91,-483 138.91,-489 132.91,-495 126.91,-495"/>
<text text-anchor="middle" x="80.91" y="-480" font-family="sans" font-size="10.00">extract_data_JEDI</text>
<text text-anchor="middle" x="80.91" y="-469" font-family="sans" font-size="10.00">source: DiLiddo2019</text>
</g>
<!-- 7&#45;&gt;19 -->
<g id="edge31" class="edge">
<title>7&#45;&gt;19</title>
<path fill="none" stroke="grey" stroke-width="2" d="M190.66,-602.93C171.12,-594.33 149.35,-582.4 132.91,-567 114.23,-549.5 100.19,-523.76 91.44,-504.46"/>
<polygon fill="grey" stroke="grey" stroke-width="2" points="94.54,-502.81 87.35,-495.03 88.12,-505.6 94.54,-502.81"/>
</g>
<!-- 8&#45;&gt;6 -->
<g id="edge13" class="edge">
<title>8&#45;&gt;6</title>
<path fill="none" stroke="grey" stroke-width="2" d="M407.87,-458.7C403.22,-447.28 397.03,-432.09 391.76,-419.14"/>
<polygon fill="grey" stroke="grey" stroke-width="2" points="394.96,-417.72 387.95,-409.78 388.48,-420.36 394.96,-417.72"/>
</g>
<!-- 9 -->
<g id="node10" class="node">
<title>9</title>
<path fill="none" stroke="#d85656" stroke-width="2" stroke-dasharray="5,2" d="M329.91,-567C329.91,-567 271.91,-567 271.91,-567 265.91,-567 259.91,-561 259.91,-555 259.91,-555 259.91,-543 259.91,-543 259.91,-537 265.91,-531 271.91,-531 271.91,-531 329.91,-531 329.91,-531 335.91,-531 341.91,-537 341.91,-543 341.91,-543 341.91,-555 341.91,-555 341.91,-561 335.91,-567 329.91,-567"/>
<text text-anchor="middle" x="300.91" y="-546.5" font-family="sans" font-size="10.00">canonical_gtf</text>
</g>
<!-- 9&#45;&gt;8 -->
<g id="edge15" class="edge">
<title>9&#45;&gt;8</title>
<path fill="none" stroke="grey" stroke-width="2" d="M328.8,-530.88C343.71,-521.72 362.24,-510.34 378.29,-500.48"/>
<polygon fill="grey" stroke="grey" stroke-width="2" points="380.23,-503.41 386.92,-495.19 376.57,-497.44 380.23,-503.41"/>
</g>
<!-- 14 -->
<g id="node15" class="node">
<title>14</title>
<path fill="none" stroke="#d8a456" stroke-width="2" stroke-dasharray="5,2" d="M594.41,-495C594.41,-495 503.41,-495 503.41,-495 497.41,-495 491.41,-489 491.41,-483 491.41,-483 491.41,-471 491.41,-471 491.41,-465 497.41,-459 503.41,-459 503.41,-459 594.41,-459 594.41,-459 600.41,-459 606.41,-465 606.41,-471 606.41,-471 606.41,-483 606.41,-483 606.41,-489 600.41,-495 594.41,-495"/>
<text text-anchor="middle" x="548.91" y="-480" font-family="sans" font-size="10.00">get_linear_junctions</text>
<text text-anchor="middle" x="548.91" y="-469" font-family="sans" font-size="10.00">source: Wang2019</text>
</g>
<!-- 9&#45;&gt;14 -->
<g id="edge22" class="edge">
<title>9&#45;&gt;14</title>
<path fill="none" stroke="grey" stroke-width="2" d="M342.14,-536.36C380.05,-525.66 436.94,-509.61 481.46,-497.04"/>
<polygon fill="grey" stroke="grey" stroke-width="2" points="482.66,-500.34 491.33,-494.25 480.76,-493.6 482.66,-500.34"/>
</g>
<!-- 17 -->
<g id="node18" class="node">
<title>17</title>
<path fill="none" stroke="#d88d56" stroke-width="2" stroke-dasharray="5,2" d="M326.91,-495C326.91,-495 244.91,-495 244.91,-495 238.91,-495 232.91,-489 232.91,-483 232.91,-483 232.91,-471 232.91,-471 232.91,-465 238.91,-459 244.91,-459 244.91,-459 326.91,-459 326.91,-459 332.91,-459 338.91,-465 338.91,-471 338.91,-471 338.91,-483 338.91,-483 338.91,-489 332.91,-495 326.91,-495"/>
<text text-anchor="middle" x="285.91" y="-480" font-family="sans" font-size="10.00">extract_data_JEDI</text>
<text text-anchor="middle" x="285.91" y="-469" font-family="sans" font-size="10.00">source: Wang2019</text>
</g>
<!-- 9&#45;&gt;17 -->
<g id="edge28" class="edge">
<title>9&#45;&gt;17</title>
<path fill="none" stroke="grey" stroke-width="2" d="M297.21,-530.7C295.55,-522.98 293.57,-513.71 291.72,-505.11"/>
<polygon fill="grey" stroke="grey" stroke-width="2" points="295.1,-504.15 289.58,-495.1 288.25,-505.62 295.1,-504.15"/>
</g>
<!-- 9&#45;&gt;19 -->
<g id="edge32" class="edge">
<title>9&#45;&gt;19</title>
<path fill="none" stroke="grey" stroke-width="2" d="M259.79,-534.92C227.37,-524.6 181.59,-510.03 144.46,-498.22"/>
<polygon fill="grey" stroke="grey" stroke-width="2" points="145.32,-494.82 134.72,-495.12 143.19,-501.49 145.32,-494.82"/>
</g>
<!-- 10 -->
<g id="node11" class="node">
<title>10</title>
<path fill="none" stroke="#b6d856" stroke-width="2" stroke-dasharray="5,2" d="M223.41,-567C223.41,-567 154.41,-567 154.41,-567 148.41,-567 142.41,-561 142.41,-555 142.41,-555 142.41,-543 142.41,-543 142.41,-537 148.41,-531 154.41,-531 154.41,-531 223.41,-531 223.41,-531 229.41,-531 235.41,-537 235.41,-543 235.41,-543 235.41,-555 235.41,-555 235.41,-561 229.41,-567 223.41,-567"/>
<text text-anchor="middle" x="188.91" y="-552" font-family="sans" font-size="10.00">genomepy</text>
<text text-anchor="middle" x="188.91" y="-541" font-family="sans" font-size="10.00">assembly: hg38</text>
</g>
<!-- 10&#45;&gt;6 -->
<g id="edge14" class="edge">
<title>10&#45;&gt;6</title>
<path fill="none" stroke="grey" stroke-width="2" d="M183.92,-530.75C179.43,-511.33 175.62,-479.79 190.91,-459 220.65,-418.59 250.58,-439.65 297.91,-423 306.94,-419.82 316.49,-416.38 325.78,-413"/>
<polygon fill="grey" stroke="grey" stroke-width="2" points="327.14,-416.23 335.33,-409.51 324.74,-409.66 327.14,-416.23"/>
</g>
<!-- 11 -->
<g id="node12" class="node">
<title>11</title>
<path fill="none" stroke="#d6d856" stroke-width="2" stroke-dasharray="5,2" d="M607.41,-409.5C607.41,-409.5 484.41,-409.5 484.41,-409.5 478.41,-409.5 472.41,-403.5 472.41,-397.5 472.41,-397.5 472.41,-385.5 472.41,-385.5 472.41,-379.5 478.41,-373.5 484.41,-373.5 484.41,-373.5 607.41,-373.5 607.41,-373.5 613.41,-373.5 619.41,-379.5 619.41,-385.5 619.41,-385.5 619.41,-397.5 619.41,-397.5 619.41,-403.5 613.41,-409.5 607.41,-409.5"/>
<text text-anchor="middle" x="545.91" y="-389" font-family="sans" font-size="10.00">extract_DeepCirCode_data</text>
</g>
<!-- 10&#45;&gt;11 -->
<g id="edge19" class="edge">
<title>10&#45;&gt;11</title>
<path fill="none" stroke="grey" stroke-width="2" d="M190.58,-530.93C193.55,-510.46 201.71,-476.69 223.91,-459 307.92,-392.06 358.85,-449.66 462.91,-423 473.5,-420.29 484.62,-416.72 495.16,-412.99"/>
<polygon fill="grey" stroke="grey" stroke-width="2" points="496.44,-416.25 504.64,-409.54 494.04,-409.67 496.44,-416.25"/>
</g>
<!-- 10&#45;&gt;17 -->
<g id="edge29" class="edge">
<title>10&#45;&gt;17</title>
<path fill="none" stroke="grey" stroke-width="2" d="M212.89,-530.7C225.22,-521.8 240.43,-510.82 253.77,-501.2"/>
<polygon fill="grey" stroke="grey" stroke-width="2" points="256.15,-503.79 262.21,-495.1 252.05,-498.12 256.15,-503.79"/>
</g>
<!-- 10&#45;&gt;19 -->
<g id="edge33" class="edge">
<title>10&#45;&gt;19</title>
<path fill="none" stroke="grey" stroke-width="2" d="M162.49,-530.88C148.5,-521.81 131.14,-510.55 116.03,-500.76"/>
<polygon fill="grey" stroke="grey" stroke-width="2" points="117.73,-497.69 107.43,-495.19 113.92,-503.57 117.73,-497.69"/>
</g>
<!-- 11&#45;&gt;4 -->
<g id="edge9" class="edge">
<title>11&#45;&gt;4</title>
<path fill="none" stroke="grey" stroke-width="2" d="M544.44,-373.31C542.07,-352.21 536.13,-315.83 521.91,-288 516.65,-277.7 508.96,-267.75 501.38,-259.31"/>
<polygon fill="grey" stroke="grey" stroke-width="2" points="503.91,-256.89 494.51,-252.01 498.81,-261.69 503.91,-256.89"/>
</g>
<!-- 11&#45;&gt;5 -->
<g id="edge11" class="edge">
<title>11&#45;&gt;5</title>
<path fill="none" stroke="grey" stroke-width="2" d="M528.51,-373.2C516.34,-361.11 499.93,-344.79 486.44,-331.38"/>
<polygon fill="grey" stroke="grey" stroke-width="2" points="488.86,-328.85 479.3,-324.28 483.92,-333.81 488.86,-328.85"/>
</g>
<!-- 12&#45;&gt;11 -->
<g id="edge17" class="edge">
<title>12&#45;&gt;11</title>
<path fill="none" stroke="grey" stroke-width="2" d="M547.5,-538.84C572.11,-531.43 600.04,-518.24 614.91,-495 632.45,-467.61 605.02,-436.72 579.73,-416.07"/>
<polygon fill="grey" stroke="grey" stroke-width="2" points="581.69,-413.16 571.66,-409.75 577.37,-418.67 581.69,-413.16"/>
</g>
<!-- 12&#45;&gt;14 -->
<g id="edge23" class="edge">
<title>12&#45;&gt;14</title>
<path fill="none" stroke="grey" stroke-width="2" d="M512.03,-530.7C517.78,-522.47 524.77,-512.48 531.12,-503.42"/>
<polygon fill="grey" stroke="grey" stroke-width="2" points="534.07,-505.3 536.94,-495.1 528.34,-501.29 534.07,-505.3"/>
</g>
<!-- 12&#45;&gt;17 -->
<g id="edge27" class="edge">
<title>12&#45;&gt;17</title>
<path fill="none" stroke="grey" stroke-width="2" d="M452.15,-532.38C421.32,-522.29 380.91,-509.07 347.65,-498.19"/>
<polygon fill="grey" stroke="grey" stroke-width="2" points="348.61,-494.83 338.02,-495.04 346.44,-501.48 348.61,-494.83"/>
</g>
<!-- 13 -->
<g id="node14" class="node">
<title>13</title>
<path fill="none" stroke="#9fd856" stroke-width="2" stroke-dasharray="5,2" d="M542.91,-639C542.91,-639 456.91,-639 456.91,-639 450.91,-639 444.91,-633 444.91,-627 444.91,-627 444.91,-615 444.91,-615 444.91,-609 450.91,-603 456.91,-603 456.91,-603 542.91,-603 542.91,-603 548.91,-603 554.91,-609 554.91,-615 554.91,-615 554.91,-627 554.91,-627 554.91,-633 548.91,-639 542.91,-639"/>
<text text-anchor="middle" x="499.91" y="-618.5" font-family="sans" font-size="10.00">download_chainfile</text>
</g>
<!-- 13&#45;&gt;12 -->
<g id="edge21" class="edge">
<title>13&#45;&gt;12</title>
<path fill="none" stroke="grey" stroke-width="2" d="M499.91,-602.7C499.91,-594.98 499.91,-585.71 499.91,-577.11"/>
<polygon fill="grey" stroke="grey" stroke-width="2" points="503.41,-577.1 499.91,-567.1 496.41,-577.1 503.41,-577.1"/>
</g>
<!-- 14&#45;&gt;11 -->
<g id="edge18" class="edge">
<title>14&#45;&gt;11</title>
<path fill="none" stroke="grey" stroke-width="2" d="M548.29,-458.7C547.89,-447.5 547.36,-432.69 546.9,-419.91"/>
<polygon fill="grey" stroke="grey" stroke-width="2" points="550.39,-419.65 546.53,-409.78 543.4,-419.9 550.39,-419.65"/>
</g>
<!-- 15 -->
<g id="node16" class="node">
<title>15</title>
<path fill="none" stroke="#8fd856" stroke-width="2" d="M267.41,-324C267.41,-324 188.41,-324 188.41,-324 182.41,-324 176.41,-318 176.41,-312 176.41,-312 176.41,-300 176.41,-300 176.41,-294 182.41,-288 188.41,-288 188.41,-288 267.41,-288 267.41,-288 273.41,-288 279.41,-294 279.41,-300 279.41,-300 279.41,-312 279.41,-312 279.41,-318 273.41,-324 267.41,-324"/>
<text text-anchor="middle" x="227.91" y="-303.5" font-family="sans" font-size="10.00">train_predict_JEDI</text>
</g>
<!-- 15&#45;&gt;2 -->
<g id="edge4" class="edge">
<title>15&#45;&gt;2</title>
<path fill="none" stroke="grey" stroke-width="2" d="M238.65,-287.85C262.08,-250.44 317.88,-161.32 345.65,-116.98"/>
<polygon fill="grey" stroke="grey" stroke-width="2" points="348.78,-118.57 351.12,-108.23 342.85,-114.85 348.78,-118.57"/>
</g>
<!-- 16 -->
<g id="node17" class="node">
<title>16</title>
<path fill="none" stroke="#56c9d8" stroke-width="2" stroke-dasharray="5,2" d="M276.91,-417.5C276.91,-417.5 178.91,-417.5 178.91,-417.5 172.91,-417.5 166.91,-411.5 166.91,-405.5 166.91,-405.5 166.91,-377.5 166.91,-377.5 166.91,-371.5 172.91,-365.5 178.91,-365.5 178.91,-365.5 276.91,-365.5 276.91,-365.5 282.91,-365.5 288.91,-371.5 288.91,-377.5 288.91,-377.5 288.91,-405.5 288.91,-405.5 288.91,-411.5 282.91,-417.5 276.91,-417.5"/>
<text text-anchor="middle" x="227.91" y="-405.5" font-family="sans" font-size="10.00">extract_features_JEDI</text>
<text text-anchor="middle" x="227.91" y="-394.5" font-family="sans" font-size="10.00">K: 3</text>
<text text-anchor="middle" x="227.91" y="-383.5" font-family="sans" font-size="10.00">L: 4</text>
<text text-anchor="middle" x="227.91" y="-372.5" font-family="sans" font-size="10.00">train_test: train</text>
</g>
<!-- 16&#45;&gt;15 -->
<g id="edge24" class="edge">
<title>16&#45;&gt;15</title>
<path fill="none" stroke="grey" stroke-width="2" d="M227.91,-365.45C227.91,-355.64 227.91,-344.36 227.91,-334.34"/>
<polygon fill="grey" stroke="grey" stroke-width="2" points="231.41,-334.1 227.91,-324.1 224.41,-334.1 231.41,-334.1"/>
</g>
<!-- 17&#45;&gt;16 -->
<g id="edge26" class="edge">
<title>17&#45;&gt;16</title>
<path fill="none" stroke="grey" stroke-width="2" d="M273.9,-458.7C267.34,-449.26 258.99,-437.24 251.22,-426.05"/>
<polygon fill="grey" stroke="grey" stroke-width="2" points="254,-423.92 245.42,-417.7 248.25,-427.91 254,-423.92"/>
</g>
<!-- 18 -->
<g id="node19" class="node">
<title>18</title>
<path fill="none" stroke="#56c9d8" stroke-width="2" stroke-dasharray="5,2" d="M134.91,-423C134.91,-423 36.91,-423 36.91,-423 30.91,-423 24.91,-417 24.91,-411 24.91,-411 24.91,-372 24.91,-372 24.91,-366 30.91,-360 36.91,-360 36.91,-360 134.91,-360 134.91,-360 140.91,-360 146.91,-366 146.91,-372 146.91,-372 146.91,-411 146.91,-411 146.91,-417 140.91,-423 134.91,-423"/>
<text text-anchor="middle" x="85.91" y="-411" font-family="sans" font-size="10.00">extract_features_JEDI</text>
<text text-anchor="middle" x="85.91" y="-400" font-family="sans" font-size="10.00">K: 3</text>
<text text-anchor="middle" x="85.91" y="-389" font-family="sans" font-size="10.00">L: 4</text>
<text text-anchor="middle" x="85.91" y="-378" font-family="sans" font-size="10.00">source: Wang2019</text>
<text text-anchor="middle" x="85.91" y="-367" font-family="sans" font-size="10.00">train_test: test</text>
</g>
<!-- 18&#45;&gt;15 -->
<g id="edge25" class="edge">
<title>18&#45;&gt;15</title>
<path fill="none" stroke="grey" stroke-width="2" d="M137.98,-359.88C155.19,-349.77 173.99,-338.71 189.93,-329.33"/>
<polygon fill="grey" stroke="grey" stroke-width="2" points="192.11,-332.11 198.96,-324.03 188.56,-326.08 192.11,-332.11"/>
</g>
<!-- 19&#45;&gt;18 -->
<g id="edge30" class="edge">
<title>19&#45;&gt;18</title>
<path fill="none" stroke="grey" stroke-width="2" d="M81.95,-458.7C82.39,-451.27 82.93,-442.25 83.47,-433.29"/>
<polygon fill="grey" stroke="grey" stroke-width="2" points="86.97,-433.47 84.07,-423.28 79.98,-433.06 86.97,-433.47"/>
</g>
</g>
</svg>
