<?xml version="1.0" encoding="UTF-8" standalone="no"?>
<!DOCTYPE svg PUBLIC "-//W3C//DTD SVG 1.1//EN"
 "http://www.w3.org/Graphics/SVG/1.1/DTD/svg11.dtd">
<!-- Generated by graphviz version 2.47.2 (20210527.1257)
 -->
<!-- Title: snakemake_dag Pages: 1 -->
<svg width="408pt" height="620pt"
 viewBox="0.00 0.00 408.00 620.00" xmlns="http://www.w3.org/2000/svg" xmlns:xlink="http://www.w3.org/1999/xlink">
<g id="graph0" class="graph" transform="scale(1 1) rotate(0) translate(4 616)">
<title>snakemake_dag</title>
<polygon fill="white" stroke="transparent" points="-4,4 -4,-616 404,-616 404,4 -4,4"/>
<!-- 0 -->
<g id="node1" class="node">
<title>0</title>
<path fill="none" stroke="#56c9d8" stroke-width="2" d="M183,-36C183,-36 153,-36 153,-36 147,-36 141,-30 141,-24 141,-24 141,-12 141,-12 141,-6 147,0 153,0 153,0 183,0 183,0 189,0 195,-6 195,-12 195,-12 195,-24 195,-24 195,-30 189,-36 183,-36"/>
<text text-anchor="middle" x="168" y="-15.5" font-family="sans" font-size="10.00">all</text>
</g>
<!-- 1 -->
<g id="node2" class="node">
<title>1</title>
<path fill="none" stroke="#59d856" stroke-width="2" d="M149,-108C149,-108 97,-108 97,-108 91,-108 85,-102 85,-96 85,-96 85,-84 85,-84 85,-78 91,-72 97,-72 97,-72 149,-72 149,-72 155,-72 161,-78 161,-84 161,-84 161,-96 161,-96 161,-102 155,-108 149,-108"/>
<text text-anchor="middle" x="123" y="-87.5" font-family="sans" font-size="10.00">dependency</text>
</g>
<!-- 1&#45;&gt;0 -->
<g id="edge2" class="edge">
<title>1&#45;&gt;0</title>
<path fill="none" stroke="grey" stroke-width="2" d="M134.12,-71.7C139.36,-63.56 145.7,-53.69 151.48,-44.7"/>
<polygon fill="grey" stroke="grey" stroke-width="2" points="154.54,-46.41 157,-36.1 148.65,-42.62 154.54,-46.41"/>
</g>
<!-- 2 -->
<g id="node3" class="node">
<title>2</title>
<path fill="none" stroke="#56b1d8" stroke-width="2" d="M235,-108C235,-108 191,-108 191,-108 185,-108 179,-102 179,-96 179,-96 179,-84 179,-84 179,-78 185,-72 191,-72 191,-72 235,-72 235,-72 241,-72 247,-78 247,-84 247,-84 247,-96 247,-96 247,-102 241,-108 235,-108"/>
<text text-anchor="middle" x="213" y="-87.5" font-family="sans" font-size="10.00">evaluation</text>
</g>
<!-- 2&#45;&gt;0 -->
<g id="edge1" class="edge">
<title>2&#45;&gt;0</title>
<path fill="none" stroke="grey" stroke-width="2" d="M201.88,-71.7C196.64,-63.56 190.3,-53.69 184.52,-44.7"/>
<polygon fill="grey" stroke="grey" stroke-width="2" points="187.35,-42.62 179,-36.1 181.46,-46.41 187.35,-42.62"/>
</g>
<!-- 3 -->
<g id="node4" class="node">
<title>3</title>
<path fill="none" stroke="#56d8b1" stroke-width="2" d="M187,-180C187,-180 157,-180 157,-180 151,-180 145,-174 145,-168 145,-168 145,-156 145,-156 145,-150 151,-144 157,-144 157,-144 187,-144 187,-144 193,-144 199,-150 199,-156 199,-156 199,-168 199,-168 199,-174 193,-180 187,-180"/>
<text text-anchor="middle" x="172" y="-159.5" font-family="sans" font-size="10.00">test_RF</text>
</g>
<!-- 3&#45;&gt;2 -->
<g id="edge3" class="edge">
<title>3&#45;&gt;2</title>
<path fill="none" stroke="grey" stroke-width="2" d="M182.13,-143.7C186.85,-135.64 192.56,-125.89 197.78,-116.98"/>
<polygon fill="grey" stroke="grey" stroke-width="2" points="200.95,-118.5 202.98,-108.1 194.91,-114.96 200.95,-118.5"/>
</g>
<!-- 4 -->
<g id="node5" class="node">
<title>4</title>
<path fill="none" stroke="#d8c356" stroke-width="2" d="M160.5,-252C160.5,-252 127.5,-252 127.5,-252 121.5,-252 115.5,-246 115.5,-240 115.5,-240 115.5,-228 115.5,-228 115.5,-222 121.5,-216 127.5,-216 127.5,-216 160.5,-216 160.5,-216 166.5,-216 172.5,-222 172.5,-228 172.5,-228 172.5,-240 172.5,-240 172.5,-246 166.5,-252 160.5,-252"/>
<text text-anchor="middle" x="144" y="-231.5" font-family="sans" font-size="10.00">train_RF</text>
</g>
<!-- 4&#45;&gt;3 -->
<g id="edge6" class="edge">
<title>4&#45;&gt;3</title>
<path fill="none" stroke="grey" stroke-width="2" d="M150.92,-215.7C154.07,-207.81 157.88,-198.3 161.38,-189.55"/>
<polygon fill="grey" stroke="grey" stroke-width="2" points="164.69,-190.69 165.16,-180.1 158.19,-188.09 164.69,-190.69"/>
</g>
<!-- 5 -->
<g id="node6" class="node">
<title>5</title>
<path fill="none" stroke="#d87d56" stroke-width="2" d="M240,-324C240,-324 162,-324 162,-324 156,-324 150,-318 150,-312 150,-312 150,-300 150,-300 150,-294 156,-288 162,-288 162,-288 240,-288 240,-288 246,-288 252,-294 252,-300 252,-300 252,-312 252,-312 252,-318 246,-324 240,-324"/>
<text text-anchor="middle" x="201" y="-303.5" font-family="sans" font-size="10.00">SVM_RF_features</text>
</g>
<!-- 5&#45;&gt;3 -->
<g id="edge7" class="edge">
<title>5&#45;&gt;3</title>
<path fill="none" stroke="grey" stroke-width="2" d="M197.5,-287.87C192.54,-263.56 183.4,-218.82 177.52,-190.01"/>
<polygon fill="grey" stroke="grey" stroke-width="2" points="180.94,-189.29 175.51,-180.19 174.08,-190.69 180.94,-189.29"/>
</g>
<!-- 5&#45;&gt;4 -->
<g id="edge9" class="edge">
<title>5&#45;&gt;4</title>
<path fill="none" stroke="grey" stroke-width="2" d="M186.91,-287.7C180.08,-279.3 171.74,-269.07 164.24,-259.86"/>
<polygon fill="grey" stroke="grey" stroke-width="2" points="166.96,-257.65 157.93,-252.1 161.53,-262.07 166.96,-257.65"/>
</g>
<!-- 6 -->
<g id="node7" class="node">
<title>6</title>
<path fill="none" stroke="#9fd856" stroke-width="2" d="M183.5,-396C183.5,-396 60.5,-396 60.5,-396 54.5,-396 48.5,-390 48.5,-384 48.5,-384 48.5,-372 48.5,-372 48.5,-366 54.5,-360 60.5,-360 60.5,-360 183.5,-360 183.5,-360 189.5,-360 195.5,-366 195.5,-372 195.5,-372 195.5,-384 195.5,-384 195.5,-390 189.5,-396 183.5,-396"/>
<text text-anchor="middle" x="122" y="-375.5" font-family="sans" font-size="10.00">extract_DeepCirCode_data</text>
</g>
<!-- 6&#45;&gt;3 -->
<g id="edge5" class="edge">
<title>6&#45;&gt;3</title>
<path fill="none" stroke="grey" stroke-width="2" d="M114.78,-359.54C103.26,-328.84 84.24,-263.93 107,-216 113.33,-202.66 124.85,-191.58 136.44,-183.05"/>
<polygon fill="grey" stroke="grey" stroke-width="2" points="138.56,-185.84 144.83,-177.3 134.6,-180.07 138.56,-185.84"/>
</g>
<!-- 6&#45;&gt;4 -->
<g id="edge8" class="edge">
<title>6&#45;&gt;4</title>
<path fill="none" stroke="grey" stroke-width="2" d="M124.65,-359.87C128.4,-335.67 135.29,-291.21 139.76,-262.39"/>
<polygon fill="grey" stroke="grey" stroke-width="2" points="143.26,-262.61 141.34,-252.19 136.35,-261.54 143.26,-262.61"/>
</g>
<!-- 6&#45;&gt;5 -->
<g id="edge10" class="edge">
<title>6&#45;&gt;5</title>
<path fill="none" stroke="grey" stroke-width="2" d="M141.53,-359.7C151.38,-350.97 163.49,-340.24 174.2,-330.75"/>
<polygon fill="grey" stroke="grey" stroke-width="2" points="176.53,-333.36 181.7,-324.1 171.89,-328.12 176.53,-333.36"/>
</g>
<!-- 7 -->
<g id="node8" class="node">
<title>7</title>
<path fill="none" stroke="#d88d56" stroke-width="2" d="M92,-612C92,-612 12,-612 12,-612 6,-612 0,-606 0,-600 0,-600 0,-588 0,-588 0,-582 6,-576 12,-576 12,-576 92,-576 92,-576 98,-576 104,-582 104,-588 104,-588 104,-600 104,-600 104,-606 98,-612 92,-612"/>
<text text-anchor="middle" x="52" y="-591.5" font-family="sans" font-size="10.00">data_DiLiddo2019</text>
</g>
<!-- 7&#45;&gt;6 -->
<g id="edge11" class="edge">
<title>7&#45;&gt;6</title>
<path fill="none" stroke="grey" stroke-width="2" d="M45.72,-575.78C35.58,-544.92 19.12,-478.99 44,-432 50.6,-419.54 61.58,-409.47 73.25,-401.59"/>
<polygon fill="grey" stroke="grey" stroke-width="2" points="75.2,-404.5 81.82,-396.23 71.48,-398.56 75.2,-404.5"/>
</g>
<!-- 8 -->
<g id="node9" class="node">
<title>8</title>
<path fill="none" stroke="#56d88a" stroke-width="2" d="M155.5,-468C155.5,-468 64.5,-468 64.5,-468 58.5,-468 52.5,-462 52.5,-456 52.5,-456 52.5,-444 52.5,-444 52.5,-438 58.5,-432 64.5,-432 64.5,-432 155.5,-432 155.5,-432 161.5,-432 167.5,-438 167.5,-444 167.5,-444 167.5,-456 167.5,-456 167.5,-462 161.5,-468 155.5,-468"/>
<text text-anchor="middle" x="110" y="-447.5" font-family="sans" font-size="10.00">get_linear_junctions</text>
</g>
<!-- 7&#45;&gt;8 -->
<g id="edge17" class="edge">
<title>7&#45;&gt;8</title>
<path fill="none" stroke="grey" stroke-width="2" d="M53.78,-575.96C56.15,-557.56 61.37,-527.7 72,-504 76.38,-494.24 82.7,-484.46 88.94,-476.01"/>
<polygon fill="grey" stroke="grey" stroke-width="2" points="91.74,-478.11 95.07,-468.05 86.19,-473.84 91.74,-478.11"/>
</g>
<!-- 11 -->
<g id="node12" class="node">
<title>11</title>
<path fill="none" stroke="#56a2d8" stroke-width="2" d="M163.5,-540C163.5,-540 92.5,-540 92.5,-540 86.5,-540 80.5,-534 80.5,-528 80.5,-528 80.5,-516 80.5,-516 80.5,-510 86.5,-504 92.5,-504 92.5,-504 163.5,-504 163.5,-504 169.5,-504 175.5,-510 175.5,-516 175.5,-516 175.5,-528 175.5,-528 175.5,-534 169.5,-540 163.5,-540"/>
<text text-anchor="middle" x="128" y="-519.5" font-family="sans" font-size="10.00">data_Wang2019</text>
</g>
<!-- 7&#45;&gt;11 -->
<g id="edge18" class="edge">
<title>7&#45;&gt;11</title>
<path fill="none" stroke="grey" stroke-width="2" d="M70.79,-575.7C80.17,-567.05 91.68,-556.45 101.91,-547.03"/>
<polygon fill="grey" stroke="grey" stroke-width="2" points="104.45,-549.45 109.43,-540.1 99.7,-544.3 104.45,-549.45"/>
</g>
<!-- 15 -->
<g id="node16" class="node">
<title>15</title>
<path fill="none" stroke="#56d86b" stroke-width="2" d="M320.5,-468C320.5,-468 241.5,-468 241.5,-468 235.5,-468 229.5,-462 229.5,-456 229.5,-456 229.5,-444 229.5,-444 229.5,-438 235.5,-432 241.5,-432 241.5,-432 320.5,-432 320.5,-432 326.5,-432 332.5,-438 332.5,-444 332.5,-444 332.5,-456 332.5,-456 332.5,-462 326.5,-468 320.5,-468"/>
<text text-anchor="middle" x="281" y="-447.5" font-family="sans" font-size="10.00">extract_data_JEDI</text>
</g>
<!-- 7&#45;&gt;15 -->
<g id="edge25" class="edge">
<title>7&#45;&gt;15</title>
<path fill="none" stroke="grey" stroke-width="2" d="M104.18,-578.21C107.16,-577.45 110.12,-576.7 113,-576 188.88,-557.51 235.76,-600.62 285,-540 298.89,-522.9 296.09,-497.29 290.87,-477.92"/>
<polygon fill="grey" stroke="grey" stroke-width="2" points="294.16,-476.72 287.9,-468.17 287.46,-478.76 294.16,-476.72"/>
</g>
<!-- 8&#45;&gt;6 -->
<g id="edge12" class="edge">
<title>8&#45;&gt;6</title>
<path fill="none" stroke="grey" stroke-width="2" d="M112.97,-431.7C114.29,-423.98 115.88,-414.71 117.35,-406.11"/>
<polygon fill="grey" stroke="grey" stroke-width="2" points="120.83,-406.55 119.07,-396.1 113.93,-405.37 120.83,-406.55"/>
</g>
<!-- 9 -->
<g id="node10" class="node">
<title>9</title>
<path fill="none" stroke="#56d87b" stroke-width="2" d="M264,-540C264,-540 206,-540 206,-540 200,-540 194,-534 194,-528 194,-528 194,-516 194,-516 194,-510 200,-504 206,-504 206,-504 264,-504 264,-504 270,-504 276,-510 276,-516 276,-516 276,-528 276,-528 276,-534 270,-540 264,-540"/>
<text text-anchor="middle" x="235" y="-519.5" font-family="sans" font-size="10.00">canonical_gtf</text>
</g>
<!-- 9&#45;&gt;8 -->
<g id="edge15" class="edge">
<title>9&#45;&gt;8</title>
<path fill="none" stroke="grey" stroke-width="2" d="M204.42,-503.88C187.93,-494.64 167.38,-483.13 149.66,-473.21"/>
<polygon fill="grey" stroke="grey" stroke-width="2" points="151.13,-470.02 140.7,-468.19 147.71,-476.13 151.13,-470.02"/>
</g>
<!-- 9&#45;&gt;15 -->
<g id="edge22" class="edge">
<title>9&#45;&gt;15</title>
<path fill="none" stroke="grey" stroke-width="2" d="M246.37,-503.7C251.72,-495.56 258.2,-485.69 264.11,-476.7"/>
<polygon fill="grey" stroke="grey" stroke-width="2" points="267.19,-478.38 269.76,-468.1 261.34,-474.54 267.19,-478.38"/>
</g>
<!-- 10 -->
<g id="node11" class="node">
<title>10</title>
<path fill="none" stroke="#568ad8" stroke-width="2" d="M388,-540C388,-540 344,-540 344,-540 338,-540 332,-534 332,-528 332,-528 332,-516 332,-516 332,-510 338,-504 344,-504 344,-504 388,-504 388,-504 394,-504 400,-510 400,-516 400,-516 400,-528 400,-528 400,-534 394,-540 388,-540"/>
<text text-anchor="middle" x="366" y="-519.5" font-family="sans" font-size="10.00">genomepy</text>
</g>
<!-- 10&#45;&gt;6 -->
<g id="edge13" class="edge">
<title>10&#45;&gt;6</title>
<path fill="none" stroke="grey" stroke-width="2" d="M366.28,-503.69C365.63,-483.61 361.38,-450.86 342,-432 336.85,-426.99 265.69,-410.38 205.67,-397.08"/>
<polygon fill="grey" stroke="grey" stroke-width="2" points="206.28,-393.63 195.76,-394.89 204.77,-400.47 206.28,-393.63"/>
</g>
<!-- 10&#45;&gt;15 -->
<g id="edge23" class="edge">
<title>10&#45;&gt;15</title>
<path fill="none" stroke="grey" stroke-width="2" d="M344.99,-503.7C334.28,-494.88 321.11,-484.03 309.5,-474.47"/>
<polygon fill="grey" stroke="grey" stroke-width="2" points="311.71,-471.76 301.77,-468.1 307.26,-477.16 311.71,-471.76"/>
</g>
<!-- 11&#45;&gt;6 -->
<g id="edge14" class="edge">
<title>11&#45;&gt;6</title>
<path fill="none" stroke="grey" stroke-width="2" d="M150.15,-503.87C160.41,-494.52 171.52,-482 177,-468 182.83,-453.1 183.26,-446.72 177,-432 172.27,-420.86 163.92,-410.93 155.13,-402.76"/>
<polygon fill="grey" stroke="grey" stroke-width="2" points="157.23,-399.95 147.38,-396.05 152.65,-405.24 157.23,-399.95"/>
</g>
<!-- 11&#45;&gt;8 -->
<g id="edge16" class="edge">
<title>11&#45;&gt;8</title>
<path fill="none" stroke="grey" stroke-width="2" d="M123.55,-503.7C121.55,-495.9 119.13,-486.51 116.9,-477.83"/>
<polygon fill="grey" stroke="grey" stroke-width="2" points="120.28,-476.92 114.4,-468.1 113.5,-478.66 120.28,-476.92"/>
</g>
<!-- 11&#45;&gt;15 -->
<g id="edge24" class="edge">
<title>11&#45;&gt;15</title>
<path fill="none" stroke="grey" stroke-width="2" d="M165.43,-503.88C186.25,-494.35 212.35,-482.41 234.48,-472.28"/>
<polygon fill="grey" stroke="grey" stroke-width="2" points="236.06,-475.41 243.69,-468.07 233.14,-469.05 236.06,-475.41"/>
</g>
<!-- 12 -->
<g id="node13" class="node">
<title>12</title>
<path fill="none" stroke="#56d8c9" stroke-width="2" d="M220,-612C220,-612 134,-612 134,-612 128,-612 122,-606 122,-600 122,-600 122,-588 122,-588 122,-582 128,-576 134,-576 134,-576 220,-576 220,-576 226,-576 232,-582 232,-588 232,-588 232,-600 232,-600 232,-606 226,-612 220,-612"/>
<text text-anchor="middle" x="177" y="-591.5" font-family="sans" font-size="10.00">download_chainfile</text>
</g>
<!-- 12&#45;&gt;11 -->
<g id="edge19" class="edge">
<title>12&#45;&gt;11</title>
<path fill="none" stroke="grey" stroke-width="2" d="M164.89,-575.7C159.13,-567.47 152.14,-557.48 145.79,-548.42"/>
<polygon fill="grey" stroke="grey" stroke-width="2" points="148.58,-546.29 139.97,-540.1 142.84,-550.3 148.58,-546.29"/>
</g>
<!-- 13 -->
<g id="node14" class="node">
<title>13</title>
<path fill="none" stroke="#c6d856" stroke-width="2" d="M320.5,-252C320.5,-252 241.5,-252 241.5,-252 235.5,-252 229.5,-246 229.5,-240 229.5,-240 229.5,-228 229.5,-228 229.5,-222 235.5,-216 241.5,-216 241.5,-216 320.5,-216 320.5,-216 326.5,-216 332.5,-222 332.5,-228 332.5,-228 332.5,-240 332.5,-240 332.5,-246 326.5,-252 320.5,-252"/>
<text text-anchor="middle" x="281" y="-231.5" font-family="sans" font-size="10.00">train_predict_JEDI</text>
</g>
<!-- 13&#45;&gt;2 -->
<g id="edge4" class="edge">
<title>13&#45;&gt;2</title>
<path fill="none" stroke="grey" stroke-width="2" d="M272.8,-215.87C261.06,-191.35 239.35,-146.03 225.57,-117.26"/>
<polygon fill="grey" stroke="grey" stroke-width="2" points="228.71,-115.7 221.23,-108.19 222.39,-118.72 228.71,-115.7"/>
</g>
<!-- 14 -->
<g id="node15" class="node">
<title>14</title>
<path fill="none" stroke="#8fd856" stroke-width="2" d="M330,-396C330,-396 232,-396 232,-396 226,-396 220,-390 220,-384 220,-384 220,-372 220,-372 220,-366 226,-360 232,-360 232,-360 330,-360 330,-360 336,-360 342,-366 342,-372 342,-372 342,-384 342,-384 342,-390 336,-396 330,-396"/>
<text text-anchor="middle" x="281" y="-375.5" font-family="sans" font-size="10.00">extract_features_JEDI</text>
</g>
<!-- 14&#45;&gt;13 -->
<g id="edge20" class="edge">
<title>14&#45;&gt;13</title>
<path fill="none" stroke="grey" stroke-width="2" d="M281,-359.87C281,-335.67 281,-291.21 281,-262.39"/>
<polygon fill="grey" stroke="grey" stroke-width="2" points="284.5,-262.19 281,-252.19 277.5,-262.19 284.5,-262.19"/>
</g>
<!-- 15&#45;&gt;14 -->
<g id="edge21" class="edge">
<title>15&#45;&gt;14</title>
<path fill="none" stroke="grey" stroke-width="2" d="M281,-431.7C281,-423.98 281,-414.71 281,-406.11"/>
<polygon fill="grey" stroke="grey" stroke-width="2" points="284.5,-406.1 281,-396.1 277.5,-406.1 284.5,-406.1"/>
</g>
</g>
</svg>
