<?xml version="1.0" encoding="UTF-8" standalone="no"?>
<!DOCTYPE svg PUBLIC "-//W3C//DTD SVG 1.1//EN"
 "http://www.w3.org/Graphics/SVG/1.1/DTD/svg11.dtd">
<!-- Generated by graphviz version 2.47.2 (20210527.1257)
 -->
<!-- Title: snakemake_dag Pages: 1 -->
<svg width="672pt" height="647pt"
 viewBox="0.00 0.00 671.60 647.00" xmlns="http://www.w3.org/2000/svg" xmlns:xlink="http://www.w3.org/1999/xlink">
<g id="graph0" class="graph" transform="scale(1 1) rotate(0) translate(4 643)">
<title>snakemake_dag</title>
<polygon fill="white" stroke="transparent" points="-4,4 -4,-643 667.6,-643 667.6,4 -4,4"/>
<!-- 0 -->
<g id="node1" class="node">
<title>0</title>
<path fill="none" stroke="#56d8d0" stroke-width="2" d="M145.6,-36C145.6,-36 115.6,-36 115.6,-36 109.6,-36 103.6,-30 103.6,-24 103.6,-24 103.6,-12 103.6,-12 103.6,-6 109.6,0 115.6,0 115.6,0 145.6,0 145.6,0 151.6,0 157.6,-6 157.6,-12 157.6,-12 157.6,-24 157.6,-24 157.6,-30 151.6,-36 145.6,-36"/>
<text text-anchor="middle" x="130.6" y="-15.5" font-family="sans" font-size="10.00">all</text>
</g>
<!-- 1 -->
<g id="node2" class="node">
<title>1</title>
<path fill="none" stroke="#d8bc56" stroke-width="2" stroke-dasharray="5,2" d="M111.6,-108C111.6,-108 59.6,-108 59.6,-108 53.6,-108 47.6,-102 47.6,-96 47.6,-96 47.6,-84 47.6,-84 47.6,-78 53.6,-72 59.6,-72 59.6,-72 111.6,-72 111.6,-72 117.6,-72 123.6,-78 123.6,-84 123.6,-84 123.6,-96 123.6,-96 123.6,-102 117.6,-108 111.6,-108"/>
<text text-anchor="middle" x="85.6" y="-87.5" font-family="sans" font-size="10.00">dependency</text>
</g>
<!-- 1&#45;&gt;0 -->
<g id="edge1" class="edge">
<title>1&#45;&gt;0</title>
<path fill="none" stroke="grey" stroke-width="2" d="M96.73,-71.7C101.96,-63.56 108.3,-53.69 114.08,-44.7"/>
<polygon fill="grey" stroke="grey" stroke-width="2" points="117.14,-46.41 119.61,-36.1 111.25,-42.62 117.14,-46.41"/>
</g>
<!-- 2 -->
<g id="node3" class="node">
<title>2</title>
<path fill="none" stroke="#afd856" stroke-width="2" d="M197.6,-108C197.6,-108 153.6,-108 153.6,-108 147.6,-108 141.6,-102 141.6,-96 141.6,-96 141.6,-84 141.6,-84 141.6,-78 147.6,-72 153.6,-72 153.6,-72 197.6,-72 197.6,-72 203.6,-72 209.6,-78 209.6,-84 209.6,-84 209.6,-96 209.6,-96 209.6,-102 203.6,-108 197.6,-108"/>
<text text-anchor="middle" x="175.6" y="-87.5" font-family="sans" font-size="10.00">evaluation</text>
</g>
<!-- 2&#45;&gt;0 -->
<g id="edge2" class="edge">
<title>2&#45;&gt;0</title>
<path fill="none" stroke="grey" stroke-width="2" d="M164.48,-71.7C159.25,-63.56 152.9,-53.69 147.12,-44.7"/>
<polygon fill="grey" stroke="grey" stroke-width="2" points="149.95,-42.62 141.6,-36.1 144.06,-46.41 149.95,-42.62"/>
</g>
<!-- 3 -->
<g id="node4" class="node">
<title>3</title>
<path fill="none" stroke="#56c9d8" stroke-width="2" d="M194.6,-180C194.6,-180 156.6,-180 156.6,-180 150.6,-180 144.6,-174 144.6,-168 144.6,-168 144.6,-156 144.6,-156 144.6,-150 150.6,-144 156.6,-144 156.6,-144 194.6,-144 194.6,-144 200.6,-144 206.6,-150 206.6,-156 206.6,-156 206.6,-168 206.6,-168 206.6,-174 200.6,-180 194.6,-180"/>
<text text-anchor="middle" x="175.6" y="-159.5" font-family="sans" font-size="10.00">test_SVM</text>
</g>
<!-- 3&#45;&gt;2 -->
<g id="edge3" class="edge">
<title>3&#45;&gt;2</title>
<path fill="none" stroke="grey" stroke-width="2" d="M175.6,-143.7C175.6,-135.98 175.6,-126.71 175.6,-118.11"/>
<polygon fill="grey" stroke="grey" stroke-width="2" points="179.1,-118.1 175.6,-108.1 172.1,-118.1 179.1,-118.1"/>
</g>
<!-- 4 -->
<g id="node5" class="node">
<title>4</title>
<path fill="none" stroke="#567bd8" stroke-width="2" d="M257.6,-252C257.6,-252 215.6,-252 215.6,-252 209.6,-252 203.6,-246 203.6,-240 203.6,-240 203.6,-228 203.6,-228 203.6,-222 209.6,-216 215.6,-216 215.6,-216 257.6,-216 257.6,-216 263.6,-216 269.6,-222 269.6,-228 269.6,-228 269.6,-240 269.6,-240 269.6,-246 263.6,-252 257.6,-252"/>
<text text-anchor="middle" x="236.6" y="-231.5" font-family="sans" font-size="10.00">train_SVM</text>
</g>
<!-- 4&#45;&gt;3 -->
<g id="edge6" class="edge">
<title>4&#45;&gt;3</title>
<path fill="none" stroke="grey" stroke-width="2" d="M221.52,-215.7C214.21,-207.3 205.29,-197.07 197.27,-187.86"/>
<polygon fill="grey" stroke="grey" stroke-width="2" points="199.72,-185.34 190.51,-180.1 194.44,-189.94 199.72,-185.34"/>
</g>
<!-- 5 -->
<g id="node6" class="node">
<title>5</title>
<path fill="none" stroke="#d89c56" stroke-width="2" d="M210.6,-324C210.6,-324 132.6,-324 132.6,-324 126.6,-324 120.6,-318 120.6,-312 120.6,-312 120.6,-300 120.6,-300 120.6,-294 126.6,-288 132.6,-288 132.6,-288 210.6,-288 210.6,-288 216.6,-288 222.6,-294 222.6,-300 222.6,-300 222.6,-312 222.6,-312 222.6,-318 216.6,-324 210.6,-324"/>
<text text-anchor="middle" x="171.6" y="-303.5" font-family="sans" font-size="10.00">SVM_RF_features</text>
</g>
<!-- 5&#45;&gt;3 -->
<g id="edge7" class="edge">
<title>5&#45;&gt;3</title>
<path fill="none" stroke="grey" stroke-width="2" d="M172.08,-287.87C172.77,-263.67 174.02,-219.21 174.83,-190.39"/>
<polygon fill="grey" stroke="grey" stroke-width="2" points="178.34,-190.28 175.12,-180.19 171.34,-190.09 178.34,-190.28"/>
</g>
<!-- 5&#45;&gt;4 -->
<g id="edge9" class="edge">
<title>5&#45;&gt;4</title>
<path fill="none" stroke="grey" stroke-width="2" d="M187.67,-287.7C195.54,-279.22 205.16,-268.86 213.78,-259.58"/>
<polygon fill="grey" stroke="grey" stroke-width="2" points="216.48,-261.81 220.72,-252.1 211.35,-257.05 216.48,-261.81"/>
</g>
<!-- 15 -->
<g id="node16" class="node">
<title>15</title>
<path fill="none" stroke="#5663d8" stroke-width="2" d="M86.6,-180C86.6,-180 56.6,-180 56.6,-180 50.6,-180 44.6,-174 44.6,-168 44.6,-168 44.6,-156 44.6,-156 44.6,-150 50.6,-144 56.6,-144 56.6,-144 86.6,-144 86.6,-144 92.6,-144 98.6,-150 98.6,-156 98.6,-156 98.6,-168 98.6,-168 98.6,-174 92.6,-180 86.6,-180"/>
<text text-anchor="middle" x="71.6" y="-159.5" font-family="sans" font-size="10.00">test_RF</text>
</g>
<!-- 5&#45;&gt;15 -->
<g id="edge26" class="edge">
<title>5&#45;&gt;15</title>
<path fill="none" stroke="grey" stroke-width="2" d="M159.54,-287.87C142.12,-263.14 109.8,-217.24 89.57,-188.51"/>
<polygon fill="grey" stroke="grey" stroke-width="2" points="92.33,-186.35 83.71,-180.19 86.6,-190.38 92.33,-186.35"/>
</g>
<!-- 16 -->
<g id="node17" class="node">
<title>16</title>
<path fill="none" stroke="#d85656" stroke-width="2" d="M59.1,-252C59.1,-252 26.1,-252 26.1,-252 20.1,-252 14.1,-246 14.1,-240 14.1,-240 14.1,-228 14.1,-228 14.1,-222 20.1,-216 26.1,-216 26.1,-216 59.1,-216 59.1,-216 65.1,-216 71.1,-222 71.1,-228 71.1,-228 71.1,-240 71.1,-240 71.1,-246 65.1,-252 59.1,-252"/>
<text text-anchor="middle" x="42.6" y="-231.5" font-family="sans" font-size="10.00">train_RF</text>
</g>
<!-- 5&#45;&gt;16 -->
<g id="edge28" class="edge">
<title>5&#45;&gt;16</title>
<path fill="none" stroke="grey" stroke-width="2" d="M140.05,-287.88C121.97,-278.07 99.17,-265.7 80.18,-255.39"/>
<polygon fill="grey" stroke="grey" stroke-width="2" points="81.65,-252.21 71.19,-250.51 78.31,-258.36 81.65,-252.21"/>
</g>
<!-- 6 -->
<g id="node7" class="node">
<title>6</title>
<path fill="none" stroke="#56d892" stroke-width="2" stroke-dasharray="5,2" d="M511.1,-409.5C511.1,-409.5 388.1,-409.5 388.1,-409.5 382.1,-409.5 376.1,-403.5 376.1,-397.5 376.1,-397.5 376.1,-385.5 376.1,-385.5 376.1,-379.5 382.1,-373.5 388.1,-373.5 388.1,-373.5 511.1,-373.5 511.1,-373.5 517.1,-373.5 523.1,-379.5 523.1,-385.5 523.1,-385.5 523.1,-397.5 523.1,-397.5 523.1,-403.5 517.1,-409.5 511.1,-409.5"/>
<text text-anchor="middle" x="449.6" y="-389" font-family="sans" font-size="10.00">extract_DeepCirCode_data</text>
</g>
<!-- 6&#45;&gt;5 -->
<g id="edge11" class="edge">
<title>6&#45;&gt;5</title>
<path fill="none" stroke="grey" stroke-width="2" d="M405.48,-373.48C392.99,-368.88 379.33,-364.06 366.6,-360 322.27,-345.86 271.52,-332.14 232.91,-322.21"/>
<polygon fill="grey" stroke="grey" stroke-width="2" points="233.42,-318.73 222.87,-319.64 231.69,-325.51 233.42,-318.73"/>
</g>
<!-- 7 -->
<g id="node8" class="node">
<title>7</title>
<path fill="none" stroke="#56b9d8" stroke-width="2" stroke-dasharray="5,2" d="M494.6,-639C494.6,-639 414.6,-639 414.6,-639 408.6,-639 402.6,-633 402.6,-627 402.6,-627 402.6,-615 402.6,-615 402.6,-609 408.6,-603 414.6,-603 414.6,-603 494.6,-603 494.6,-603 500.6,-603 506.6,-609 506.6,-615 506.6,-615 506.6,-627 506.6,-627 506.6,-633 500.6,-639 494.6,-639"/>
<text text-anchor="middle" x="454.6" y="-618.5" font-family="sans" font-size="10.00">data_DiLiddo2019</text>
</g>
<!-- 7&#45;&gt;6 -->
<g id="edge13" class="edge">
<title>7&#45;&gt;6</title>
<path fill="none" stroke="grey" stroke-width="2" d="M500.02,-602.91C564.48,-575.99 670.23,-520.43 627.6,-459 627.13,-458.32 557.28,-432.35 505.23,-413.07"/>
<polygon fill="grey" stroke="grey" stroke-width="2" points="506.33,-409.75 495.74,-409.56 503.9,-416.31 506.33,-409.75"/>
</g>
<!-- 8 -->
<g id="node9" class="node">
<title>8</title>
<path fill="none" stroke="#c6d856" stroke-width="2" stroke-dasharray="5,2" d="M396.6,-495C396.6,-495 304.6,-495 304.6,-495 298.6,-495 292.6,-489 292.6,-483 292.6,-483 292.6,-471 292.6,-471 292.6,-465 298.6,-459 304.6,-459 304.6,-459 396.6,-459 396.6,-459 402.6,-459 408.6,-465 408.6,-471 408.6,-471 408.6,-483 408.6,-483 408.6,-489 402.6,-495 396.6,-495"/>
<text text-anchor="middle" x="350.6" y="-480" font-family="sans" font-size="10.00">get_linear_junctions</text>
<text text-anchor="middle" x="350.6" y="-469" font-family="sans" font-size="10.00">source: DiLiddo2019</text>
</g>
<!-- 7&#45;&gt;8 -->
<g id="edge17" class="edge">
<title>7&#45;&gt;8</title>
<path fill="none" stroke="grey" stroke-width="2" d="M430.5,-602.81C418.34,-593.27 404,-580.6 393.6,-567 379.02,-547.93 367.54,-523.14 360.12,-504.56"/>
<polygon fill="grey" stroke="grey" stroke-width="2" points="363.38,-503.29 356.52,-495.22 356.85,-505.81 363.38,-503.29"/>
</g>
<!-- 12 -->
<g id="node13" class="node">
<title>12</title>
<path fill="none" stroke="#56d85b" stroke-width="2" stroke-dasharray="5,2" d="M160.1,-567C160.1,-567 89.1,-567 89.1,-567 83.1,-567 77.1,-561 77.1,-555 77.1,-555 77.1,-543 77.1,-543 77.1,-537 83.1,-531 89.1,-531 89.1,-531 160.1,-531 160.1,-531 166.1,-531 172.1,-537 172.1,-543 172.1,-543 172.1,-555 172.1,-555 172.1,-561 166.1,-567 160.1,-567"/>
<text text-anchor="middle" x="124.6" y="-546.5" font-family="sans" font-size="10.00">data_Wang2019</text>
</g>
<!-- 7&#45;&gt;12 -->
<g id="edge21" class="edge">
<title>7&#45;&gt;12</title>
<path fill="none" stroke="grey" stroke-width="2" d="M402.31,-608.91C342.4,-596.2 244.52,-575.44 182.39,-562.26"/>
<polygon fill="grey" stroke="grey" stroke-width="2" points="182.87,-558.78 172.36,-560.13 181.42,-565.63 182.87,-558.78"/>
</g>
<!-- 22 -->
<g id="node23" class="node">
<title>22</title>
<path fill="none" stroke="#56a9d8" stroke-width="2" stroke-dasharray="5,2" d="M606.6,-495C606.6,-495 514.6,-495 514.6,-495 508.6,-495 502.6,-489 502.6,-483 502.6,-483 502.6,-471 502.6,-471 502.6,-465 508.6,-459 514.6,-459 514.6,-459 606.6,-459 606.6,-459 612.6,-459 618.6,-465 618.6,-471 618.6,-471 618.6,-483 618.6,-483 618.6,-489 612.6,-495 606.6,-495"/>
<text text-anchor="middle" x="560.6" y="-480" font-family="sans" font-size="10.00">extract_data_JEDI</text>
<text text-anchor="middle" x="560.6" y="-469" font-family="sans" font-size="10.00">source: DiLiddo2019</text>
</g>
<!-- 7&#45;&gt;22 -->
<g id="edge39" class="edge">
<title>7&#45;&gt;22</title>
<path fill="none" stroke="grey" stroke-width="2" d="M472.21,-602.54C481.93,-592.53 493.95,-579.49 503.6,-567 519.18,-546.85 534.62,-522.38 545.49,-504.21"/>
<polygon fill="grey" stroke="grey" stroke-width="2" points="548.66,-505.72 550.74,-495.33 542.64,-502.16 548.66,-505.72"/>
</g>
<!-- 8&#45;&gt;6 -->
<g id="edge14" class="edge">
<title>8&#45;&gt;6</title>
<path fill="none" stroke="grey" stroke-width="2" d="M371.12,-458.7C385.58,-446.5 405.15,-429.99 421.13,-416.51"/>
<polygon fill="grey" stroke="grey" stroke-width="2" points="423.73,-418.9 429.12,-409.78 419.21,-413.55 423.73,-418.9"/>
</g>
<!-- 9 -->
<g id="node10" class="node">
<title>9</title>
<path fill="none" stroke="#9fd856" stroke-width="2" stroke-dasharray="5,2" d="M301.6,-567C301.6,-567 243.6,-567 243.6,-567 237.6,-567 231.6,-561 231.6,-555 231.6,-555 231.6,-543 231.6,-543 231.6,-537 237.6,-531 243.6,-531 243.6,-531 301.6,-531 301.6,-531 307.6,-531 313.6,-537 313.6,-543 313.6,-543 313.6,-555 313.6,-555 313.6,-561 307.6,-567 301.6,-567"/>
<text text-anchor="middle" x="272.6" y="-546.5" font-family="sans" font-size="10.00">canonical_gtf</text>
</g>
<!-- 9&#45;&gt;8 -->
<g id="edge16" class="edge">
<title>9&#45;&gt;8</title>
<path fill="none" stroke="grey" stroke-width="2" d="M291.88,-530.7C301.52,-522.05 313.33,-511.45 323.83,-502.03"/>
<polygon fill="grey" stroke="grey" stroke-width="2" points="326.44,-504.39 331.54,-495.1 321.76,-499.18 326.44,-504.39"/>
</g>
<!-- 14 -->
<g id="node15" class="node">
<title>14</title>
<path fill="none" stroke="#c6d856" stroke-width="2" stroke-dasharray="5,2" d="M138.1,-495C138.1,-495 47.1,-495 47.1,-495 41.1,-495 35.1,-489 35.1,-483 35.1,-483 35.1,-471 35.1,-471 35.1,-465 41.1,-459 47.1,-459 47.1,-459 138.1,-459 138.1,-459 144.1,-459 150.1,-465 150.1,-471 150.1,-471 150.1,-483 150.1,-483 150.1,-489 144.1,-495 138.1,-495"/>
<text text-anchor="middle" x="92.6" y="-480" font-family="sans" font-size="10.00">get_linear_junctions</text>
<text text-anchor="middle" x="92.6" y="-469" font-family="sans" font-size="10.00">source: Wang2019</text>
</g>
<!-- 9&#45;&gt;14 -->
<g id="edge23" class="edge">
<title>9&#45;&gt;14</title>
<path fill="none" stroke="grey" stroke-width="2" d="M231.31,-531.94C205.96,-522.08 173.24,-509.36 145.94,-498.74"/>
<polygon fill="grey" stroke="grey" stroke-width="2" points="147.12,-495.45 136.53,-495.08 144.59,-501.97 147.12,-495.45"/>
</g>
<!-- 20 -->
<g id="node21" class="node">
<title>20</title>
<path fill="none" stroke="#56a9d8" stroke-width="2" stroke-dasharray="5,2" d="M262.6,-495C262.6,-495 180.6,-495 180.6,-495 174.6,-495 168.6,-489 168.6,-483 168.6,-483 168.6,-471 168.6,-471 168.6,-465 174.6,-459 180.6,-459 180.6,-459 262.6,-459 262.6,-459 268.6,-459 274.6,-465 274.6,-471 274.6,-471 274.6,-483 274.6,-483 274.6,-489 268.6,-495 262.6,-495"/>
<text text-anchor="middle" x="221.6" y="-480" font-family="sans" font-size="10.00">extract_data_JEDI</text>
<text text-anchor="middle" x="221.6" y="-469" font-family="sans" font-size="10.00">source: Wang2019</text>
</g>
<!-- 9&#45;&gt;20 -->
<g id="edge36" class="edge">
<title>9&#45;&gt;20</title>
<path fill="none" stroke="grey" stroke-width="2" d="M260,-530.7C254,-522.47 246.73,-512.48 240.12,-503.42"/>
<polygon fill="grey" stroke="grey" stroke-width="2" points="242.78,-501.13 234.06,-495.1 237.12,-505.25 242.78,-501.13"/>
</g>
<!-- 9&#45;&gt;22 -->
<g id="edge40" class="edge">
<title>9&#45;&gt;22</title>
<path fill="none" stroke="grey" stroke-width="2" d="M313.87,-537.97C360.52,-526.63 437.21,-507.99 492.72,-494.5"/>
<polygon fill="grey" stroke="grey" stroke-width="2" points="493.59,-497.89 502.48,-492.13 491.93,-491.09 493.59,-497.89"/>
</g>
<!-- 10 -->
<g id="node11" class="node">
<title>10</title>
<path fill="none" stroke="#56d8b1" stroke-width="2" stroke-dasharray="5,2" d="M483.1,-567C483.1,-567 414.1,-567 414.1,-567 408.1,-567 402.1,-561 402.1,-555 402.1,-555 402.1,-543 402.1,-543 402.1,-537 408.1,-531 414.1,-531 414.1,-531 483.1,-531 483.1,-531 489.1,-531 495.1,-537 495.1,-543 495.1,-543 495.1,-555 495.1,-555 495.1,-561 489.1,-567 483.1,-567"/>
<text text-anchor="middle" x="448.6" y="-552" font-family="sans" font-size="10.00">genomepy</text>
<text text-anchor="middle" x="448.6" y="-541" font-family="sans" font-size="10.00">assembly: hg38</text>
</g>
<!-- 10&#45;&gt;6 -->
<g id="edge15" class="edge">
<title>10&#45;&gt;6</title>
<path fill="none" stroke="grey" stroke-width="2" d="M449.41,-530.82C449.86,-520.45 450.38,-506.97 450.6,-495 451.08,-469.51 450.71,-440.45 450.29,-419.8"/>
<polygon fill="grey" stroke="grey" stroke-width="2" points="453.79,-419.47 450.07,-409.55 446.79,-419.62 453.79,-419.47"/>
</g>
<!-- 11 -->
<g id="node12" class="node">
<title>11</title>
<path fill="none" stroke="#56d892" stroke-width="2" stroke-dasharray="5,2" d="M154.1,-409.5C154.1,-409.5 31.1,-409.5 31.1,-409.5 25.1,-409.5 19.1,-403.5 19.1,-397.5 19.1,-397.5 19.1,-385.5 19.1,-385.5 19.1,-379.5 25.1,-373.5 31.1,-373.5 31.1,-373.5 154.1,-373.5 154.1,-373.5 160.1,-373.5 166.1,-379.5 166.1,-385.5 166.1,-385.5 166.1,-397.5 166.1,-397.5 166.1,-403.5 160.1,-409.5 154.1,-409.5"/>
<text text-anchor="middle" x="92.6" y="-389" font-family="sans" font-size="10.00">extract_DeepCirCode_data</text>
</g>
<!-- 10&#45;&gt;11 -->
<g id="edge20" class="edge">
<title>10&#45;&gt;11</title>
<path fill="none" stroke="grey" stroke-width="2" d="M447.59,-530.76C445.43,-510.44 438.68,-477.15 417.6,-459 352.15,-402.63 311.18,-440.59 226.6,-423 209.91,-419.53 192.09,-415.62 175.08,-411.78"/>
<polygon fill="grey" stroke="grey" stroke-width="2" points="175.69,-408.33 165.17,-409.54 174.15,-415.16 175.69,-408.33"/>
</g>
<!-- 10&#45;&gt;20 -->
<g id="edge37" class="edge">
<title>10&#45;&gt;20</title>
<path fill="none" stroke="grey" stroke-width="2" d="M401.84,-533.58C367.89,-523.11 321.57,-508.83 284.39,-497.36"/>
<polygon fill="grey" stroke="grey" stroke-width="2" points="285.25,-493.96 274.66,-494.36 283.19,-500.65 285.25,-493.96"/>
</g>
<!-- 10&#45;&gt;22 -->
<g id="edge41" class="edge">
<title>10&#45;&gt;22</title>
<path fill="none" stroke="grey" stroke-width="2" d="M476,-530.88C490.51,-521.81 508.52,-510.55 524.19,-500.76"/>
<polygon fill="grey" stroke="grey" stroke-width="2" points="526.47,-503.46 533.1,-495.19 522.76,-497.52 526.47,-503.46"/>
</g>
<!-- 11&#45;&gt;3 -->
<g id="edge8" class="edge">
<title>11&#45;&gt;3</title>
<path fill="none" stroke="grey" stroke-width="2" d="M94.24,-373.43C96.56,-352.77 101.68,-317.12 111.6,-288 123.87,-251.98 144.96,-213.42 159.57,-188.81"/>
<polygon fill="grey" stroke="grey" stroke-width="2" points="162.65,-190.46 164.81,-180.09 156.66,-186.86 162.65,-190.46"/>
</g>
<!-- 11&#45;&gt;4 -->
<g id="edge10" class="edge">
<title>11&#45;&gt;4</title>
<path fill="none" stroke="grey" stroke-width="2" d="M162.5,-373.45C188.52,-363.44 215.59,-347.89 231.6,-324 243.68,-305.97 244.03,-280.98 241.87,-262.07"/>
<polygon fill="grey" stroke="grey" stroke-width="2" points="245.31,-261.41 240.43,-252.01 238.38,-262.4 245.31,-261.41"/>
</g>
<!-- 11&#45;&gt;5 -->
<g id="edge12" class="edge">
<title>11&#45;&gt;5</title>
<path fill="none" stroke="grey" stroke-width="2" d="M108.97,-373.2C120.31,-361.22 135.56,-345.09 148.18,-331.76"/>
<polygon fill="grey" stroke="grey" stroke-width="2" points="150.92,-333.95 155.25,-324.28 145.84,-329.14 150.92,-333.95"/>
</g>
<!-- 11&#45;&gt;15 -->
<g id="edge27" class="edge">
<title>11&#45;&gt;15</title>
<path fill="none" stroke="grey" stroke-width="2" d="M77.02,-373.32C55.78,-348.63 18.76,-300.69 4.6,-252 0.13,-236.64 -2.37,-230.4 4.6,-216 11.32,-202.12 23.64,-190.77 35.9,-182.18"/>
<polygon fill="grey" stroke="grey" stroke-width="2" points="37.85,-185.09 44.31,-176.68 34.02,-179.23 37.85,-185.09"/>
</g>
<!-- 11&#45;&gt;16 -->
<g id="edge29" class="edge">
<title>11&#45;&gt;16</title>
<path fill="none" stroke="grey" stroke-width="2" d="M87.06,-373.26C78.39,-346.29 61.54,-293.9 51.26,-261.92"/>
<polygon fill="grey" stroke="grey" stroke-width="2" points="54.56,-260.76 48.17,-252.31 47.9,-262.9 54.56,-260.76"/>
</g>
<!-- 12&#45;&gt;11 -->
<g id="edge18" class="edge">
<title>12&#45;&gt;11</title>
<path fill="none" stroke="grey" stroke-width="2" d="M77.04,-534.55C57.54,-526.44 36.92,-513.9 25.6,-495 9.04,-467.35 35.59,-436.51 60,-415.94"/>
<polygon fill="grey" stroke="grey" stroke-width="2" points="62.21,-418.65 67.79,-409.65 57.81,-413.21 62.21,-418.65"/>
</g>
<!-- 12&#45;&gt;14 -->
<g id="edge24" class="edge">
<title>12&#45;&gt;14</title>
<path fill="none" stroke="grey" stroke-width="2" d="M116.69,-530.7C113.05,-522.73 108.65,-513.1 104.61,-504.26"/>
<polygon fill="grey" stroke="grey" stroke-width="2" points="107.76,-502.74 100.42,-495.1 101.4,-505.65 107.76,-502.74"/>
</g>
<!-- 12&#45;&gt;20 -->
<g id="edge35" class="edge">
<title>12&#45;&gt;20</title>
<path fill="none" stroke="grey" stroke-width="2" d="M148.58,-530.7C160.91,-521.8 176.12,-510.82 189.46,-501.2"/>
<polygon fill="grey" stroke="grey" stroke-width="2" points="191.84,-503.79 197.9,-495.1 187.74,-498.12 191.84,-503.79"/>
</g>
<!-- 13 -->
<g id="node14" class="node">
<title>13</title>
<path fill="none" stroke="#61d856" stroke-width="2" stroke-dasharray="5,2" d="M167.6,-639C167.6,-639 81.6,-639 81.6,-639 75.6,-639 69.6,-633 69.6,-627 69.6,-627 69.6,-615 69.6,-615 69.6,-609 75.6,-603 81.6,-603 81.6,-603 167.6,-603 167.6,-603 173.6,-603 179.6,-609 179.6,-615 179.6,-615 179.6,-627 179.6,-627 179.6,-633 173.6,-639 167.6,-639"/>
<text text-anchor="middle" x="124.6" y="-618.5" font-family="sans" font-size="10.00">download_chainfile</text>
</g>
<!-- 13&#45;&gt;12 -->
<g id="edge22" class="edge">
<title>13&#45;&gt;12</title>
<path fill="none" stroke="grey" stroke-width="2" d="M124.6,-602.7C124.6,-594.98 124.6,-585.71 124.6,-577.11"/>
<polygon fill="grey" stroke="grey" stroke-width="2" points="128.1,-577.1 124.6,-567.1 121.1,-577.1 128.1,-577.1"/>
</g>
<!-- 14&#45;&gt;11 -->
<g id="edge19" class="edge">
<title>14&#45;&gt;11</title>
<path fill="none" stroke="grey" stroke-width="2" d="M92.6,-458.7C92.6,-447.5 92.6,-432.69 92.6,-419.91"/>
<polygon fill="grey" stroke="grey" stroke-width="2" points="96.1,-419.78 92.6,-409.78 89.1,-419.78 96.1,-419.78"/>
</g>
<!-- 15&#45;&gt;2 -->
<g id="edge4" class="edge">
<title>15&#45;&gt;2</title>
<path fill="none" stroke="grey" stroke-width="2" d="M97.04,-143.88C110.39,-134.89 126.93,-123.76 141.38,-114.03"/>
<polygon fill="grey" stroke="grey" stroke-width="2" points="143.72,-116.68 150.06,-108.19 139.81,-110.87 143.72,-116.68"/>
</g>
<!-- 16&#45;&gt;15 -->
<g id="edge25" class="edge">
<title>16&#45;&gt;15</title>
<path fill="none" stroke="grey" stroke-width="2" d="M49.77,-215.7C53.04,-207.81 56.98,-198.3 60.6,-189.55"/>
<polygon fill="grey" stroke="grey" stroke-width="2" points="63.92,-190.68 64.52,-180.1 57.46,-188 63.92,-190.68"/>
</g>
<!-- 17 -->
<g id="node18" class="node">
<title>17</title>
<path fill="none" stroke="#d8cb56" stroke-width="2" stroke-dasharray="5,2" d="M306.1,-180C306.1,-180 255.1,-180 255.1,-180 249.1,-180 243.1,-174 243.1,-168 243.1,-168 243.1,-156 243.1,-156 243.1,-150 249.1,-144 255.1,-144 255.1,-144 306.1,-144 306.1,-144 312.1,-144 318.1,-150 318.1,-156 318.1,-156 318.1,-168 318.1,-168 318.1,-174 312.1,-180 306.1,-180"/>
<text text-anchor="middle" x="280.6" y="-159.5" font-family="sans" font-size="10.00">predict_JEDI</text>
</g>
<!-- 17&#45;&gt;2 -->
<g id="edge5" class="edge">
<title>17&#45;&gt;2</title>
<path fill="none" stroke="grey" stroke-width="2" d="M254.92,-143.88C241.31,-134.81 224.43,-123.55 209.74,-113.76"/>
<polygon fill="grey" stroke="grey" stroke-width="2" points="211.65,-110.82 201.39,-108.19 207.77,-116.65 211.65,-110.82"/>
</g>
<!-- 18 -->
<g id="node19" class="node">
<title>18</title>
<path fill="none" stroke="#56d8c1" stroke-width="2" stroke-dasharray="5,2" d="M330.6,-324C330.6,-324 290.6,-324 290.6,-324 284.6,-324 278.6,-318 278.6,-312 278.6,-312 278.6,-300 278.6,-300 278.6,-294 284.6,-288 290.6,-288 290.6,-288 330.6,-288 330.6,-288 336.6,-288 342.6,-294 342.6,-300 342.6,-300 342.6,-312 342.6,-312 342.6,-318 336.6,-324 330.6,-324"/>
<text text-anchor="middle" x="310.6" y="-303.5" font-family="sans" font-size="10.00">train_JEDI</text>
</g>
<!-- 18&#45;&gt;17 -->
<g id="edge30" class="edge">
<title>18&#45;&gt;17</title>
<path fill="none" stroke="grey" stroke-width="2" d="M306.98,-287.87C301.85,-263.56 292.39,-218.82 286.31,-190.01"/>
<polygon fill="grey" stroke="grey" stroke-width="2" points="289.73,-189.25 284.23,-180.19 282.88,-190.7 289.73,-189.25"/>
</g>
<!-- 19 -->
<g id="node20" class="node">
<title>19</title>
<path fill="none" stroke="#d88556" stroke-width="2" stroke-dasharray="5,2" d="M345.6,-417.5C345.6,-417.5 247.6,-417.5 247.6,-417.5 241.6,-417.5 235.6,-411.5 235.6,-405.5 235.6,-405.5 235.6,-377.5 235.6,-377.5 235.6,-371.5 241.6,-365.5 247.6,-365.5 247.6,-365.5 345.6,-365.5 345.6,-365.5 351.6,-365.5 357.6,-371.5 357.6,-377.5 357.6,-377.5 357.6,-405.5 357.6,-405.5 357.6,-411.5 351.6,-417.5 345.6,-417.5"/>
<text text-anchor="middle" x="296.6" y="-405.5" font-family="sans" font-size="10.00">extract_features_JEDI</text>
<text text-anchor="middle" x="296.6" y="-394.5" font-family="sans" font-size="10.00">K: 3</text>
<text text-anchor="middle" x="296.6" y="-383.5" font-family="sans" font-size="10.00">L: 4</text>
<text text-anchor="middle" x="296.6" y="-372.5" font-family="sans" font-size="10.00">train_test: train</text>
</g>
<!-- 19&#45;&gt;18 -->
<g id="edge31" class="edge">
<title>19&#45;&gt;18</title>
<path fill="none" stroke="grey" stroke-width="2" d="M300.8,-365.45C302.46,-355.54 304.38,-344.12 306.07,-334.02"/>
<polygon fill="grey" stroke="grey" stroke-width="2" points="309.53,-334.54 307.74,-324.1 302.63,-333.38 309.53,-334.54"/>
</g>
<!-- 20&#45;&gt;18 -->
<g id="edge33" class="edge">
<title>20&#45;&gt;18</title>
<path fill="none" stroke="grey" stroke-width="2" d="M217.7,-458.9C213.22,-435 208.6,-391.04 226.6,-360 236.07,-343.66 252.81,-331.61 268.87,-323.16"/>
<polygon fill="grey" stroke="grey" stroke-width="2" points="270.74,-326.13 278.18,-318.59 267.66,-319.85 270.74,-326.13"/>
</g>
<!-- 20&#45;&gt;19 -->
<g id="edge34" class="edge">
<title>20&#45;&gt;19</title>
<path fill="none" stroke="grey" stroke-width="2" d="M237.14,-458.7C245.79,-449.07 256.84,-436.77 267.06,-425.39"/>
<polygon fill="grey" stroke="grey" stroke-width="2" points="269.89,-427.48 273.97,-417.7 264.68,-422.8 269.89,-427.48"/>
</g>
<!-- 21 -->
<g id="node22" class="node">
<title>21</title>
<path fill="none" stroke="#d88556" stroke-width="2" stroke-dasharray="5,2" d="M651.6,-423C651.6,-423 553.6,-423 553.6,-423 547.6,-423 541.6,-417 541.6,-411 541.6,-411 541.6,-372 541.6,-372 541.6,-366 547.6,-360 553.6,-360 553.6,-360 651.6,-360 651.6,-360 657.6,-360 663.6,-366 663.6,-372 663.6,-372 663.6,-411 663.6,-411 663.6,-417 657.6,-423 651.6,-423"/>
<text text-anchor="middle" x="602.6" y="-411" font-family="sans" font-size="10.00">extract_features_JEDI</text>
<text text-anchor="middle" x="602.6" y="-400" font-family="sans" font-size="10.00">K: 3</text>
<text text-anchor="middle" x="602.6" y="-389" font-family="sans" font-size="10.00">L: 4</text>
<text text-anchor="middle" x="602.6" y="-378" font-family="sans" font-size="10.00">source: Wang2019</text>
<text text-anchor="middle" x="602.6" y="-367" font-family="sans" font-size="10.00">train_test: test</text>
</g>
<!-- 21&#45;&gt;18 -->
<g id="edge32" class="edge">
<title>21&#45;&gt;18</title>
<path fill="none" stroke="grey" stroke-width="2" d="M541.38,-363.1C538.43,-362.01 535.49,-360.97 532.6,-360 471.24,-339.49 397.84,-323.58 352.72,-314.75"/>
<polygon fill="grey" stroke="grey" stroke-width="2" points="353.2,-311.27 342.71,-312.81 351.87,-318.15 353.2,-311.27"/>
</g>
<!-- 22&#45;&gt;21 -->
<g id="edge38" class="edge">
<title>22&#45;&gt;21</title>
<path fill="none" stroke="grey" stroke-width="2" d="M569.3,-458.7C573.16,-451.03 577.87,-441.67 582.52,-432.42"/>
<polygon fill="grey" stroke="grey" stroke-width="2" points="585.75,-433.79 587.12,-423.28 579.5,-430.64 585.75,-433.79"/>
</g>
</g>
</svg>
