<?xml version="1.0" encoding="UTF-8" standalone="no"?>
<!DOCTYPE svg PUBLIC "-//W3C//DTD SVG 1.1//EN"
 "http://www.w3.org/Graphics/SVG/1.1/DTD/svg11.dtd">
<!-- Generated by graphviz version 2.47.2 (20210527.1257)
 -->
<!-- Title: snakemake_dag Pages: 1 -->
<svg width="428pt" height="620pt"
 viewBox="0.00 0.00 428.00 620.00" xmlns="http://www.w3.org/2000/svg" xmlns:xlink="http://www.w3.org/1999/xlink">
<g id="graph0" class="graph" transform="scale(1 1) rotate(0) translate(4 616)">
<title>snakemake_dag</title>
<polygon fill="white" stroke="transparent" points="-4,4 -4,-616 424,-616 424,4 -4,4"/>
<!-- 0 -->
<g id="node1" class="node">
<title>0</title>
<path fill="none" stroke="#9fd856" stroke-width="2" d="M186,-36C186,-36 156,-36 156,-36 150,-36 144,-30 144,-24 144,-24 144,-12 144,-12 144,-6 150,0 156,0 156,0 186,0 186,0 192,0 198,-6 198,-12 198,-12 198,-24 198,-24 198,-30 192,-36 186,-36"/>
<text text-anchor="middle" x="171" y="-15.5" font-family="sans" font-size="10.00">all</text>
</g>
<!-- 1 -->
<g id="node2" class="node">
<title>1</title>
<path fill="none" stroke="#56d8b1" stroke-width="2" d="M152,-108C152,-108 100,-108 100,-108 94,-108 88,-102 88,-96 88,-96 88,-84 88,-84 88,-78 94,-72 100,-72 100,-72 152,-72 152,-72 158,-72 164,-78 164,-84 164,-84 164,-96 164,-96 164,-102 158,-108 152,-108"/>
<text text-anchor="middle" x="126" y="-87.5" font-family="sans" font-size="10.00">dependency</text>
</g>
<!-- 1&#45;&gt;0 -->
<g id="edge2" class="edge">
<title>1&#45;&gt;0</title>
<path fill="none" stroke="grey" stroke-width="2" d="M137.12,-71.7C142.36,-63.56 148.7,-53.69 154.48,-44.7"/>
<polygon fill="grey" stroke="grey" stroke-width="2" points="157.54,-46.41 160,-36.1 151.65,-42.62 157.54,-46.41"/>
</g>
<!-- 2 -->
<g id="node3" class="node">
<title>2</title>
<path fill="none" stroke="#56d85b" stroke-width="2" d="M238,-108C238,-108 194,-108 194,-108 188,-108 182,-102 182,-96 182,-96 182,-84 182,-84 182,-78 188,-72 194,-72 194,-72 238,-72 238,-72 244,-72 250,-78 250,-84 250,-84 250,-96 250,-96 250,-102 244,-108 238,-108"/>
<text text-anchor="middle" x="216" y="-87.5" font-family="sans" font-size="10.00">evaluation</text>
</g>
<!-- 2&#45;&gt;0 -->
<g id="edge1" class="edge">
<title>2&#45;&gt;0</title>
<path fill="none" stroke="grey" stroke-width="2" d="M204.88,-71.7C199.64,-63.56 193.3,-53.69 187.52,-44.7"/>
<polygon fill="grey" stroke="grey" stroke-width="2" points="190.35,-42.62 182,-36.1 184.46,-46.41 190.35,-42.62"/>
</g>
<!-- 3 -->
<g id="node4" class="node">
<title>3</title>
<path fill="none" stroke="#80d856" stroke-width="2" d="M110,-180C110,-180 72,-180 72,-180 66,-180 60,-174 60,-168 60,-168 60,-156 60,-156 60,-150 66,-144 72,-144 72,-144 110,-144 110,-144 116,-144 122,-150 122,-156 122,-156 122,-168 122,-168 122,-174 116,-180 110,-180"/>
<text text-anchor="middle" x="91" y="-159.5" font-family="sans" font-size="10.00">test_SVM</text>
</g>
<!-- 3&#45;&gt;2 -->
<g id="edge5" class="edge">
<title>3&#45;&gt;2</title>
<path fill="none" stroke="grey" stroke-width="2" d="M121.58,-143.88C138.07,-134.64 158.62,-123.13 176.34,-113.21"/>
<polygon fill="grey" stroke="grey" stroke-width="2" points="178.29,-116.13 185.3,-108.19 174.87,-110.02 178.29,-116.13"/>
</g>
<!-- 4 -->
<g id="node5" class="node">
<title>4</title>
<path fill="none" stroke="#d88556" stroke-width="2" d="M81,-252C81,-252 39,-252 39,-252 33,-252 27,-246 27,-240 27,-240 27,-228 27,-228 27,-222 33,-216 39,-216 39,-216 81,-216 81,-216 87,-216 93,-222 93,-228 93,-228 93,-240 93,-240 93,-246 87,-252 81,-252"/>
<text text-anchor="middle" x="60" y="-231.5" font-family="sans" font-size="10.00">train_SVM</text>
</g>
<!-- 4&#45;&gt;3 -->
<g id="edge6" class="edge">
<title>4&#45;&gt;3</title>
<path fill="none" stroke="grey" stroke-width="2" d="M67.66,-215.7C71.19,-207.73 75.46,-198.1 79.37,-189.26"/>
<polygon fill="grey" stroke="grey" stroke-width="2" points="82.58,-190.67 83.43,-180.1 76.18,-187.83 82.58,-190.67"/>
</g>
<!-- 5 -->
<g id="node6" class="node">
<title>5</title>
<path fill="none" stroke="#8fd856" stroke-width="2" d="M177,-324C177,-324 99,-324 99,-324 93,-324 87,-318 87,-312 87,-312 87,-300 87,-300 87,-294 93,-288 99,-288 99,-288 177,-288 177,-288 183,-288 189,-294 189,-300 189,-300 189,-312 189,-312 189,-318 183,-324 177,-324"/>
<text text-anchor="middle" x="138" y="-303.5" font-family="sans" font-size="10.00">SVM_RF_features</text>
</g>
<!-- 5&#45;&gt;3 -->
<g id="edge7" class="edge">
<title>5&#45;&gt;3</title>
<path fill="none" stroke="grey" stroke-width="2" d="M132.33,-287.87C124.29,-263.56 109.48,-218.82 99.94,-190.01"/>
<polygon fill="grey" stroke="grey" stroke-width="2" points="103.15,-188.58 96.69,-180.19 96.51,-190.78 103.15,-188.58"/>
</g>
<!-- 5&#45;&gt;4 -->
<g id="edge10" class="edge">
<title>5&#45;&gt;4</title>
<path fill="none" stroke="grey" stroke-width="2" d="M118.72,-287.7C109.08,-279.05 97.27,-268.45 86.77,-259.03"/>
<polygon fill="grey" stroke="grey" stroke-width="2" points="88.84,-256.18 79.06,-252.1 84.16,-261.39 88.84,-256.18"/>
</g>
<!-- 13 -->
<g id="node14" class="node">
<title>13</title>
<path fill="none" stroke="#56a9d8" stroke-width="2" d="M231,-180C231,-180 201,-180 201,-180 195,-180 189,-174 189,-168 189,-168 189,-156 189,-156 189,-150 195,-144 201,-144 201,-144 231,-144 231,-144 237,-144 243,-150 243,-156 243,-156 243,-168 243,-168 243,-174 237,-180 231,-180"/>
<text text-anchor="middle" x="216" y="-159.5" font-family="sans" font-size="10.00">test_RF</text>
</g>
<!-- 5&#45;&gt;13 -->
<g id="edge23" class="edge">
<title>5&#45;&gt;13</title>
<path fill="none" stroke="grey" stroke-width="2" d="M144.84,-287.82C152.36,-269.56 165.21,-240.06 179,-216 184.36,-206.65 190.9,-196.86 196.99,-188.28"/>
<polygon fill="grey" stroke="grey" stroke-width="2" points="199.84,-190.31 202.86,-180.15 194.16,-186.21 199.84,-190.31"/>
</g>
<!-- 14 -->
<g id="node15" class="node">
<title>14</title>
<path fill="none" stroke="#afd856" stroke-width="2" d="M232.5,-252C232.5,-252 199.5,-252 199.5,-252 193.5,-252 187.5,-246 187.5,-240 187.5,-240 187.5,-228 187.5,-228 187.5,-222 193.5,-216 199.5,-216 199.5,-216 232.5,-216 232.5,-216 238.5,-216 244.5,-222 244.5,-228 244.5,-228 244.5,-240 244.5,-240 244.5,-246 238.5,-252 232.5,-252"/>
<text text-anchor="middle" x="216" y="-231.5" font-family="sans" font-size="10.00">train_RF</text>
</g>
<!-- 5&#45;&gt;14 -->
<g id="edge25" class="edge">
<title>5&#45;&gt;14</title>
<path fill="none" stroke="grey" stroke-width="2" d="M157.28,-287.7C166.92,-279.05 178.73,-268.45 189.23,-259.03"/>
<polygon fill="grey" stroke="grey" stroke-width="2" points="191.84,-261.39 196.94,-252.1 187.16,-256.18 191.84,-261.39"/>
</g>
<!-- 6 -->
<g id="node7" class="node">
<title>6</title>
<path fill="none" stroke="#d87556" stroke-width="2" d="M199.5,-396C199.5,-396 76.5,-396 76.5,-396 70.5,-396 64.5,-390 64.5,-384 64.5,-384 64.5,-372 64.5,-372 64.5,-366 70.5,-360 76.5,-360 76.5,-360 199.5,-360 199.5,-360 205.5,-360 211.5,-366 211.5,-372 211.5,-372 211.5,-384 211.5,-384 211.5,-390 205.5,-396 199.5,-396"/>
<text text-anchor="middle" x="138" y="-375.5" font-family="sans" font-size="10.00">extract_DeepCirCode_data</text>
</g>
<!-- 6&#45;&gt;3 -->
<g id="edge8" class="edge">
<title>6&#45;&gt;3</title>
<path fill="none" stroke="grey" stroke-width="2" d="M106.79,-359.81C91.78,-350.53 74.21,-338.09 61,-324 35.51,-296.81 27.91,-287.93 18,-252 13.74,-236.58 10.73,-230.25 18,-216 25.17,-201.94 38,-190.74 50.93,-182.32"/>
<polygon fill="grey" stroke="grey" stroke-width="2" points="53.08,-185.11 59.82,-176.94 49.46,-179.12 53.08,-185.11"/>
</g>
<!-- 6&#45;&gt;4 -->
<g id="edge9" class="edge">
<title>6&#45;&gt;4</title>
<path fill="none" stroke="grey" stroke-width="2" d="M111.64,-359.78C99.59,-350.58 86.2,-338.2 78,-324 67.13,-305.17 62.75,-280.79 61.02,-262.31"/>
<polygon fill="grey" stroke="grey" stroke-width="2" points="64.5,-261.92 60.28,-252.2 57.52,-262.43 64.5,-261.92"/>
</g>
<!-- 6&#45;&gt;5 -->
<g id="edge11" class="edge">
<title>6&#45;&gt;5</title>
<path fill="none" stroke="grey" stroke-width="2" d="M138,-359.7C138,-351.98 138,-342.71 138,-334.11"/>
<polygon fill="grey" stroke="grey" stroke-width="2" points="141.5,-334.1 138,-324.1 134.5,-334.1 141.5,-334.1"/>
</g>
<!-- 6&#45;&gt;13 -->
<g id="edge21" class="edge">
<title>6&#45;&gt;13</title>
<path fill="none" stroke="grey" stroke-width="2" d="M172.11,-359.77C187.56,-350.71 205.19,-338.47 218,-324 241.72,-297.21 245.78,-286.82 254,-252 257.68,-236.43 258.9,-231.23 254,-216 250.81,-206.08 245,-196.44 238.87,-188.17"/>
<polygon fill="grey" stroke="grey" stroke-width="2" points="241.42,-185.74 232.46,-180.08 235.93,-190.09 241.42,-185.74"/>
</g>
<!-- 6&#45;&gt;14 -->
<g id="edge24" class="edge">
<title>6&#45;&gt;14</title>
<path fill="none" stroke="grey" stroke-width="2" d="M164.36,-359.78C176.41,-350.58 189.8,-338.2 198,-324 208.87,-305.17 213.25,-280.79 214.98,-262.31"/>
<polygon fill="grey" stroke="grey" stroke-width="2" points="218.48,-262.43 215.72,-252.2 211.5,-261.92 218.48,-262.43"/>
</g>
<!-- 7 -->
<g id="node8" class="node">
<title>7</title>
<path fill="none" stroke="#56d8c1" stroke-width="2" d="M92,-612C92,-612 12,-612 12,-612 6,-612 0,-606 0,-600 0,-600 0,-588 0,-588 0,-582 6,-576 12,-576 12,-576 92,-576 92,-576 98,-576 104,-582 104,-588 104,-588 104,-600 104,-600 104,-606 98,-612 92,-612"/>
<text text-anchor="middle" x="52" y="-591.5" font-family="sans" font-size="10.00">data_DiLiddo2019</text>
</g>
<!-- 7&#45;&gt;6 -->
<g id="edge13" class="edge">
<title>7&#45;&gt;6</title>
<path fill="none" stroke="grey" stroke-width="2" d="M45.71,-575.59C35.59,-544.41 19.41,-478.01 46,-432 53.57,-418.9 65.74,-408.76 78.78,-401.02"/>
<polygon fill="grey" stroke="grey" stroke-width="2" points="80.81,-403.9 87.91,-396.03 77.45,-397.75 80.81,-403.9"/>
</g>
<!-- 8 -->
<g id="node9" class="node">
<title>8</title>
<path fill="none" stroke="#d8bc56" stroke-width="2" d="M157.5,-468C157.5,-468 66.5,-468 66.5,-468 60.5,-468 54.5,-462 54.5,-456 54.5,-456 54.5,-444 54.5,-444 54.5,-438 60.5,-432 66.5,-432 66.5,-432 157.5,-432 157.5,-432 163.5,-432 169.5,-438 169.5,-444 169.5,-444 169.5,-456 169.5,-456 169.5,-462 163.5,-468 157.5,-468"/>
<text text-anchor="middle" x="112" y="-447.5" font-family="sans" font-size="10.00">get_linear_junctions</text>
</g>
<!-- 7&#45;&gt;8 -->
<g id="edge16" class="edge">
<title>7&#45;&gt;8</title>
<path fill="none" stroke="grey" stroke-width="2" d="M53.66,-575.91C55.95,-557.46 61.08,-527.57 72,-504 76.51,-494.27 83.02,-484.62 89.48,-476.27"/>
<polygon fill="grey" stroke="grey" stroke-width="2" points="92.28,-478.37 95.85,-468.4 86.84,-473.97 92.28,-478.37"/>
</g>
<!-- 11 -->
<g id="node12" class="node">
<title>11</title>
<path fill="none" stroke="#56d8d0" stroke-width="2" d="M163.5,-540C163.5,-540 92.5,-540 92.5,-540 86.5,-540 80.5,-534 80.5,-528 80.5,-528 80.5,-516 80.5,-516 80.5,-510 86.5,-504 92.5,-504 92.5,-504 163.5,-504 163.5,-504 169.5,-504 175.5,-510 175.5,-516 175.5,-516 175.5,-528 175.5,-528 175.5,-534 169.5,-540 163.5,-540"/>
<text text-anchor="middle" x="128" y="-519.5" font-family="sans" font-size="10.00">data_Wang2019</text>
</g>
<!-- 7&#45;&gt;11 -->
<g id="edge19" class="edge">
<title>7&#45;&gt;11</title>
<path fill="none" stroke="grey" stroke-width="2" d="M70.79,-575.7C80.17,-567.05 91.68,-556.45 101.91,-547.03"/>
<polygon fill="grey" stroke="grey" stroke-width="2" points="104.45,-549.45 109.43,-540.1 99.7,-544.3 104.45,-549.45"/>
</g>
<!-- 18 -->
<g id="node19" class="node">
<title>18</title>
<path fill="none" stroke="#d8ac56" stroke-width="2" d="M364.5,-468C364.5,-468 285.5,-468 285.5,-468 279.5,-468 273.5,-462 273.5,-456 273.5,-456 273.5,-444 273.5,-444 273.5,-438 279.5,-432 285.5,-432 285.5,-432 364.5,-432 364.5,-432 370.5,-432 376.5,-438 376.5,-444 376.5,-444 376.5,-456 376.5,-456 376.5,-462 370.5,-468 364.5,-468"/>
<text text-anchor="middle" x="325" y="-447.5" font-family="sans" font-size="10.00">extract_data_JEDI</text>
</g>
<!-- 7&#45;&gt;18 -->
<g id="edge31" class="edge">
<title>7&#45;&gt;18</title>
<path fill="none" stroke="grey" stroke-width="2" d="M104.13,-577.98C107.12,-577.27 110.09,-576.6 113,-576 169.67,-564.2 333,-583.67 371,-540 387.73,-520.77 370.23,-494.39 352.21,-475.35"/>
<polygon fill="grey" stroke="grey" stroke-width="2" points="354.62,-472.81 345.09,-468.19 349.66,-477.75 354.62,-472.81"/>
</g>
<!-- 8&#45;&gt;6 -->
<g id="edge14" class="edge">
<title>8&#45;&gt;6</title>
<path fill="none" stroke="grey" stroke-width="2" d="M118.43,-431.7C121.36,-423.81 124.89,-414.3 128.14,-405.55"/>
<polygon fill="grey" stroke="grey" stroke-width="2" points="131.45,-406.7 131.65,-396.1 124.88,-404.26 131.45,-406.7"/>
</g>
<!-- 9 -->
<g id="node10" class="node">
<title>9</title>
<path fill="none" stroke="#61d856" stroke-width="2" d="M264,-540C264,-540 206,-540 206,-540 200,-540 194,-534 194,-528 194,-528 194,-516 194,-516 194,-510 200,-504 206,-504 206,-504 264,-504 264,-504 270,-504 276,-510 276,-516 276,-516 276,-528 276,-528 276,-534 270,-540 264,-540"/>
<text text-anchor="middle" x="235" y="-519.5" font-family="sans" font-size="10.00">canonical_gtf</text>
</g>
<!-- 9&#45;&gt;8 -->
<g id="edge17" class="edge">
<title>9&#45;&gt;8</title>
<path fill="none" stroke="grey" stroke-width="2" d="M204.91,-503.88C188.68,-494.64 168.46,-483.13 151.03,-473.21"/>
<polygon fill="grey" stroke="grey" stroke-width="2" points="152.63,-470.09 142.2,-468.19 149.16,-476.18 152.63,-470.09"/>
</g>
<!-- 9&#45;&gt;18 -->
<g id="edge32" class="edge">
<title>9&#45;&gt;18</title>
<path fill="none" stroke="grey" stroke-width="2" d="M257.25,-503.7C268.58,-494.88 282.53,-484.03 294.82,-474.47"/>
<polygon fill="grey" stroke="grey" stroke-width="2" points="297.26,-477.01 303.01,-468.1 292.97,-471.48 297.26,-477.01"/>
</g>
<!-- 10 -->
<g id="node11" class="node">
<title>10</title>
<path fill="none" stroke="#70d856" stroke-width="2" d="M350,-540C350,-540 306,-540 306,-540 300,-540 294,-534 294,-528 294,-528 294,-516 294,-516 294,-510 300,-504 306,-504 306,-504 350,-504 350,-504 356,-504 362,-510 362,-516 362,-516 362,-528 362,-528 362,-534 356,-540 350,-540"/>
<text text-anchor="middle" x="328" y="-519.5" font-family="sans" font-size="10.00">genomepy</text>
</g>
<!-- 10&#45;&gt;6 -->
<g id="edge12" class="edge">
<title>10&#45;&gt;6</title>
<path fill="none" stroke="grey" stroke-width="2" d="M305.08,-503.87C271.13,-478.5 207.38,-430.85 169.2,-402.32"/>
<polygon fill="grey" stroke="grey" stroke-width="2" points="171.11,-399.37 161,-396.19 166.91,-404.98 171.11,-399.37"/>
</g>
<!-- 10&#45;&gt;18 -->
<g id="edge30" class="edge">
<title>10&#45;&gt;18</title>
<path fill="none" stroke="grey" stroke-width="2" d="M327.26,-503.7C326.93,-495.98 326.53,-486.71 326.16,-478.11"/>
<polygon fill="grey" stroke="grey" stroke-width="2" points="329.66,-477.95 325.73,-468.1 322.66,-478.25 329.66,-477.95"/>
</g>
<!-- 11&#45;&gt;6 -->
<g id="edge15" class="edge">
<title>11&#45;&gt;6</title>
<path fill="none" stroke="grey" stroke-width="2" d="M151.3,-503.82C161.9,-494.54 173.32,-482.09 179,-468 184.98,-453.16 184.17,-447.14 179,-432 175.56,-421.93 169.34,-412.28 162.77,-404.05"/>
<polygon fill="grey" stroke="grey" stroke-width="2" points="165.32,-401.65 156.17,-396.32 160,-406.2 165.32,-401.65"/>
</g>
<!-- 11&#45;&gt;8 -->
<g id="edge18" class="edge">
<title>11&#45;&gt;8</title>
<path fill="none" stroke="grey" stroke-width="2" d="M124.04,-503.7C122.28,-495.98 120.16,-486.71 118.2,-478.11"/>
<polygon fill="grey" stroke="grey" stroke-width="2" points="121.55,-477.07 115.91,-468.1 114.73,-478.63 121.55,-477.07"/>
</g>
<!-- 11&#45;&gt;18 -->
<g id="edge33" class="edge">
<title>11&#45;&gt;18</title>
<path fill="none" stroke="grey" stroke-width="2" d="M175.69,-504.05C203.31,-494.24 238.28,-481.82 267.42,-471.46"/>
<polygon fill="grey" stroke="grey" stroke-width="2" points="268.82,-474.68 277.07,-468.03 266.47,-468.08 268.82,-474.68"/>
</g>
<!-- 12 -->
<g id="node13" class="node">
<title>12</title>
<path fill="none" stroke="#567bd8" stroke-width="2" d="M220,-612C220,-612 134,-612 134,-612 128,-612 122,-606 122,-600 122,-600 122,-588 122,-588 122,-582 128,-576 134,-576 134,-576 220,-576 220,-576 226,-576 232,-582 232,-588 232,-588 232,-600 232,-600 232,-606 226,-612 220,-612"/>
<text text-anchor="middle" x="177" y="-591.5" font-family="sans" font-size="10.00">download_chainfile</text>
</g>
<!-- 12&#45;&gt;11 -->
<g id="edge20" class="edge">
<title>12&#45;&gt;11</title>
<path fill="none" stroke="grey" stroke-width="2" d="M164.89,-575.7C159.13,-567.47 152.14,-557.48 145.79,-548.42"/>
<polygon fill="grey" stroke="grey" stroke-width="2" points="148.58,-546.29 139.97,-540.1 142.84,-550.3 148.58,-546.29"/>
</g>
<!-- 13&#45;&gt;2 -->
<g id="edge4" class="edge">
<title>13&#45;&gt;2</title>
<path fill="none" stroke="grey" stroke-width="2" d="M216,-143.7C216,-135.98 216,-126.71 216,-118.11"/>
<polygon fill="grey" stroke="grey" stroke-width="2" points="219.5,-118.1 216,-108.1 212.5,-118.1 219.5,-118.1"/>
</g>
<!-- 14&#45;&gt;13 -->
<g id="edge22" class="edge">
<title>14&#45;&gt;13</title>
<path fill="none" stroke="grey" stroke-width="2" d="M216,-215.7C216,-207.98 216,-198.71 216,-190.11"/>
<polygon fill="grey" stroke="grey" stroke-width="2" points="219.5,-190.1 216,-180.1 212.5,-190.1 219.5,-190.1"/>
</g>
<!-- 15 -->
<g id="node16" class="node">
<title>15</title>
<path fill="none" stroke="#d85656" stroke-width="2" d="M341.5,-180C341.5,-180 290.5,-180 290.5,-180 284.5,-180 278.5,-174 278.5,-168 278.5,-168 278.5,-156 278.5,-156 278.5,-150 284.5,-144 290.5,-144 290.5,-144 341.5,-144 341.5,-144 347.5,-144 353.5,-150 353.5,-156 353.5,-156 353.5,-168 353.5,-168 353.5,-174 347.5,-180 341.5,-180"/>
<text text-anchor="middle" x="316" y="-159.5" font-family="sans" font-size="10.00">predict_JEDI</text>
</g>
<!-- 15&#45;&gt;2 -->
<g id="edge3" class="edge">
<title>15&#45;&gt;2</title>
<path fill="none" stroke="grey" stroke-width="2" d="M291.54,-143.88C278.7,-134.89 262.8,-123.76 248.91,-114.03"/>
<polygon fill="grey" stroke="grey" stroke-width="2" points="250.76,-111.06 240.56,-108.19 246.74,-116.79 250.76,-111.06"/>
</g>
<!-- 16 -->
<g id="node17" class="node">
<title>16</title>
<path fill="none" stroke="#568ad8" stroke-width="2" d="M353,-324C353,-324 313,-324 313,-324 307,-324 301,-318 301,-312 301,-312 301,-300 301,-300 301,-294 307,-288 313,-288 313,-288 353,-288 353,-288 359,-288 365,-294 365,-300 365,-300 365,-312 365,-312 365,-318 359,-324 353,-324"/>
<text text-anchor="middle" x="333" y="-303.5" font-family="sans" font-size="10.00">train_JEDI</text>
</g>
<!-- 16&#45;&gt;15 -->
<g id="edge26" class="edge">
<title>16&#45;&gt;15</title>
<path fill="none" stroke="grey" stroke-width="2" d="M330.95,-287.87C328.05,-263.67 322.73,-219.21 319.28,-190.39"/>
<polygon fill="grey" stroke="grey" stroke-width="2" points="322.72,-189.7 318.06,-180.19 315.77,-190.53 322.72,-189.7"/>
</g>
<!-- 17 -->
<g id="node18" class="node">
<title>17</title>
<path fill="none" stroke="#56c9d8" stroke-width="2" d="M408,-396C408,-396 310,-396 310,-396 304,-396 298,-390 298,-384 298,-384 298,-372 298,-372 298,-366 304,-360 310,-360 310,-360 408,-360 408,-360 414,-360 420,-366 420,-372 420,-372 420,-384 420,-384 420,-390 414,-396 408,-396"/>
<text text-anchor="middle" x="359" y="-375.5" font-family="sans" font-size="10.00">extract_features_JEDI</text>
</g>
<!-- 17&#45;&gt;16 -->
<g id="edge28" class="edge">
<title>17&#45;&gt;16</title>
<path fill="none" stroke="grey" stroke-width="2" d="M352.57,-359.7C349.64,-351.81 346.11,-342.3 342.86,-333.55"/>
<polygon fill="grey" stroke="grey" stroke-width="2" points="346.12,-332.26 339.35,-324.1 339.55,-334.7 346.12,-332.26"/>
</g>
<!-- 18&#45;&gt;16 -->
<g id="edge27" class="edge">
<title>18&#45;&gt;16</title>
<path fill="none" stroke="grey" stroke-width="2" d="M309.39,-431.77C301.63,-422.03 293.05,-409.18 289,-396 284.3,-380.71 283.57,-375.05 289,-360 292.75,-349.6 299.54,-339.8 306.67,-331.52"/>
<polygon fill="grey" stroke="grey" stroke-width="2" points="309.32,-333.81 313.53,-324.08 304.17,-329.06 309.32,-333.81"/>
</g>
<!-- 18&#45;&gt;17 -->
<g id="edge29" class="edge">
<title>18&#45;&gt;17</title>
<path fill="none" stroke="grey" stroke-width="2" d="M333.4,-431.7C337.27,-423.73 341.95,-414.1 346.24,-405.26"/>
<polygon fill="grey" stroke="grey" stroke-width="2" points="349.47,-406.63 350.69,-396.1 343.17,-403.57 349.47,-406.63"/>
</g>
</g>
</svg>
