<?xml version="1.0" encoding="UTF-8" standalone="no"?>
<!DOCTYPE svg PUBLIC "-//W3C//DTD SVG 1.1//EN"
 "http://www.w3.org/Graphics/SVG/1.1/DTD/svg11.dtd">
<!-- Generated by graphviz version 2.47.2 (20210527.1257)
 -->
<!-- Title: snakemake_dag Pages: 1 -->
<svg width="389pt" height="404pt"
 viewBox="0.00 0.00 389.21 404.00" xmlns="http://www.w3.org/2000/svg" xmlns:xlink="http://www.w3.org/1999/xlink">
<g id="graph0" class="graph" transform="scale(1 1) rotate(0) translate(4 400)">
<title>snakemake_dag</title>
<polygon fill="white" stroke="transparent" points="-4,4 -4,-400 385.21,-400 385.21,4 -4,4"/>
<!-- 0 -->
<g id="node1" class="node">
<title>0</title>
<path fill="none" stroke="#59d856" stroke-width="2" d="M107.21,-36C107.21,-36 77.21,-36 77.21,-36 71.21,-36 65.21,-30 65.21,-24 65.21,-24 65.21,-12 65.21,-12 65.21,-6 71.21,0 77.21,0 77.21,0 107.21,0 107.21,0 113.21,0 119.21,-6 119.21,-12 119.21,-12 119.21,-24 119.21,-24 119.21,-30 113.21,-36 107.21,-36"/>
<text text-anchor="middle" x="92.21" y="-15.5" font-family="sans" font-size="10.00">all</text>
</g>
<!-- 1 -->
<g id="node2" class="node">
<title>1</title>
<path fill="none" stroke="#d89556" stroke-width="2" d="M73.21,-108C73.21,-108 21.21,-108 21.21,-108 15.21,-108 9.21,-102 9.21,-96 9.21,-96 9.21,-84 9.21,-84 9.21,-78 15.21,-72 21.21,-72 21.21,-72 73.21,-72 73.21,-72 79.21,-72 85.21,-78 85.21,-84 85.21,-84 85.21,-96 85.21,-96 85.21,-102 79.21,-108 73.21,-108"/>
<text text-anchor="middle" x="47.21" y="-87.5" font-family="sans" font-size="10.00">dependency</text>
</g>
<!-- 1&#45;&gt;0 -->
<g id="edge2" class="edge">
<title>1&#45;&gt;0</title>
<path fill="none" stroke="grey" stroke-width="2" d="M58.33,-71.7C63.56,-63.56 69.91,-53.69 75.68,-44.7"/>
<polygon fill="grey" stroke="grey" stroke-width="2" points="78.75,-46.41 81.21,-36.1 72.86,-42.62 78.75,-46.41"/>
</g>
<!-- 2 -->
<g id="node3" class="node">
<title>2</title>
<path fill="none" stroke="#d85656" stroke-width="2" d="M159.21,-108C159.21,-108 115.21,-108 115.21,-108 109.21,-108 103.21,-102 103.21,-96 103.21,-96 103.21,-84 103.21,-84 103.21,-78 109.21,-72 115.21,-72 115.21,-72 159.21,-72 159.21,-72 165.21,-72 171.21,-78 171.21,-84 171.21,-84 171.21,-96 171.21,-96 171.21,-102 165.21,-108 159.21,-108"/>
<text text-anchor="middle" x="137.21" y="-87.5" font-family="sans" font-size="10.00">evaluation</text>
</g>
<!-- 2&#45;&gt;0 -->
<g id="edge1" class="edge">
<title>2&#45;&gt;0</title>
<path fill="none" stroke="grey" stroke-width="2" d="M126.08,-71.7C120.85,-63.56 114.51,-53.69 108.73,-44.7"/>
<polygon fill="grey" stroke="grey" stroke-width="2" points="111.55,-42.62 103.2,-36.1 105.66,-46.41 111.55,-42.62"/>
</g>
<!-- 3 -->
<g id="node4" class="node">
<title>3</title>
<path fill="none" stroke="#569ad8" stroke-width="2" d="M174.21,-180C174.21,-180 100.21,-180 100.21,-180 94.21,-180 88.21,-174 88.21,-168 88.21,-168 88.21,-156 88.21,-156 88.21,-150 94.21,-144 100.21,-144 100.21,-144 174.21,-144 174.21,-144 180.21,-144 186.21,-150 186.21,-156 186.21,-156 186.21,-168 186.21,-168 186.21,-174 180.21,-180 174.21,-180"/>
<text text-anchor="middle" x="137.21" y="-159.5" font-family="sans" font-size="10.00">predict_circDeep</text>
</g>
<!-- 3&#45;&gt;2 -->
<g id="edge3" class="edge">
<title>3&#45;&gt;2</title>
<path fill="none" stroke="grey" stroke-width="2" d="M137.21,-143.7C137.21,-135.98 137.21,-126.71 137.21,-118.11"/>
<polygon fill="grey" stroke="grey" stroke-width="2" points="140.71,-118.1 137.21,-108.1 133.71,-118.1 140.71,-118.1"/>
</g>
<!-- 4 -->
<g id="node5" class="node">
<title>4</title>
<path fill="none" stroke="#d87556" stroke-width="2" d="M96.71,-324C96.71,-324 31.71,-324 31.71,-324 25.71,-324 19.71,-318 19.71,-312 19.71,-312 19.71,-300 19.71,-300 19.71,-294 25.71,-288 31.71,-288 31.71,-288 96.71,-288 96.71,-288 102.71,-288 108.71,-294 108.71,-300 108.71,-300 108.71,-312 108.71,-312 108.71,-318 102.71,-324 96.71,-324"/>
<text text-anchor="middle" x="64.21" y="-303.5" font-family="sans" font-size="10.00">get_phastCons</text>
</g>
<!-- 4&#45;&gt;3 -->
<g id="edge4" class="edge">
<title>4&#45;&gt;3</title>
<path fill="none" stroke="grey" stroke-width="2" d="M73.01,-287.87C85.62,-263.35 108.91,-218.03 123.71,-189.26"/>
<polygon fill="grey" stroke="grey" stroke-width="2" points="126.91,-190.68 128.37,-180.19 120.68,-187.48 126.91,-190.68"/>
</g>
<!-- 9 -->
<g id="node10" class="node">
<title>9</title>
<path fill="none" stroke="#d6d856" stroke-width="2" d="M240.71,-252C240.71,-252 177.71,-252 177.71,-252 171.71,-252 165.71,-246 165.71,-240 165.71,-240 165.71,-228 165.71,-228 165.71,-222 171.71,-216 177.71,-216 177.71,-216 240.71,-216 240.71,-216 246.71,-216 252.71,-222 252.71,-228 252.71,-228 252.71,-240 252.71,-240 252.71,-246 246.71,-252 240.71,-252"/>
<text text-anchor="middle" x="209.21" y="-231.5" font-family="sans" font-size="10.00">train_circDeep</text>
</g>
<!-- 4&#45;&gt;9 -->
<g id="edge12" class="edge">
<title>4&#45;&gt;9</title>
<path fill="none" stroke="grey" stroke-width="2" d="M99.68,-287.88C119.32,-278.39 143.93,-266.51 164.84,-256.42"/>
<polygon fill="grey" stroke="grey" stroke-width="2" points="166.37,-259.57 173.85,-252.07 163.32,-253.26 166.37,-259.57"/>
</g>
<!-- 5 -->
<g id="node6" class="node">
<title>5</title>
<path fill="none" stroke="#567bd8" stroke-width="2" d="M190.21,-396C190.21,-396 146.21,-396 146.21,-396 140.21,-396 134.21,-390 134.21,-384 134.21,-384 134.21,-372 134.21,-372 134.21,-366 140.21,-360 146.21,-360 146.21,-360 190.21,-360 190.21,-360 196.21,-360 202.21,-366 202.21,-372 202.21,-372 202.21,-384 202.21,-384 202.21,-390 196.21,-396 190.21,-396"/>
<text text-anchor="middle" x="168.21" y="-375.5" font-family="sans" font-size="10.00">genomepy</text>
</g>
<!-- 5&#45;&gt;3 -->
<g id="edge8" class="edge">
<title>5&#45;&gt;3</title>
<path fill="none" stroke="grey" stroke-width="2" d="M134.09,-376.44C96.71,-373.76 38.34,-363.11 10.21,-324 -26.47,-273.02 47.71,-215.85 97.38,-185.23"/>
<polygon fill="grey" stroke="grey" stroke-width="2" points="99.27,-188.17 106.03,-180.01 95.66,-182.18 99.27,-188.17"/>
</g>
<!-- 6 -->
<g id="node7" class="node">
<title>6</title>
<path fill="none" stroke="#97d856" stroke-width="2" d="M197.21,-324C197.21,-324 139.21,-324 139.21,-324 133.21,-324 127.21,-318 127.21,-312 127.21,-312 127.21,-300 127.21,-300 127.21,-294 133.21,-288 139.21,-288 139.21,-288 197.21,-288 197.21,-288 203.21,-288 209.21,-294 209.21,-300 209.21,-300 209.21,-312 209.21,-312 209.21,-318 203.21,-324 197.21,-324"/>
<text text-anchor="middle" x="168.21" y="-303.5" font-family="sans" font-size="10.00">canonical_gtf</text>
</g>
<!-- 5&#45;&gt;6 -->
<g id="edge9" class="edge">
<title>5&#45;&gt;6</title>
<path fill="none" stroke="grey" stroke-width="2" d="M168.21,-359.7C168.21,-351.98 168.21,-342.71 168.21,-334.11"/>
<polygon fill="grey" stroke="grey" stroke-width="2" points="171.71,-334.1 168.21,-324.1 164.71,-334.1 171.71,-334.1"/>
</g>
<!-- 5&#45;&gt;9 -->
<g id="edge13" class="edge">
<title>5&#45;&gt;9</title>
<path fill="none" stroke="grey" stroke-width="2" d="M190.8,-359.96C201.26,-350.63 212.6,-338.11 218.21,-324 226.1,-304.12 222.9,-279.87 218.25,-261.71"/>
<polygon fill="grey" stroke="grey" stroke-width="2" points="221.6,-260.71 215.5,-252.05 214.87,-262.63 221.6,-260.71"/>
</g>
<!-- 6&#45;&gt;3 -->
<g id="edge6" class="edge">
<title>6&#45;&gt;3</title>
<path fill="none" stroke="grey" stroke-width="2" d="M164.26,-287.83C161.89,-277.46 158.84,-263.98 156.21,-252 151.65,-231.3 146.65,-207.85 142.93,-190.22"/>
<polygon fill="grey" stroke="grey" stroke-width="2" points="146.27,-189.14 140.79,-180.08 139.42,-190.58 146.27,-189.14"/>
</g>
<!-- 6&#45;&gt;9 -->
<g id="edge11" class="edge">
<title>6&#45;&gt;9</title>
<path fill="none" stroke="grey" stroke-width="2" d="M178.34,-287.7C183.06,-279.64 188.77,-269.89 193.99,-260.98"/>
<polygon fill="grey" stroke="grey" stroke-width="2" points="197.15,-262.5 199.19,-252.1 191.11,-258.96 197.15,-262.5"/>
</g>
<!-- 7 -->
<g id="node8" class="node">
<title>7</title>
<path fill="none" stroke="#78d856" stroke-width="2" d="M335.21,-252C335.21,-252 297.21,-252 297.21,-252 291.21,-252 285.21,-246 285.21,-240 285.21,-240 285.21,-228 285.21,-228 285.21,-222 291.21,-216 297.21,-216 297.21,-216 335.21,-216 335.21,-216 341.21,-216 347.21,-222 347.21,-228 347.21,-228 347.21,-240 347.21,-240 347.21,-246 341.21,-252 335.21,-252"/>
<text text-anchor="middle" x="316.21" y="-231.5" font-family="sans" font-size="10.00">data_dev</text>
</g>
<!-- 7&#45;&gt;3 -->
<g id="edge7" class="edge">
<title>7&#45;&gt;3</title>
<path fill="none" stroke="grey" stroke-width="2" d="M285.03,-220.81C258.88,-210.58 220.98,-195.76 190.1,-183.69"/>
<polygon fill="grey" stroke="grey" stroke-width="2" points="191.35,-180.42 180.76,-180.03 188.8,-186.94 191.35,-180.42"/>
</g>
<!-- 8 -->
<g id="node9" class="node">
<title>8</title>
<path fill="none" stroke="#56d8d8" stroke-width="2" d="M369.21,-324C369.21,-324 277.21,-324 277.21,-324 271.21,-324 265.21,-318 265.21,-312 265.21,-312 265.21,-300 265.21,-300 265.21,-294 271.21,-288 277.21,-288 277.21,-288 369.21,-288 369.21,-288 375.21,-288 381.21,-294 381.21,-300 381.21,-300 381.21,-312 381.21,-312 381.21,-318 375.21,-324 369.21,-324"/>
<text text-anchor="middle" x="323.21" y="-303.5" font-family="sans" font-size="10.00">data_Chaabane2020</text>
</g>
<!-- 8&#45;&gt;7 -->
<g id="edge10" class="edge">
<title>8&#45;&gt;7</title>
<path fill="none" stroke="grey" stroke-width="2" d="M321.47,-287.7C320.7,-279.98 319.78,-270.71 318.92,-262.11"/>
<polygon fill="grey" stroke="grey" stroke-width="2" points="322.39,-261.71 317.92,-252.1 315.43,-262.4 322.39,-261.71"/>
</g>
<!-- 8&#45;&gt;9 -->
<g id="edge14" class="edge">
<title>8&#45;&gt;9</title>
<path fill="none" stroke="grey" stroke-width="2" d="M295.32,-287.88C280.41,-278.72 261.88,-267.34 245.82,-257.48"/>
<polygon fill="grey" stroke="grey" stroke-width="2" points="247.55,-254.44 237.2,-252.19 243.89,-260.41 247.55,-254.44"/>
</g>
<!-- 9&#45;&gt;3 -->
<g id="edge5" class="edge">
<title>9&#45;&gt;3</title>
<path fill="none" stroke="grey" stroke-width="2" d="M191.41,-215.7C182.6,-207.14 171.82,-196.66 162.2,-187.3"/>
<polygon fill="grey" stroke="grey" stroke-width="2" points="164.41,-184.57 154.8,-180.1 159.53,-189.58 164.41,-184.57"/>
</g>
</g>
</svg>
