<?xml version="1.0" encoding="UTF-8" standalone="no"?>
<!DOCTYPE svg PUBLIC "-//W3C//DTD SVG 1.1//EN"
 "http://www.w3.org/Graphics/SVG/1.1/DTD/svg11.dtd">
<!-- Generated by graphviz version 2.47.2 (20210527.1257)
 -->
<!-- Title: snakemake_dag Pages: 1 -->
<svg width="163pt" height="404pt"
 viewBox="0.00 0.00 162.50 404.00" xmlns="http://www.w3.org/2000/svg" xmlns:xlink="http://www.w3.org/1999/xlink">
<g id="graph0" class="graph" transform="scale(1 1) rotate(0) translate(4 400)">
<title>snakemake_dag</title>
<polygon fill="white" stroke="transparent" points="-4,4 -4,-400 158.5,-400 158.5,4 -4,4"/>
<!-- 0 -->
<g id="node1" class="node">
<title>0</title>
<path fill="none" stroke="#d6d856" stroke-width="2" d="M74.5,-36C74.5,-36 44.5,-36 44.5,-36 38.5,-36 32.5,-30 32.5,-24 32.5,-24 32.5,-12 32.5,-12 32.5,-6 38.5,0 44.5,0 44.5,0 74.5,0 74.5,0 80.5,0 86.5,-6 86.5,-12 86.5,-12 86.5,-24 86.5,-24 86.5,-30 80.5,-36 74.5,-36"/>
<text text-anchor="middle" x="59.5" y="-15.5" font-family="sans" font-size="10.00">all</text>
</g>
<!-- 1 -->
<g id="node2" class="node">
<title>1</title>
<path fill="none" stroke="#97d856" stroke-width="2" d="M81.5,-108C81.5,-108 37.5,-108 37.5,-108 31.5,-108 25.5,-102 25.5,-96 25.5,-96 25.5,-84 25.5,-84 25.5,-78 31.5,-72 37.5,-72 37.5,-72 81.5,-72 81.5,-72 87.5,-72 93.5,-78 93.5,-84 93.5,-84 93.5,-96 93.5,-96 93.5,-102 87.5,-108 81.5,-108"/>
<text text-anchor="middle" x="59.5" y="-87.5" font-family="sans" font-size="10.00">evaluation</text>
</g>
<!-- 1&#45;&gt;0 -->
<g id="edge1" class="edge">
<title>1&#45;&gt;0</title>
<path fill="none" stroke="grey" stroke-width="2" d="M59.5,-71.7C59.5,-63.98 59.5,-54.71 59.5,-46.11"/>
<polygon fill="grey" stroke="grey" stroke-width="2" points="63,-46.1 59.5,-36.1 56,-46.1 63,-46.1"/>
</g>
<!-- 2 -->
<g id="node3" class="node">
<title>2</title>
<path fill="none" stroke="#56d89a" stroke-width="2" d="M107,-180C107,-180 12,-180 12,-180 6,-180 0,-174 0,-168 0,-168 0,-156 0,-156 0,-150 6,-144 12,-144 12,-144 107,-144 107,-144 113,-144 119,-150 119,-156 119,-156 119,-168 119,-168 119,-174 113,-180 107,-180"/>
<text text-anchor="middle" x="59.5" y="-159.5" font-family="sans" font-size="10.00">predict_DeepCirCode</text>
</g>
<!-- 2&#45;&gt;1 -->
<g id="edge2" class="edge">
<title>2&#45;&gt;1</title>
<path fill="none" stroke="grey" stroke-width="2" d="M59.5,-143.7C59.5,-135.98 59.5,-126.71 59.5,-118.11"/>
<polygon fill="grey" stroke="grey" stroke-width="2" points="63,-118.1 59.5,-108.1 56,-118.1 63,-118.1"/>
</g>
<!-- 3 -->
<g id="node4" class="node">
<title>3</title>
<path fill="none" stroke="#569ad8" stroke-width="2" d="M142.5,-252C142.5,-252 58.5,-252 58.5,-252 52.5,-252 46.5,-246 46.5,-240 46.5,-240 46.5,-228 46.5,-228 46.5,-222 52.5,-216 58.5,-216 58.5,-216 142.5,-216 142.5,-216 148.5,-216 154.5,-222 154.5,-228 154.5,-228 154.5,-240 154.5,-240 154.5,-246 148.5,-252 142.5,-252"/>
<text text-anchor="middle" x="100.5" y="-231.5" font-family="sans" font-size="10.00">train_DeepCirCode</text>
</g>
<!-- 3&#45;&gt;2 -->
<g id="edge4" class="edge">
<title>3&#45;&gt;2</title>
<path fill="none" stroke="grey" stroke-width="2" d="M90.37,-215.7C85.65,-207.64 79.94,-197.89 74.72,-188.98"/>
<polygon fill="grey" stroke="grey" stroke-width="2" points="77.59,-186.96 69.52,-180.1 71.55,-190.5 77.59,-186.96"/>
</g>
<!-- 4 -->
<g id="node5" class="node">
<title>4</title>
<path fill="none" stroke="#d89556" stroke-width="2" d="M92,-324C92,-324 27,-324 27,-324 21,-324 15,-318 15,-312 15,-312 15,-300 15,-300 15,-294 21,-288 27,-288 27,-288 92,-288 92,-288 98,-288 104,-294 104,-300 104,-300 104,-312 104,-312 104,-318 98,-324 92,-324"/>
<text text-anchor="middle" x="59.5" y="-303.5" font-family="sans" font-size="10.00">split_train_test</text>
</g>
<!-- 4&#45;&gt;2 -->
<g id="edge3" class="edge">
<title>4&#45;&gt;2</title>
<path fill="none" stroke="grey" stroke-width="2" d="M50.37,-287.88C45.49,-277.76 39.99,-264.51 37.5,-252 34.37,-236.31 34.37,-231.69 37.5,-216 39.29,-207.01 42.64,-197.64 46.19,-189.32"/>
<polygon fill="grey" stroke="grey" stroke-width="2" points="49.42,-190.67 50.37,-180.12 43.04,-187.77 49.42,-190.67"/>
</g>
<!-- 4&#45;&gt;3 -->
<g id="edge5" class="edge">
<title>4&#45;&gt;3</title>
<path fill="none" stroke="grey" stroke-width="2" d="M69.63,-287.7C74.35,-279.64 80.06,-269.89 85.28,-260.98"/>
<polygon fill="grey" stroke="grey" stroke-width="2" points="88.45,-262.5 90.48,-252.1 82.41,-258.96 88.45,-262.5"/>
</g>
<!-- 5 -->
<g id="node6" class="node">
<title>5</title>
<path fill="none" stroke="#56d8d8" stroke-width="2" d="M96.5,-396C96.5,-396 22.5,-396 22.5,-396 16.5,-396 10.5,-390 10.5,-384 10.5,-384 10.5,-372 10.5,-372 10.5,-366 16.5,-360 22.5,-360 22.5,-360 96.5,-360 96.5,-360 102.5,-360 108.5,-366 108.5,-372 108.5,-372 108.5,-384 108.5,-384 108.5,-390 102.5,-396 96.5,-396"/>
<text text-anchor="middle" x="59.5" y="-375.5" font-family="sans" font-size="10.00">extract_circBase</text>
</g>
<!-- 5&#45;&gt;4 -->
<g id="edge6" class="edge">
<title>5&#45;&gt;4</title>
<path fill="none" stroke="grey" stroke-width="2" d="M59.5,-359.7C59.5,-351.98 59.5,-342.71 59.5,-334.11"/>
<polygon fill="grey" stroke="grey" stroke-width="2" points="63,-334.1 59.5,-324.1 56,-334.1 63,-334.1"/>
</g>
</g>
</svg>
