<?xml version="1.0" encoding="UTF-8" standalone="no"?>
<!DOCTYPE svg PUBLIC "-//W3C//DTD SVG 1.1//EN"
 "http://www.w3.org/Graphics/SVG/1.1/DTD/svg11.dtd">
<!-- Generated by graphviz version 2.47.3 (20210619.2315)
 -->
<!-- Title: snakemake_dag Pages: 1 -->
<svg width="1072pt" height="764pt"
 viewBox="0.00 0.00 1071.83 764.00" xmlns="http://www.w3.org/2000/svg" xmlns:xlink="http://www.w3.org/1999/xlink">
<g id="graph0" class="graph" transform="scale(1 1) rotate(0) translate(4 760)">
<title>snakemake_dag</title>
<polygon fill="white" stroke="transparent" points="-4,4 -4,-760 1067.83,-760 1067.83,4 -4,4"/>
<!-- 0 -->
<g id="node1" class="node">
<title>0</title>
<path fill="none" stroke="#68d856" stroke-width="2" d="M524,-36C524,-36 494,-36 494,-36 488,-36 482,-30 482,-24 482,-24 482,-12 482,-12 482,-6 488,0 494,0 494,0 524,0 524,0 530,0 536,-6 536,-12 536,-12 536,-24 536,-24 536,-30 530,-36 524,-36"/>
<text text-anchor="middle" x="509" y="-15.5" font-family="sans" font-size="10.00">all</text>
</g>
<!-- 1 -->
<g id="node2" class="node">
<title>1</title>
<path fill="none" stroke="#ced856" stroke-width="2" d="M395,-108C395,-108 343,-108 343,-108 337,-108 331,-102 331,-96 331,-96 331,-84 331,-84 331,-78 337,-72 343,-72 343,-72 395,-72 395,-72 401,-72 407,-78 407,-84 407,-84 407,-96 407,-96 407,-102 401,-108 395,-108"/>
<text text-anchor="middle" x="369" y="-87.5" font-family="sans" font-size="10.00">dependency</text>
</g>
<!-- 1&#45;&gt;0 -->
<g id="edge1" class="edge">
<title>1&#45;&gt;0</title>
<path fill="none" stroke="grey" stroke-width="2" d="M403.25,-71.88C424.26,-61.37 451.15,-47.92 472.56,-37.22"/>
<polygon fill="grey" stroke="grey" stroke-width="2" points="474.28,-40.27 481.66,-32.67 471.15,-34.01 474.28,-40.27"/>
</g>
<!-- 2 -->
<g id="node3" class="node">
<title>2</title>
<path fill="none" stroke="#568ad8" stroke-width="2" d="M652,-324C652,-324 568,-324 568,-324 562,-324 556,-318 556,-312 556,-312 556,-300 556,-300 556,-294 562,-288 568,-288 568,-288 652,-288 652,-288 658,-288 664,-294 664,-300 664,-300 664,-312 664,-312 664,-318 658,-324 652,-324"/>
<text text-anchor="middle" x="610" y="-303.5" font-family="sans" font-size="10.00">train_DeepCirCode</text>
</g>
<!-- 2&#45;&gt;0 -->
<g id="edge4" class="edge">
<title>2&#45;&gt;0</title>
<path fill="none" stroke="grey" stroke-width="2" d="M660.24,-287.99C687.53,-277.62 717.27,-264.08 725,-252 733.63,-238.53 728.23,-231.67 725,-216 707.77,-132.42 668.89,-119.5 598,-72 580.98,-60.6 561.49,-48.85 545.09,-39.32"/>
<polygon fill="grey" stroke="grey" stroke-width="2" points="546.75,-36.24 536.34,-34.27 543.25,-42.3 546.75,-36.24"/>
</g>
<!-- 18 -->
<g id="node19" class="node">
<title>18</title>
<path fill="none" stroke="#56d89a" stroke-width="2" d="M704,-252C704,-252 606,-252 606,-252 600,-252 594,-246 594,-240 594,-240 594,-228 594,-228 594,-222 600,-216 606,-216 606,-216 704,-216 704,-216 710,-216 716,-222 716,-228 716,-228 716,-240 716,-240 716,-246 710,-252 704,-252"/>
<text text-anchor="middle" x="655" y="-231.5" font-family="sans" font-size="10.00">training_performance</text>
</g>
<!-- 2&#45;&gt;18 -->
<g id="edge44" class="edge">
<title>2&#45;&gt;18</title>
<path fill="none" stroke="grey" stroke-width="2" d="M621.12,-287.7C626.36,-279.56 632.7,-269.69 638.48,-260.7"/>
<polygon fill="grey" stroke="grey" stroke-width="2" points="641.54,-262.41 644,-252.1 635.65,-258.62 641.54,-262.41"/>
</g>
<!-- 22 -->
<g id="node23" class="node">
<title>22</title>
<path fill="none" stroke="#5673d8" stroke-width="2" d="M595,-180C595,-180 515,-180 515,-180 509,-180 503,-174 503,-168 503,-168 503,-156 503,-156 503,-150 509,-144 515,-144 515,-144 595,-144 595,-144 601,-144 607,-150 607,-156 607,-156 607,-168 607,-168 607,-174 601,-180 595,-180"/>
<text text-anchor="middle" x="555" y="-159.5" font-family="sans" font-size="10.00">test_DeepCirCode</text>
</g>
<!-- 2&#45;&gt;22 -->
<g id="edge60" class="edge">
<title>2&#45;&gt;22</title>
<path fill="none" stroke="grey" stroke-width="2" d="M601.15,-287.56C596.12,-277.33 589.87,-264.08 585,-252 576.75,-231.52 568.83,-207.8 563.21,-190"/>
<polygon fill="grey" stroke="grey" stroke-width="2" points="566.49,-188.78 560.17,-180.28 559.81,-190.86 566.49,-188.78"/>
</g>
<!-- 3 -->
<g id="node4" class="node">
<title>3</title>
<path fill="none" stroke="#56c9d8" stroke-width="2" d="M517.5,-396C517.5,-396 394.5,-396 394.5,-396 388.5,-396 382.5,-390 382.5,-384 382.5,-384 382.5,-372 382.5,-372 382.5,-366 388.5,-360 394.5,-360 394.5,-360 517.5,-360 517.5,-360 523.5,-360 529.5,-366 529.5,-372 529.5,-372 529.5,-384 529.5,-384 529.5,-390 523.5,-396 517.5,-396"/>
<text text-anchor="middle" x="456" y="-375.5" font-family="sans" font-size="10.00">extract_DeepCirCode_data</text>
</g>
<!-- 3&#45;&gt;2 -->
<g id="edge5" class="edge">
<title>3&#45;&gt;2</title>
<path fill="none" stroke="grey" stroke-width="2" d="M493.67,-359.88C514.63,-350.35 540.9,-338.41 563.18,-328.28"/>
<polygon fill="grey" stroke="grey" stroke-width="2" points="564.79,-331.39 572.45,-324.07 561.9,-325.02 564.79,-331.39"/>
</g>
<!-- 3&#45;&gt;22 -->
<g id="edge59" class="edge">
<title>3&#45;&gt;22</title>
<path fill="none" stroke="grey" stroke-width="2" d="M465.39,-359.97C470.98,-349.65 478.11,-336.18 484,-324 506.57,-277.35 530.41,-221.83 543.92,-189.68"/>
<polygon fill="grey" stroke="grey" stroke-width="2" points="547.29,-190.68 547.93,-180.1 540.84,-187.97 547.29,-190.68"/>
</g>
<!-- 23 -->
<g id="node24" class="node">
<title>23</title>
<path fill="none" stroke="#d8cb56" stroke-width="2" d="M345,-180C345,-180 315,-180 315,-180 309,-180 303,-174 303,-168 303,-168 303,-156 303,-156 303,-150 309,-144 315,-144 315,-144 345,-144 345,-144 351,-144 357,-150 357,-156 357,-156 357,-168 357,-168 357,-174 351,-180 345,-180"/>
<text text-anchor="middle" x="330" y="-159.5" font-family="sans" font-size="10.00">test_RF</text>
</g>
<!-- 3&#45;&gt;23 -->
<g id="edge62" class="edge">
<title>3&#45;&gt;23</title>
<path fill="none" stroke="grey" stroke-width="2" d="M382.22,-366.32C349.1,-358.72 311.04,-345.81 282,-324 251.44,-301.05 245.9,-288.63 235,-252 230.44,-236.66 226.9,-229.8 235,-216 247.55,-194.63 272.19,-181.24 293.24,-173.27"/>
<polygon fill="grey" stroke="grey" stroke-width="2" points="294.62,-176.49 302.9,-169.88 292.31,-169.89 294.62,-176.49"/>
</g>
<!-- 24 -->
<g id="node25" class="node">
<title>24</title>
<path fill="none" stroke="#56d8b9" stroke-width="2" d="M289.5,-252C289.5,-252 256.5,-252 256.5,-252 250.5,-252 244.5,-246 244.5,-240 244.5,-240 244.5,-228 244.5,-228 244.5,-222 250.5,-216 256.5,-216 256.5,-216 289.5,-216 289.5,-216 295.5,-216 301.5,-222 301.5,-228 301.5,-228 301.5,-240 301.5,-240 301.5,-246 295.5,-252 289.5,-252"/>
<text text-anchor="middle" x="273" y="-231.5" font-family="sans" font-size="10.00">train_RF</text>
</g>
<!-- 3&#45;&gt;24 -->
<g id="edge64" class="edge">
<title>3&#45;&gt;24</title>
<path fill="none" stroke="grey" stroke-width="2" d="M382.22,-363.8C356.08,-355.97 328.18,-343.57 308,-324 290.92,-307.44 282,-281.55 277.45,-261.95"/>
<polygon fill="grey" stroke="grey" stroke-width="2" points="280.86,-261.16 275.4,-252.08 274.01,-262.59 280.86,-261.16"/>
</g>
<!-- 25 -->
<g id="node26" class="node">
<title>25</title>
<path fill="none" stroke="#70d856" stroke-width="2" d="M407,-324C407,-324 329,-324 329,-324 323,-324 317,-318 317,-312 317,-312 317,-300 317,-300 317,-294 323,-288 329,-288 329,-288 407,-288 407,-288 413,-288 419,-294 419,-300 419,-300 419,-312 419,-312 419,-318 413,-324 407,-324"/>
<text text-anchor="middle" x="368" y="-303.5" font-family="sans" font-size="10.00">SVM_RF_features</text>
</g>
<!-- 3&#45;&gt;25 -->
<g id="edge66" class="edge">
<title>3&#45;&gt;25</title>
<path fill="none" stroke="grey" stroke-width="2" d="M434.25,-359.7C423.16,-350.88 409.53,-340.03 397.51,-330.47"/>
<polygon fill="grey" stroke="grey" stroke-width="2" points="399.51,-327.59 389.5,-324.1 395.15,-333.07 399.51,-327.59"/>
</g>
<!-- 26 -->
<g id="node27" class="node">
<title>26</title>
<path fill="none" stroke="#d86e56" stroke-width="2" d="M473,-180C473,-180 435,-180 435,-180 429,-180 423,-174 423,-168 423,-168 423,-156 423,-156 423,-150 429,-144 435,-144 435,-144 473,-144 473,-144 479,-144 485,-150 485,-156 485,-156 485,-168 485,-168 485,-174 479,-180 473,-180"/>
<text text-anchor="middle" x="454" y="-159.5" font-family="sans" font-size="10.00">test_SVM</text>
</g>
<!-- 3&#45;&gt;26 -->
<g id="edge68" class="edge">
<title>3&#45;&gt;26</title>
<path fill="none" stroke="grey" stroke-width="2" d="M460.34,-359.99C467.24,-330.53 479.16,-268.14 471,-216 469.64,-207.31 467.1,-198.1 464.39,-189.84"/>
<polygon fill="grey" stroke="grey" stroke-width="2" points="467.67,-188.62 461.07,-180.33 461.06,-190.93 467.67,-188.62"/>
</g>
<!-- 27 -->
<g id="node28" class="node">
<title>27</title>
<path fill="none" stroke="#d89556" stroke-width="2" d="M450,-252C450,-252 408,-252 408,-252 402,-252 396,-246 396,-240 396,-240 396,-228 396,-228 396,-222 402,-216 408,-216 408,-216 450,-216 450,-216 456,-216 462,-222 462,-228 462,-228 462,-240 462,-240 462,-246 456,-252 450,-252"/>
<text text-anchor="middle" x="429" y="-231.5" font-family="sans" font-size="10.00">train_SVM</text>
</g>
<!-- 3&#45;&gt;27 -->
<g id="edge70" class="edge">
<title>3&#45;&gt;27</title>
<path fill="none" stroke="grey" stroke-width="2" d="M452.74,-359.87C448.14,-335.67 439.69,-291.21 434.21,-262.39"/>
<polygon fill="grey" stroke="grey" stroke-width="2" points="437.57,-261.36 432.27,-252.19 430.7,-262.67 437.57,-261.36"/>
</g>
<!-- 4 -->
<g id="node5" class="node">
<title>4</title>
<path fill="none" stroke="#d87d56" stroke-width="2" d="M426,-684C426,-684 334,-684 334,-684 328,-684 322,-678 322,-672 322,-672 322,-660 322,-660 322,-654 328,-648 334,-648 334,-648 426,-648 426,-648 432,-648 438,-654 438,-660 438,-660 438,-672 438,-672 438,-678 432,-684 426,-684"/>
<text text-anchor="middle" x="380" y="-663.5" font-family="sans" font-size="10.00">data_Chaabane2020</text>
</g>
<!-- 4&#45;&gt;3 -->
<g id="edge9" class="edge">
<title>4&#45;&gt;3</title>
<path fill="none" stroke="grey" stroke-width="2" d="M321.76,-659.8C260.54,-652.98 170.21,-638.63 149,-612 140.26,-601.03 139.17,-530.24 152,-504 191.35,-423.54 296.72,-394.75 372.36,-384.52"/>
<polygon fill="grey" stroke="grey" stroke-width="2" points="372.88,-387.98 382.36,-383.25 372,-381.04 372.88,-387.98"/>
</g>
<!-- 6 -->
<g id="node7" class="node">
<title>6</title>
<path fill="none" stroke="#5663d8" stroke-width="2" d="M349.5,-468C349.5,-468 258.5,-468 258.5,-468 252.5,-468 246.5,-462 246.5,-456 246.5,-456 246.5,-444 246.5,-444 246.5,-438 252.5,-432 258.5,-432 258.5,-432 349.5,-432 349.5,-432 355.5,-432 361.5,-438 361.5,-444 361.5,-444 361.5,-456 361.5,-456 361.5,-462 355.5,-468 349.5,-468"/>
<text text-anchor="middle" x="304" y="-447.5" font-family="sans" font-size="10.00">get_linear_junctions</text>
</g>
<!-- 4&#45;&gt;6 -->
<g id="edge19" class="edge">
<title>4&#45;&gt;6</title>
<path fill="none" stroke="grey" stroke-width="2" d="M321.84,-659.13C263.32,-651.88 178.94,-637.29 159,-612 146.29,-595.89 153.87,-521.06 167,-504 183.83,-482.14 210.9,-469.29 236.55,-461.74"/>
<polygon fill="grey" stroke="grey" stroke-width="2" points="237.55,-465.1 246.29,-459.1 235.72,-458.34 237.55,-465.1"/>
</g>
<!-- 8 -->
<g id="node9" class="node">
<title>8</title>
<path fill="none" stroke="#56c1d8" stroke-width="2" d="M339.5,-540C339.5,-540 268.5,-540 268.5,-540 262.5,-540 256.5,-534 256.5,-528 256.5,-528 256.5,-516 256.5,-516 256.5,-510 262.5,-504 268.5,-504 268.5,-504 339.5,-504 339.5,-504 345.5,-504 351.5,-510 351.5,-516 351.5,-516 351.5,-528 351.5,-528 351.5,-534 345.5,-540 339.5,-540"/>
<text text-anchor="middle" x="304" y="-519.5" font-family="sans" font-size="10.00">get_overlapping</text>
</g>
<!-- 4&#45;&gt;8 -->
<g id="edge24" class="edge">
<title>4&#45;&gt;8</title>
<path fill="none" stroke="grey" stroke-width="2" d="M370.83,-647.87C357.71,-623.35 333.45,-578.03 318.05,-549.26"/>
<polygon fill="grey" stroke="grey" stroke-width="2" points="321,-547.35 313.2,-540.19 314.83,-550.66 321,-547.35"/>
</g>
<!-- 14 -->
<g id="node15" class="node">
<title>14</title>
<path fill="none" stroke="#d85656" stroke-width="2" d="M826,-612C826,-612 772,-612 772,-612 766,-612 760,-606 760,-600 760,-600 760,-588 760,-588 760,-582 766,-576 772,-576 772,-576 826,-576 826,-576 832,-576 838,-582 838,-588 838,-588 838,-600 838,-600 838,-606 832,-612 826,-612"/>
<text text-anchor="middle" x="799" y="-591.5" font-family="sans" font-size="10.00">split_lncRNA</text>
</g>
<!-- 4&#45;&gt;14 -->
<g id="edge32" class="edge">
<title>4&#45;&gt;14</title>
<path fill="none" stroke="grey" stroke-width="2" d="M438.26,-655.27C521.33,-641.39 672.32,-616.16 749.98,-603.19"/>
<polygon fill="grey" stroke="grey" stroke-width="2" points="750.69,-606.62 759.98,-601.52 749.54,-599.71 750.69,-606.62"/>
</g>
<!-- 21 -->
<g id="node22" class="node">
<title>21</title>
<path fill="none" stroke="#d8b456" stroke-width="2" d="M664.5,-468C664.5,-468 585.5,-468 585.5,-468 579.5,-468 573.5,-462 573.5,-456 573.5,-456 573.5,-444 573.5,-444 573.5,-438 579.5,-432 585.5,-432 585.5,-432 664.5,-432 664.5,-432 670.5,-432 676.5,-438 676.5,-444 676.5,-444 676.5,-456 676.5,-456 676.5,-462 670.5,-468 664.5,-468"/>
<text text-anchor="middle" x="625" y="-447.5" font-family="sans" font-size="10.00">extract_data_JEDI</text>
</g>
<!-- 4&#45;&gt;21 -->
<g id="edge54" class="edge">
<title>4&#45;&gt;21</title>
<path fill="none" stroke="grey" stroke-width="2" d="M433.06,-647.95C482,-629.37 552.67,-594.77 591,-540 604.14,-521.22 613.02,-496.69 618.4,-478.14"/>
<polygon fill="grey" stroke="grey" stroke-width="2" points="621.84,-478.84 621.1,-468.27 615.08,-476.99 621.84,-478.84"/>
</g>
<!-- 5 -->
<g id="node6" class="node">
<title>5</title>
<path fill="none" stroke="#59d856" stroke-width="2" d="M463,-756C463,-756 383,-756 383,-756 377,-756 371,-750 371,-744 371,-744 371,-732 371,-732 371,-726 377,-720 383,-720 383,-720 463,-720 463,-720 469,-720 475,-726 475,-732 475,-732 475,-744 475,-744 475,-750 469,-756 463,-756"/>
<text text-anchor="middle" x="423" y="-735.5" font-family="sans" font-size="10.00">data_DiLiddo2019</text>
</g>
<!-- 5&#45;&gt;3 -->
<g id="edge6" class="edge">
<title>5&#45;&gt;3</title>
<path fill="none" stroke="grey" stroke-width="2" d="M370.71,-730.65C257.53,-715.45 0,-672.37 0,-595 0,-595 0,-595 0,-521 0,-443.88 240.79,-403.86 372.42,-387.74"/>
<polygon fill="grey" stroke="grey" stroke-width="2" points="372.97,-391.2 382.48,-386.53 372.14,-384.25 372.97,-391.2"/>
</g>
<!-- 5&#45;&gt;4 -->
<g id="edge14" class="edge">
<title>5&#45;&gt;4</title>
<path fill="none" stroke="grey" stroke-width="2" d="M412.37,-719.7C407.37,-711.56 401.31,-701.69 395.79,-692.7"/>
<polygon fill="grey" stroke="grey" stroke-width="2" points="398.72,-690.79 390.51,-684.1 392.76,-694.46 398.72,-690.79"/>
</g>
<!-- 5&#45;&gt;6 -->
<g id="edge15" class="edge">
<title>5&#45;&gt;6</title>
<path fill="none" stroke="grey" stroke-width="2" d="M370.9,-730.42C305.73,-719.07 196.9,-689.04 149,-612 139.79,-597.19 138.23,-522.56 152,-504 171.69,-477.47 205.6,-464.14 236.41,-457.48"/>
<polygon fill="grey" stroke="grey" stroke-width="2" points="237.14,-460.9 246.28,-455.54 235.79,-454.03 237.14,-460.9"/>
</g>
<!-- 5&#45;&gt;8 -->
<g id="edge21" class="edge">
<title>5&#45;&gt;8</title>
<path fill="none" stroke="grey" stroke-width="2" d="M370.83,-724.51C349.3,-716.58 326.3,-703.92 313,-684 286.2,-643.88 291.41,-584.81 297.67,-550.49"/>
<polygon fill="grey" stroke="grey" stroke-width="2" points="301.19,-550.76 299.7,-540.27 294.32,-549.39 301.19,-550.76"/>
</g>
<!-- 10 -->
<g id="node11" class="node">
<title>10</title>
<path fill="none" stroke="#d87556" stroke-width="2" d="M853.5,-684C853.5,-684 782.5,-684 782.5,-684 776.5,-684 770.5,-678 770.5,-672 770.5,-672 770.5,-660 770.5,-660 770.5,-654 776.5,-648 782.5,-648 782.5,-648 853.5,-648 853.5,-648 859.5,-648 865.5,-654 865.5,-660 865.5,-660 865.5,-672 865.5,-672 865.5,-678 859.5,-684 853.5,-684"/>
<text text-anchor="middle" x="818" y="-663.5" font-family="sans" font-size="10.00">data_Wang2019</text>
</g>
<!-- 5&#45;&gt;10 -->
<g id="edge26" class="edge">
<title>5&#45;&gt;10</title>
<path fill="none" stroke="grey" stroke-width="2" d="M475.05,-727.78C548.93,-714.68 683.74,-690.79 760.5,-677.19"/>
<polygon fill="grey" stroke="grey" stroke-width="2" points="761.24,-680.61 770.47,-675.42 760.02,-673.72 761.24,-680.61"/>
</g>
<!-- 12 -->
<g id="node13" class="node">
<title>12</title>
<path fill="none" stroke="#56d8d8" stroke-width="2" d="M487,-612C487,-612 437,-612 437,-612 431,-612 425,-606 425,-600 425,-600 425,-588 425,-588 425,-582 431,-576 437,-576 437,-576 487,-576 487,-576 493,-576 499,-582 499,-588 499,-588 499,-600 499,-600 499,-606 493,-612 487,-612"/>
<text text-anchor="middle" x="462" y="-591.5" font-family="sans" font-size="10.00">data_NoChr</text>
</g>
<!-- 5&#45;&gt;12 -->
<g id="edge28" class="edge">
<title>5&#45;&gt;12</title>
<path fill="none" stroke="grey" stroke-width="2" d="M432.17,-719.77C437.23,-709.62 443.23,-696.37 447,-684 453.2,-663.67 457.04,-639.91 459.28,-622.05"/>
<polygon fill="grey" stroke="grey" stroke-width="2" points="462.77,-622.37 460.45,-612.03 455.82,-621.56 462.77,-622.37"/>
</g>
<!-- 5&#45;&gt;21 -->
<g id="edge48" class="edge">
<title>5&#45;&gt;21</title>
<path fill="none" stroke="grey" stroke-width="2" d="M448.45,-719.93C491.38,-689.51 577.22,-621.45 615,-540 623.93,-520.75 626.18,-496.74 626.34,-478.51"/>
<polygon fill="grey" stroke="grey" stroke-width="2" points="629.83,-478.22 626.21,-468.26 622.83,-478.3 629.83,-478.22"/>
</g>
<!-- 29 -->
<g id="node30" class="node">
<title>29</title>
<path fill="none" stroke="#56d85b" stroke-width="2" d="M775.5,-540C775.5,-540 696.5,-540 696.5,-540 690.5,-540 684.5,-534 684.5,-528 684.5,-528 684.5,-516 684.5,-516 684.5,-510 690.5,-504 696.5,-504 696.5,-504 775.5,-504 775.5,-504 781.5,-504 787.5,-510 787.5,-516 787.5,-516 787.5,-528 787.5,-528 787.5,-534 781.5,-540 775.5,-540"/>
<text text-anchor="middle" x="736" y="-519.5" font-family="sans" font-size="10.00">data_lncRNA_test</text>
</g>
<!-- 5&#45;&gt;29 -->
<g id="edge76" class="edge">
<title>5&#45;&gt;29</title>
<path fill="none" stroke="grey" stroke-width="2" d="M475.15,-731.54C538.63,-723.94 640.94,-708.3 670,-684 710.74,-649.92 726.65,-586.72 732.62,-550.46"/>
<polygon fill="grey" stroke="grey" stroke-width="2" points="736.15,-550.55 734.17,-540.14 729.23,-549.51 736.15,-550.55"/>
</g>
<!-- 6&#45;&gt;3 -->
<g id="edge13" class="edge">
<title>6&#45;&gt;3</title>
<path fill="none" stroke="grey" stroke-width="2" d="M341.18,-431.88C361.87,-422.35 387.8,-410.41 409.78,-400.28"/>
<polygon fill="grey" stroke="grey" stroke-width="2" points="411.32,-403.43 418.94,-396.07 408.39,-397.07 411.32,-403.43"/>
</g>
<!-- 7 -->
<g id="node8" class="node">
<title>7</title>
<path fill="none" stroke="#56a2d8" stroke-width="2" d="M238,-612C238,-612 180,-612 180,-612 174,-612 168,-606 168,-600 168,-600 168,-588 168,-588 168,-582 174,-576 180,-576 180,-576 238,-576 238,-576 244,-576 250,-582 250,-588 250,-588 250,-600 250,-600 250,-606 244,-612 238,-612"/>
<text text-anchor="middle" x="209" y="-591.5" font-family="sans" font-size="10.00">canonical_gtf</text>
</g>
<!-- 7&#45;&gt;6 -->
<g id="edge20" class="edge">
<title>7&#45;&gt;6</title>
<path fill="none" stroke="grey" stroke-width="2" d="M193.73,-575.83C178.97,-557.04 160.89,-526.61 176,-504 189.8,-483.35 213.29,-470.74 236.41,-463.04"/>
<polygon fill="grey" stroke="grey" stroke-width="2" points="237.72,-466.3 246.26,-460.03 235.68,-459.6 237.72,-466.3"/>
</g>
<!-- 7&#45;&gt;8 -->
<g id="edge25" class="edge">
<title>7&#45;&gt;8</title>
<path fill="none" stroke="grey" stroke-width="2" d="M232.48,-575.7C244.56,-566.8 259.45,-555.82 272.52,-546.2"/>
<polygon fill="grey" stroke="grey" stroke-width="2" points="274.81,-548.85 280.79,-540.1 270.66,-543.22 274.81,-548.85"/>
</g>
<!-- 15 -->
<g id="node16" class="node">
<title>15</title>
<path fill="none" stroke="#d8ac56" stroke-width="2" d="M837.5,-468C837.5,-468 706.5,-468 706.5,-468 700.5,-468 694.5,-462 694.5,-456 694.5,-456 694.5,-444 694.5,-444 694.5,-438 700.5,-432 706.5,-432 706.5,-432 837.5,-432 837.5,-432 843.5,-432 849.5,-438 849.5,-444 849.5,-444 849.5,-456 849.5,-456 849.5,-462 843.5,-468 837.5,-468"/>
<text text-anchor="middle" x="772" y="-447.5" font-family="sans" font-size="10.00">get_linear_junctions_lncRNA</text>
</g>
<!-- 7&#45;&gt;15 -->
<g id="edge34" class="edge">
<title>7&#45;&gt;15</title>
<path fill="none" stroke="grey" stroke-width="2" d="M211.02,-576C214.46,-555.26 223.56,-520.9 247,-504 324,-448.5 573.32,-479.49 684.27,-467.99"/>
<polygon fill="grey" stroke="grey" stroke-width="2" points="684.74,-471.45 694.25,-466.78 683.9,-464.5 684.74,-471.45"/>
</g>
<!-- 7&#45;&gt;21 -->
<g id="edge55" class="edge">
<title>7&#45;&gt;21</title>
<path fill="none" stroke="grey" stroke-width="2" d="M204.17,-575.78C199.71,-555.8 196.19,-523.15 214,-504 237.38,-478.87 454.31,-461.75 563.22,-454.67"/>
<polygon fill="grey" stroke="grey" stroke-width="2" points="563.66,-458.15 573.42,-454.01 563.21,-451.16 563.66,-458.15"/>
</g>
<!-- 8&#45;&gt;6 -->
<g id="edge17" class="edge">
<title>8&#45;&gt;6</title>
<path fill="none" stroke="grey" stroke-width="2" d="M304,-503.7C304,-495.98 304,-486.71 304,-478.11"/>
<polygon fill="grey" stroke="grey" stroke-width="2" points="307.5,-478.1 304,-468.1 300.5,-478.1 307.5,-478.1"/>
</g>
<!-- 8&#45;&gt;21 -->
<g id="edge52" class="edge">
<title>8&#45;&gt;21</title>
<path fill="none" stroke="grey" stroke-width="2" d="M351.71,-510.6C407.96,-498.33 501.58,-477.91 563.3,-464.45"/>
<polygon fill="grey" stroke="grey" stroke-width="2" points="564.28,-467.82 573.3,-462.27 562.78,-460.99 564.28,-467.82"/>
</g>
<!-- 9 -->
<g id="node10" class="node">
<title>9</title>
<path fill="none" stroke="#8fd856" stroke-width="2" d="M540,-540C540,-540 496,-540 496,-540 490,-540 484,-534 484,-528 484,-528 484,-516 484,-516 484,-510 490,-504 496,-504 496,-504 540,-504 540,-504 546,-504 552,-510 552,-516 552,-516 552,-528 552,-528 552,-534 546,-540 540,-540"/>
<text text-anchor="middle" x="518" y="-519.5" font-family="sans" font-size="10.00">genomepy</text>
</g>
<!-- 9&#45;&gt;3 -->
<g id="edge10" class="edge">
<title>9&#45;&gt;3</title>
<path fill="none" stroke="grey" stroke-width="2" d="M510.52,-503.87C499.86,-479.46 480.2,-434.43 467.63,-405.64"/>
<polygon fill="grey" stroke="grey" stroke-width="2" points="470.71,-403.95 463.51,-396.19 464.3,-406.75 470.71,-403.95"/>
</g>
<!-- 9&#45;&gt;21 -->
<g id="edge56" class="edge">
<title>9&#45;&gt;21</title>
<path fill="none" stroke="grey" stroke-width="2" d="M544.18,-503.88C558.04,-494.81 575.24,-483.55 590.21,-473.76"/>
<polygon fill="grey" stroke="grey" stroke-width="2" points="592.27,-476.59 598.72,-468.19 588.44,-470.74 592.27,-476.59"/>
</g>
<!-- 10&#45;&gt;3 -->
<g id="edge8" class="edge">
<title>10&#45;&gt;3</title>
<path fill="none" stroke="grey" stroke-width="2" d="M865.59,-654.69C948.03,-634.47 1104.03,-584.45 1054,-504 1015.79,-442.56 977.38,-452.51 908,-432 873.59,-421.83 660.45,-399.41 539.54,-387.24"/>
<polygon fill="grey" stroke="grey" stroke-width="2" points="539.86,-383.76 529.57,-386.24 539.17,-390.72 539.86,-383.76"/>
</g>
<!-- 10&#45;&gt;6 -->
<g id="edge18" class="edge">
<title>10&#45;&gt;6</title>
<path fill="none" stroke="grey" stroke-width="2" d="M770.35,-649.83C703.39,-628.01 578.11,-585.39 475,-540 428.46,-519.51 376.94,-492 342.73,-473.01"/>
<polygon fill="grey" stroke="grey" stroke-width="2" points="344.43,-469.95 334,-468.14 341.02,-476.07 344.43,-469.95"/>
</g>
<!-- 10&#45;&gt;8 -->
<g id="edge23" class="edge">
<title>10&#45;&gt;8</title>
<path fill="none" stroke="grey" stroke-width="2" d="M770.46,-661.92C678.33,-655.44 479.02,-638.74 416,-612 380.98,-597.14 347.76,-568.2 326.74,-547.34"/>
<polygon fill="grey" stroke="grey" stroke-width="2" points="329.07,-544.73 319.56,-540.07 324.09,-549.65 329.07,-544.73"/>
</g>
<!-- 10&#45;&gt;12 -->
<g id="edge29" class="edge">
<title>10&#45;&gt;12</title>
<path fill="none" stroke="grey" stroke-width="2" d="M770.36,-655.63C702.06,-642.2 577.07,-617.63 509.08,-604.26"/>
<polygon fill="grey" stroke="grey" stroke-width="2" points="509.56,-600.79 499.08,-602.29 508.21,-607.65 509.56,-600.79"/>
</g>
<!-- 13 -->
<g id="node14" class="node">
<title>13</title>
<path fill="none" stroke="#88d856" stroke-width="2" d="M1032.5,-540C1032.5,-540 977.5,-540 977.5,-540 971.5,-540 965.5,-534 965.5,-528 965.5,-528 965.5,-516 965.5,-516 965.5,-510 971.5,-504 977.5,-504 977.5,-504 1032.5,-504 1032.5,-504 1038.5,-504 1044.5,-510 1044.5,-516 1044.5,-516 1044.5,-528 1044.5,-528 1044.5,-534 1038.5,-540 1032.5,-540"/>
<text text-anchor="middle" x="1005" y="-519.5" font-family="sans" font-size="10.00">data_lncRNA</text>
</g>
<!-- 10&#45;&gt;13 -->
<g id="edge31" class="edge">
<title>10&#45;&gt;13</title>
<path fill="none" stroke="grey" stroke-width="2" d="M865.65,-654.1C892.94,-646.01 926.52,-632.71 951,-612 970.95,-595.12 985.59,-568.92 994.55,-549.31"/>
<polygon fill="grey" stroke="grey" stroke-width="2" points="997.82,-550.58 998.61,-540.01 991.4,-547.78 997.82,-550.58"/>
</g>
<!-- 10&#45;&gt;21 -->
<g id="edge53" class="edge">
<title>10&#45;&gt;21</title>
<path fill="none" stroke="grey" stroke-width="2" d="M842.62,-647.88C883.89,-617.17 958.68,-551.48 918,-504 885.84,-466.47 752.19,-477.63 687.03,-467.75"/>
<polygon fill="grey" stroke="grey" stroke-width="2" points="687.28,-464.23 676.81,-465.89 686.02,-471.12 687.28,-464.23"/>
</g>
<!-- 30 -->
<g id="node31" class="node">
<title>30</title>
<path fill="none" stroke="#c6d856" stroke-width="2" d="M896.5,-540C896.5,-540 817.5,-540 817.5,-540 811.5,-540 805.5,-534 805.5,-528 805.5,-528 805.5,-516 805.5,-516 805.5,-510 811.5,-504 817.5,-504 817.5,-504 896.5,-504 896.5,-504 902.5,-504 908.5,-510 908.5,-516 908.5,-516 908.5,-528 908.5,-528 908.5,-534 902.5,-540 896.5,-540"/>
<text text-anchor="middle" x="857" y="-519.5" font-family="sans" font-size="10.00">data_lncRNA_orig</text>
</g>
<!-- 10&#45;&gt;30 -->
<g id="edge79" class="edge">
<title>10&#45;&gt;30</title>
<path fill="none" stroke="grey" stroke-width="2" d="M829.76,-647.63C835.93,-637.64 843.02,-624.6 847,-612 853.36,-591.89 855.79,-568.11 856.66,-550.19"/>
<polygon fill="grey" stroke="grey" stroke-width="2" points="860.16,-550.25 857.03,-540.14 853.17,-550 860.16,-550.25"/>
</g>
<!-- 11 -->
<g id="node12" class="node">
<title>11</title>
<path fill="none" stroke="#56d87b" stroke-width="2" d="M861,-756C861,-756 775,-756 775,-756 769,-756 763,-750 763,-744 763,-744 763,-732 763,-732 763,-726 769,-720 775,-720 775,-720 861,-720 861,-720 867,-720 873,-726 873,-732 873,-732 873,-744 873,-744 873,-750 867,-756 861,-756"/>
<text text-anchor="middle" x="818" y="-735.5" font-family="sans" font-size="10.00">download_chainfile</text>
</g>
<!-- 11&#45;&gt;10 -->
<g id="edge27" class="edge">
<title>11&#45;&gt;10</title>
<path fill="none" stroke="grey" stroke-width="2" d="M818,-719.7C818,-711.98 818,-702.71 818,-694.11"/>
<polygon fill="grey" stroke="grey" stroke-width="2" points="821.5,-694.1 818,-684.1 814.5,-694.1 821.5,-694.1"/>
</g>
<!-- 12&#45;&gt;3 -->
<g id="edge7" class="edge">
<title>12&#45;&gt;3</title>
<path fill="none" stroke="grey" stroke-width="2" d="M461.52,-575.85C460.48,-538.83 458.02,-451.18 456.77,-406.39"/>
<polygon fill="grey" stroke="grey" stroke-width="2" points="460.26,-406.13 456.48,-396.23 453.26,-406.33 460.26,-406.13"/>
</g>
<!-- 12&#45;&gt;6 -->
<g id="edge16" class="edge">
<title>12&#45;&gt;6</title>
<path fill="none" stroke="grey" stroke-width="2" d="M442.94,-575.87C414.95,-550.71 362.59,-503.65 330.75,-475.04"/>
<polygon fill="grey" stroke="grey" stroke-width="2" points="332.9,-472.27 323.13,-468.19 328.22,-477.48 332.9,-472.27"/>
</g>
<!-- 12&#45;&gt;8 -->
<g id="edge22" class="edge">
<title>12&#45;&gt;8</title>
<path fill="none" stroke="grey" stroke-width="2" d="M424.96,-576.59C403.15,-566.93 375.34,-554.61 351.88,-544.21"/>
<polygon fill="grey" stroke="grey" stroke-width="2" points="353.02,-540.89 342.46,-540.04 350.19,-547.29 353.02,-540.89"/>
</g>
<!-- 12&#45;&gt;21 -->
<g id="edge49" class="edge">
<title>12&#45;&gt;21</title>
<path fill="none" stroke="grey" stroke-width="2" d="M499.32,-577.96C519.02,-568.86 542.82,-555.93 561,-540 581.54,-522 599.17,-496.21 610.69,-477.02"/>
<polygon fill="grey" stroke="grey" stroke-width="2" points="613.82,-478.6 615.84,-468.2 607.78,-475.07 613.82,-478.6"/>
</g>
<!-- 13&#45;&gt;3 -->
<g id="edge12" class="edge">
<title>13&#45;&gt;3</title>
<path fill="none" stroke="grey" stroke-width="2" d="M983.23,-503.66C955.93,-482.92 906.87,-448.89 859,-432 801.9,-411.86 640.26,-394.9 539.9,-385.92"/>
<polygon fill="grey" stroke="grey" stroke-width="2" points="540.05,-382.42 529.78,-385.02 539.43,-389.39 540.05,-382.42"/>
</g>
<!-- 13&#45;&gt;15 -->
<g id="edge35" class="edge">
<title>13&#45;&gt;15</title>
<path fill="none" stroke="grey" stroke-width="2" d="M965.21,-508.39C960.43,-506.9 955.61,-505.41 951,-504 914.47,-492.84 873.63,-480.72 840.2,-470.89"/>
<polygon fill="grey" stroke="grey" stroke-width="2" points="841.1,-467.51 830.52,-468.05 839.13,-474.23 841.1,-467.51"/>
</g>
<!-- 13&#45;&gt;21 -->
<g id="edge57" class="edge">
<title>13&#45;&gt;21</title>
<path fill="none" stroke="grey" stroke-width="2" d="M965.4,-507.69C960.58,-506.32 955.7,-505.05 951,-504 838.18,-478.77 804.25,-491.28 686.9,-468"/>
<polygon fill="grey" stroke="grey" stroke-width="2" points="687.29,-464.51 676.8,-465.95 685.9,-471.37 687.29,-464.51"/>
</g>
<!-- 14&#45;&gt;13 -->
<g id="edge30" class="edge">
<title>14&#45;&gt;13</title>
<path fill="none" stroke="grey" stroke-width="2" d="M838.23,-579.67C871.52,-568.36 919.47,-552.06 955.41,-539.85"/>
<polygon fill="grey" stroke="grey" stroke-width="2" points="956.87,-543.05 965.21,-536.52 954.62,-536.42 956.87,-543.05"/>
</g>
<!-- 14&#45;&gt;29 -->
<g id="edge77" class="edge">
<title>14&#45;&gt;29</title>
<path fill="none" stroke="grey" stroke-width="2" d="M783.43,-575.7C775.8,-567.22 766.48,-556.86 758.12,-547.58"/>
<polygon fill="grey" stroke="grey" stroke-width="2" points="760.69,-545.2 751.39,-540.1 755.48,-549.88 760.69,-545.2"/>
</g>
<!-- 14&#45;&gt;30 -->
<g id="edge78" class="edge">
<title>14&#45;&gt;30</title>
<path fill="none" stroke="grey" stroke-width="2" d="M813.34,-575.7C820.29,-567.3 828.77,-557.07 836.4,-547.86"/>
<polygon fill="grey" stroke="grey" stroke-width="2" points="839.14,-550.04 842.83,-540.1 833.75,-545.57 839.14,-550.04"/>
</g>
<!-- 15&#45;&gt;3 -->
<g id="edge11" class="edge">
<title>15&#45;&gt;3</title>
<path fill="none" stroke="grey" stroke-width="2" d="M695.1,-431.97C648.01,-421.53 587.74,-408.18 539.49,-397.5"/>
<polygon fill="grey" stroke="grey" stroke-width="2" points="540.22,-394.07 529.7,-395.33 538.71,-400.91 540.22,-394.07"/>
</g>
<!-- 16 -->
<g id="node17" class="node">
<title>16</title>
<path fill="none" stroke="#56d882" stroke-width="2" d="M577,-108C577,-108 533,-108 533,-108 527,-108 521,-102 521,-96 521,-96 521,-84 521,-84 521,-78 527,-72 533,-72 533,-72 577,-72 577,-72 583,-72 589,-78 589,-84 589,-84 589,-96 589,-96 589,-102 583,-108 577,-108"/>
<text text-anchor="middle" x="555" y="-87.5" font-family="sans" font-size="10.00">evaluation</text>
</g>
<!-- 16&#45;&gt;0 -->
<g id="edge3" class="edge">
<title>16&#45;&gt;0</title>
<path fill="none" stroke="grey" stroke-width="2" d="M543.63,-71.7C538.28,-63.56 531.8,-53.69 525.89,-44.7"/>
<polygon fill="grey" stroke="grey" stroke-width="2" points="528.66,-42.54 520.24,-36.1 522.81,-46.38 528.66,-42.54"/>
</g>
<!-- 17 -->
<g id="node18" class="node">
<title>17</title>
<path fill="none" stroke="#56d8a9" stroke-width="2" d="M673,-180C673,-180 637,-180 637,-180 631,-180 625,-174 625,-168 625,-168 625,-156 625,-156 625,-150 631,-144 637,-144 637,-144 673,-144 673,-144 679,-144 685,-150 685,-156 685,-156 685,-168 685,-168 685,-174 679,-180 673,-180"/>
<text text-anchor="middle" x="655" y="-159.5" font-family="sans" font-size="10.00">test_JEDI</text>
</g>
<!-- 17&#45;&gt;16 -->
<g id="edge37" class="edge">
<title>17&#45;&gt;16</title>
<path fill="none" stroke="grey" stroke-width="2" d="M630.54,-143.88C617.7,-134.89 601.8,-123.76 587.91,-114.03"/>
<polygon fill="grey" stroke="grey" stroke-width="2" points="589.76,-111.06 579.56,-108.19 585.74,-116.79 589.76,-111.06"/>
</g>
<!-- 28 -->
<g id="node29" class="node">
<title>28</title>
<path fill="none" stroke="#a7d856" stroke-width="2" d="M491,-108C491,-108 437,-108 437,-108 431,-108 425,-102 425,-96 425,-96 425,-84 425,-84 425,-78 431,-72 437,-72 437,-72 491,-72 491,-72 497,-72 503,-78 503,-84 503,-84 503,-96 503,-96 503,-102 497,-108 491,-108"/>
<text text-anchor="middle" x="464" y="-87.5" font-family="sans" font-size="10.00">lncRNA_task</text>
</g>
<!-- 17&#45;&gt;28 -->
<g id="edge72" class="edge">
<title>17&#45;&gt;28</title>
<path fill="none" stroke="grey" stroke-width="2" d="M624.86,-147.59C621.88,-146.34 618.89,-145.13 616,-144 573.19,-127.29 559.77,-124.47 512.59,-108.17"/>
<polygon fill="grey" stroke="grey" stroke-width="2" points="513.62,-104.83 503.02,-104.85 511.32,-111.44 513.62,-104.83"/>
</g>
<!-- 18&#45;&gt;17 -->
<g id="edge42" class="edge">
<title>18&#45;&gt;17</title>
<path fill="none" stroke="grey" stroke-width="2" d="M655,-215.7C655,-207.98 655,-198.71 655,-190.11"/>
<polygon fill="grey" stroke="grey" stroke-width="2" points="658.5,-190.1 655,-180.1 651.5,-190.1 658.5,-190.1"/>
</g>
<!-- 18&#45;&gt;22 -->
<g id="edge58" class="edge">
<title>18&#45;&gt;22</title>
<path fill="none" stroke="grey" stroke-width="2" d="M630.54,-215.88C617.7,-206.89 601.8,-195.76 587.91,-186.03"/>
<polygon fill="grey" stroke="grey" stroke-width="2" points="589.76,-183.06 579.56,-180.19 585.74,-188.79 589.76,-183.06"/>
</g>
<!-- 19 -->
<g id="node20" class="node">
<title>19</title>
<path fill="none" stroke="#d8d356" stroke-width="2" d="M734,-324C734,-324 694,-324 694,-324 688,-324 682,-318 682,-312 682,-312 682,-300 682,-300 682,-294 688,-288 694,-288 694,-288 734,-288 734,-288 740,-288 746,-294 746,-300 746,-300 746,-312 746,-312 746,-318 740,-324 734,-324"/>
<text text-anchor="middle" x="714" y="-303.5" font-family="sans" font-size="10.00">train_JEDI</text>
</g>
<!-- 19&#45;&gt;17 -->
<g id="edge41" class="edge">
<title>19&#45;&gt;17</title>
<path fill="none" stroke="grey" stroke-width="2" d="M721.52,-287.98C728.56,-269.33 736.44,-239 725,-216 718.22,-202.36 706.06,-191.29 693.76,-182.87"/>
<polygon fill="grey" stroke="grey" stroke-width="2" points="695.6,-179.89 685.29,-177.46 691.84,-185.79 695.6,-179.89"/>
</g>
<!-- 19&#45;&gt;18 -->
<g id="edge43" class="edge">
<title>19&#45;&gt;18</title>
<path fill="none" stroke="grey" stroke-width="2" d="M699.42,-287.7C692.34,-279.3 683.72,-269.07 675.95,-259.86"/>
<polygon fill="grey" stroke="grey" stroke-width="2" points="678.54,-257.49 669.42,-252.1 673.19,-262.01 678.54,-257.49"/>
</g>
<!-- 20 -->
<g id="node21" class="node">
<title>20</title>
<path fill="none" stroke="#566bd8" stroke-width="2" d="M763,-396C763,-396 665,-396 665,-396 659,-396 653,-390 653,-384 653,-384 653,-372 653,-372 653,-366 659,-360 665,-360 665,-360 763,-360 763,-360 769,-360 775,-366 775,-372 775,-372 775,-384 775,-384 775,-390 769,-396 763,-396"/>
<text text-anchor="middle" x="714" y="-375.5" font-family="sans" font-size="10.00">extract_features_JEDI</text>
</g>
<!-- 20&#45;&gt;19 -->
<g id="edge45" class="edge">
<title>20&#45;&gt;19</title>
<path fill="none" stroke="grey" stroke-width="2" d="M714,-359.7C714,-351.98 714,-342.71 714,-334.11"/>
<polygon fill="grey" stroke="grey" stroke-width="2" points="717.5,-334.1 714,-324.1 710.5,-334.1 717.5,-334.1"/>
</g>
<!-- 21&#45;&gt;19 -->
<g id="edge46" class="edge">
<title>21&#45;&gt;19</title>
<path fill="none" stroke="grey" stroke-width="2" d="M625.17,-431.94C626.11,-412.98 629.92,-382.13 644,-360 651.5,-348.21 662.6,-338.07 673.76,-329.91"/>
<polygon fill="grey" stroke="grey" stroke-width="2" points="676,-332.62 682.25,-324.06 672.03,-326.85 676,-332.62"/>
</g>
<!-- 21&#45;&gt;20 -->
<g id="edge47" class="edge">
<title>21&#45;&gt;20</title>
<path fill="none" stroke="grey" stroke-width="2" d="M647,-431.7C658.21,-422.88 672,-412.03 684.15,-402.47"/>
<polygon fill="grey" stroke="grey" stroke-width="2" points="686.56,-405.04 692.25,-396.1 682.23,-399.54 686.56,-405.04"/>
</g>
<!-- 22&#45;&gt;16 -->
<g id="edge38" class="edge">
<title>22&#45;&gt;16</title>
<path fill="none" stroke="grey" stroke-width="2" d="M555,-143.7C555,-135.98 555,-126.71 555,-118.11"/>
<polygon fill="grey" stroke="grey" stroke-width="2" points="558.5,-118.1 555,-108.1 551.5,-118.1 558.5,-118.1"/>
</g>
<!-- 22&#45;&gt;28 -->
<g id="edge73" class="edge">
<title>22&#45;&gt;28</title>
<path fill="none" stroke="grey" stroke-width="2" d="M532.51,-143.7C521.04,-134.88 506.94,-124.03 494.52,-114.47"/>
<polygon fill="grey" stroke="grey" stroke-width="2" points="496.3,-111.43 486.24,-108.1 492.03,-116.98 496.3,-111.43"/>
</g>
<!-- 23&#45;&gt;16 -->
<g id="edge40" class="edge">
<title>23&#45;&gt;16</title>
<path fill="none" stroke="grey" stroke-width="2" d="M357.07,-153.96C391.03,-144.95 451.16,-128.4 511.21,-108.12"/>
<polygon fill="grey" stroke="grey" stroke-width="2" points="512.5,-111.38 520.84,-104.84 510.24,-104.75 512.5,-111.38"/>
</g>
<!-- 23&#45;&gt;28 -->
<g id="edge75" class="edge">
<title>23&#45;&gt;28</title>
<path fill="none" stroke="grey" stroke-width="2" d="M357.12,-146.83C375.77,-137.09 400.91,-123.96 422.12,-112.88"/>
<polygon fill="grey" stroke="grey" stroke-width="2" points="424,-115.85 431.24,-108.11 420.76,-109.64 424,-115.85"/>
</g>
<!-- 24&#45;&gt;23 -->
<g id="edge61" class="edge">
<title>24&#45;&gt;23</title>
<path fill="none" stroke="grey" stroke-width="2" d="M287.09,-215.7C293.92,-207.3 302.26,-197.07 309.76,-187.86"/>
<polygon fill="grey" stroke="grey" stroke-width="2" points="312.47,-190.07 316.07,-180.1 307.04,-185.65 312.47,-190.07"/>
</g>
<!-- 25&#45;&gt;23 -->
<g id="edge63" class="edge">
<title>25&#45;&gt;23</title>
<path fill="none" stroke="grey" stroke-width="2" d="M363.42,-287.87C356.91,-263.56 344.94,-218.82 337.23,-190.01"/>
<polygon fill="grey" stroke="grey" stroke-width="2" points="340.57,-188.94 334.6,-180.19 333.8,-190.75 340.57,-188.94"/>
</g>
<!-- 25&#45;&gt;24 -->
<g id="edge65" class="edge">
<title>25&#45;&gt;24</title>
<path fill="none" stroke="grey" stroke-width="2" d="M344.52,-287.7C332.44,-278.8 317.55,-267.82 304.48,-258.2"/>
<polygon fill="grey" stroke="grey" stroke-width="2" points="306.34,-255.22 296.21,-252.1 302.19,-260.85 306.34,-255.22"/>
</g>
<!-- 25&#45;&gt;26 -->
<g id="edge69" class="edge">
<title>25&#45;&gt;26</title>
<path fill="none" stroke="grey" stroke-width="2" d="M368.26,-287.99C369.28,-269.09 373.16,-238.28 387,-216 394.24,-204.35 404.98,-194.21 415.76,-186"/>
<polygon fill="grey" stroke="grey" stroke-width="2" points="417.88,-188.79 423.95,-180.1 413.79,-183.1 417.88,-188.79"/>
</g>
<!-- 25&#45;&gt;27 -->
<g id="edge71" class="edge">
<title>25&#45;&gt;27</title>
<path fill="none" stroke="grey" stroke-width="2" d="M383.08,-287.7C390.39,-279.3 399.31,-269.07 407.34,-259.86"/>
<polygon fill="grey" stroke="grey" stroke-width="2" points="410.16,-261.94 414.09,-252.1 404.89,-257.34 410.16,-261.94"/>
</g>
<!-- 26&#45;&gt;16 -->
<g id="edge39" class="edge">
<title>26&#45;&gt;16</title>
<path fill="none" stroke="grey" stroke-width="2" d="M478.71,-143.88C491.67,-134.89 507.73,-123.76 521.77,-114.03"/>
<polygon fill="grey" stroke="grey" stroke-width="2" points="523.97,-116.76 530.2,-108.19 519.98,-111.01 523.97,-116.76"/>
</g>
<!-- 26&#45;&gt;28 -->
<g id="edge74" class="edge">
<title>26&#45;&gt;28</title>
<path fill="none" stroke="grey" stroke-width="2" d="M456.47,-143.7C457.57,-135.98 458.9,-126.71 460.13,-118.11"/>
<polygon fill="grey" stroke="grey" stroke-width="2" points="463.61,-118.5 461.56,-108.1 456.68,-117.51 463.61,-118.5"/>
</g>
<!-- 27&#45;&gt;26 -->
<g id="edge67" class="edge">
<title>27&#45;&gt;26</title>
<path fill="none" stroke="grey" stroke-width="2" d="M435.18,-215.7C438,-207.81 441.39,-198.3 444.52,-189.55"/>
<polygon fill="grey" stroke="grey" stroke-width="2" points="447.82,-190.7 447.89,-180.1 441.23,-188.34 447.82,-190.7"/>
</g>
<!-- 28&#45;&gt;0 -->
<g id="edge2" class="edge">
<title>28&#45;&gt;0</title>
<path fill="none" stroke="grey" stroke-width="2" d="M475.12,-71.7C480.36,-63.56 486.7,-53.69 492.48,-44.7"/>
<polygon fill="grey" stroke="grey" stroke-width="2" points="495.54,-46.41 498,-36.1 489.65,-42.62 495.54,-46.41"/>
</g>
<!-- 29&#45;&gt;15 -->
<g id="edge36" class="edge">
<title>29&#45;&gt;15</title>
<path fill="none" stroke="grey" stroke-width="2" d="M744.9,-503.7C749,-495.73 753.95,-486.1 758.49,-477.26"/>
<polygon fill="grey" stroke="grey" stroke-width="2" points="761.74,-478.6 763.2,-468.1 755.52,-475.4 761.74,-478.6"/>
</g>
<!-- 29&#45;&gt;21 -->
<g id="edge50" class="edge">
<title>29&#45;&gt;21</title>
<path fill="none" stroke="grey" stroke-width="2" d="M708.85,-503.88C694.47,-494.81 676.62,-483.55 661.09,-473.76"/>
<polygon fill="grey" stroke="grey" stroke-width="2" points="662.58,-470.56 652.26,-468.19 658.85,-476.48 662.58,-470.56"/>
</g>
<!-- 30&#45;&gt;15 -->
<g id="edge33" class="edge">
<title>30&#45;&gt;15</title>
<path fill="none" stroke="grey" stroke-width="2" d="M835.99,-503.7C825.28,-494.88 812.11,-484.03 800.5,-474.47"/>
<polygon fill="grey" stroke="grey" stroke-width="2" points="802.71,-471.76 792.77,-468.1 798.26,-477.16 802.71,-471.76"/>
</g>
<!-- 30&#45;&gt;21 -->
<g id="edge51" class="edge">
<title>30&#45;&gt;21</title>
<path fill="none" stroke="grey" stroke-width="2" d="M805.22,-505.38C770.04,-494.76 723.35,-480.67 686.3,-469.5"/>
<polygon fill="grey" stroke="grey" stroke-width="2" points="687.2,-466.11 676.62,-466.57 685.18,-472.81 687.2,-466.11"/>
</g>
</g>
</svg>
